<svg viewBox="0 0 800 800" xmlns="http://www.w3.org/2000/svg"><path d="" stroke="black"  stroke-width="4"  fill="red"/>
<path d="M803.7792373427503,517.3145010848256 L803.5753290275122,521.091971865713 M803.8637572350215,523.9041984446153 L803.5753290275122,521.091971865713 M803.8637572350215,523.9041984446153 L804.0679471630813,520.1254924671746 M804.0679471630813,520.1254924671746 L803.7792373427503,517.3145010848256 M803.7792373427503,517.3145010848256 L809.3271948497218,517.3144939410373 M809.1205810188428,521.0919647187834 L809.3271948497218,517.3144939410373 M803.5753290275122,521.091971865713 L809.1205810188428,521.0919647187834 M809.1205810188428,521.0919647187834 L809.4128361768408,523.9041912878174 M809.4128361768408,523.9041912878174 L803.8637572350215,523.9041984446153 M809.4128361768408,523.9041912878174 L809.6197353570626,520.1254853135179 M809.6197353570626,520.1254853135179 L804.0679471630813,520.1254924671746 M809.6197353570626,520.1254853135179 L809.3271948497218,517.3144939410373" stroke="black"  stroke-width="4"  fill="red"/>
<path d="M803.6748364005878,528.8553891879529 L804.1560005337008,519.9527179033374 M804.1560005337008,519.9527179033374 L815.2619335579468,519.952721480767 M815.2619335579468,519.952721480767 L814.7680009445578,528.8553927690783 M814.7680009445578,528.8553927690783 L803.6748364005878,528.8553891879529 M803.6748364005878,528.8553891879529 L804.0149438123829,532.1771411306105 M804.0149438123829,532.1771411306105 L815.1171339828106,532.1771447175656 M815.1171339828106,532.1771447175656 L814.7680009445578,528.8553927690783 M804.1560005337008,519.9527179033374 L804.49689167157,523.271044630949 M804.49689167157,523.271044630949 L804.0149438123829,532.1771411306105 M815.2619335579468,519.952721480767 L815.6118711200984,523.2710482142088 M815.6118711200984,523.2710482142088 L804.49689167157,523.271044630949 M815.1171339828106,532.1771447175656 L815.6118711200984,523.2710482142088" stroke="black"  stroke-width="4"  fill="red"/>
<path d="" stroke="black"  stroke-width="4"  fill="red"/>
<path d="M627.5016070911918,629.3675811571231 L627.3804176362262,633.1928230348325 M622.5456666710124,633.1928230348325 L627.3804176362262,633.1928230348325 M622.5456666710124,633.1928230348325 L622.6644323370019,629.3675811571233 M622.6644323370019,629.3675811571233 L627.5016070911918,629.3675811571231 M627.5016070911918,629.3675811571231 L627.7038472451784,632.8657422940156 M627.5824550750594,636.6924270884417 L627.7038472451784,632.8657422940156 M627.3804176362262,633.1928230348325 L627.5824550750594,636.6924270884417 M627.5824550750594,636.6924270884417 L622.7436631151609,636.6924270884417 M622.7436631151609,636.6924270884417 L622.5456666710124,633.1928230348325 M622.7436631151609,636.6924270884417 L622.8626274418773,632.8657422940156 M622.8626274418773,632.8657422940156 L622.6644323370019,629.3675811571233 M622.8626274418773,632.8657422940156 L627.7038472451784,632.8657422940156" stroke="black"  stroke-width="4"  fill="red"/>
<path d="M621.5432854916828,637.6959883548506 L621.8220593595795,628.684321027091 M621.8220593595795,628.684321027091 L622.217438178583,635.6859941015019 M622.217438178583,635.6859941015019 L621.9377307194698,644.7044512190532 M621.9377307194698,644.7044512190532 L621.5432854916828,637.6959883548506 M621.5432854916828,637.6959883548506 L615.848846108506,637.6959959040702 M615.848846108506,637.6959959040702 L616.2337758534272,644.7044550062964 M616.2337758534272,644.7044550062964 L621.9377307194698,644.7044512190532 M621.8220593595795,628.684321027091 L616.1208906084769,628.6843285689819 M616.1208906084769,628.6843285689819 L615.848846108506,637.6959959040702 M622.217438178583,635.6859941015019 L616.5067314154737,635.6859978850835 M616.5067314154737,635.6859978850835 L616.1208906084769,628.6843285689819 M616.2337758534272,644.7044550062964 L616.5067314154737,635.6859978850835" stroke="black"  stroke-width="4"  fill="red"/>
<path d="" stroke="black"  stroke-width="4"  fill="red"/>
<path d="M170.8378945861457,161.44493950959833 L170.93349377063782,165.05073816456203 M175.227680818414,165.05073816456203 L170.93349377063782,165.05073816456203 M175.227680818414,165.05073816456203 L175.13399361751442,161.4449395095982 M175.13399361751442,161.4449395095982 L170.8378945861457,161.44493950959833 M170.8378945861457,161.44493950959833 L170.99719005327242,158.68995197912784 M171.09264753745148,162.29430321295652 L170.99719005327242,158.68995197912784 M170.93349377063782,165.05073816456203 L171.09264753745148,162.29430321295652 M171.09264753745148,162.29430321295652 L175.38365172830504,162.29430321295652 M175.38365172830504,162.29430321295652 L175.227680818414,165.05073816456203 M175.38365172830504,162.29430321295652 L175.2901033938095,158.68995197912784 M175.2901033938095,158.68995197912784 L175.13399361751442,161.4449395095982 M175.2901033938095,158.68995197912784 L170.99719005327242,158.68995197912784" stroke="black"  stroke-width="4"  fill="red"/>
<path d="M176.10416036338708,169.29610086694825 L175.88423985560854,160.80093167000442 M175.88423985560854,160.80093167000442 L176.1951141237295,155.2955479593427 M176.1951141237295,155.2955479593427 L176.41438358002807,163.7839033394564 M176.41438358002807,163.7839033394564 L176.10416036338708,169.29610086694825 M176.10416036338708,169.29610086694825 L181.16225024887763,169.29609491069624 M181.16225024887763,169.29609491069624 L181.46497919054528,163.7839003701422 M181.46497919054528,163.7839003701422 L176.41438358002807,163.7839033394564 M175.88423985560854,160.80093167000442 L180.9476384396137,160.80092572110578 M180.9476384396137,160.80092572110578 L181.16225024887763,169.29609491069624 M176.1951141237295,155.2955479593427 L181.25100271072728,155.2955449937037 M181.25100271072728,155.2955449937037 L180.9476384396137,160.80092572110578 M181.46497919054528,163.7839003701422 L181.25100271072728,155.2955449937037" stroke="black"  stroke-width="4"  fill="red"/>
<path d="" stroke="black"  stroke-width="4"  fill="red"/>
<path d="M-5.504668933869766,254.5404928248102 L-5.326228253140641,258.1941327526476 M-5.07415276333262,255.73635166927312 L-5.326228253140641,258.1941327526476 M-5.07415276333262,255.73635166927312 L-5.252363368208478,252.08394746040267 M-5.252363368208478,252.08394746040267 L-5.504668933869766,254.5404928248102 M-5.504668933869766,254.5404928248102 L-10.694531664186286,254.54049907616047 M-10.513723378671386,258.1941390071407 L-10.694531664186286,254.54049907616047 M-5.326228253140641,258.1941327526476 L-10.513723378671386,258.1941390071407 M-10.513723378671386,258.1941390071407 L-10.258303275216235,255.73635791570365 M-10.258303275216235,255.73635791570365 L-5.07415276333262,255.73635166927312 M-10.258303275216235,255.73635791570365 L-10.43887843216163,252.0839537036909 M-10.43887843216163,252.0839537036909 L-5.252363368208478,252.08394746040267 M-10.43887843216163,252.0839537036909 L-10.694531664186286,254.54049907616047" stroke="black"  stroke-width="4"  fill="red"/>
<path d="M-4.819417212539918,259.5978173892015 L-5.239175642083524,250.99345922402387 M-5.239175642083524,250.99345922402387 L-15.611871120098442,250.99345610337951 M-15.611871120098442,250.99345610337951 L-15.18097371290554,259.5978142648588 M-15.18097371290554,259.5978142648588 L-4.819417212539918,259.5978173892015 M-4.819417212539918,259.5978173892015 L-4.5231360411648325,256.70431741301513 M-4.5231360411648325,256.70431741301513 L-14.876830531674614,256.70431429341187 M-14.876830531674614,256.70431429341187 L-15.18097371290554,259.5978142648588 M-5.239175642083524,250.99345922402387 L-4.942257360569954,248.10338673172396 M-4.942257360569954,248.10338673172396 L-4.5231360411648325,256.70431741301513 M-15.611871120098442,250.99345610337951 L-15.30707392228652,248.10338361581853 M-15.30707392228652,248.10338361581853 L-4.942257360569954,248.10338673172396 M-14.876830531674614,256.70431429341187 L-15.30707392228652,248.10338361581853" stroke="black"  stroke-width="4"  fill="red"/></svg>