<svg viewBox="0 0 800 800" xmlns="http://www.w3.org/2000/svg"><path d="" stroke="black"  stroke-width="4"  fill="red"/>
<path d="M831.1434450070035,475.86644913151736 L830.9305731492002,479.8791572042945 M831.2316795911079,482.8149988347755 L830.9305731492002,479.8791572042945 M831.2316795911079,482.8149988347755 L831.4448420960164,478.8009687086821 M831.4448420960164,478.8009687086821 L831.1434450070035,475.86644913151736 M831.1434450070035,475.86644913151736 L837.0018563270032,475.86644167373896 M836.7861600226256,479.87914974315373 L837.0018563270032,475.86644167373896 M830.9305731492002,479.8791572042945 L836.7861600226256,479.87914974315373 M836.7861600226256,479.87914974315373 L837.0912616335854,482.81499136345013 M837.0912616335854,482.81499136345013 L831.2316795911079,482.8149988347755 M837.0912616335854,482.81499136345013 L837.3072524414595,478.80096124071866 M837.3072524414595,478.80096124071866 L831.4448420960164,478.8009687086821 M837.3072524414595,478.80096124071866 L837.0018563270032,475.86644167373896" stroke="black"  stroke-width="4"  fill="red"/>
<path d="M831.0344490225307,488.0653856688543 L831.5367579896597,478.6082315525485 M831.5367579896597,478.6082315525485 L843.2640450122124,478.6082315525485 M843.2640450122124,478.6082315525485 L842.7484064454434,488.0653856688544 M842.7484064454434,488.0653856688544 L831.0344490225307,488.0653856688543 M831.0344490225307,488.0653856688543 L831.3895156084509,491.53311838576207 M831.3895156084509,491.53311838576207 L843.1128834489045,491.5331258748906 M843.1128834489045,491.5331258748906 L842.7484064454434,488.0653856688544 M831.5367579896597,478.6082315525485 L831.8926334390449,482.07229781284553 M831.8926334390449,482.07229781284553 L831.3895156084509,491.53311838576207 M843.2640450122124,478.6082315525485 L843.6293523310578,482.07230529406263 M843.6293523310578,482.07230529406263 L831.8926334390449,482.07229781284553 M843.1128834489045,491.5331258748906 L843.6293523310578,482.07230529406263" stroke="black"  stroke-width="4"  fill="red"/>
<path d="" stroke="black"  stroke-width="4"  fill="red"/>
<path d="M561.8287133312595,644.9878777926635 L561.7424182294897,649.0736247187807 M556.5784130433672,649.0736247187807 L561.7424182294897,649.0736247187807 M556.5784130433672,649.0736247187807 L556.6621192922812,644.9878777926635 M556.6621192922812,644.9878777926635 L561.8287133312595,644.9878777926635 M561.8287133312595,644.9878777926635 L561.9727176379758,648.7242692599344 M561.8862781914827,652.8115573676889 L561.9727176379758,648.7242692599344 M561.7424182294897,649.0736247187807 L561.8862781914827,652.8115573676889 M561.8862781914827,652.8115573676889 L556.717956812518,652.8115573676889 M556.717956812518,652.8115573676889 L556.5784130433672,649.0736247187807 M556.717956812518,652.8115573676889 L556.8018030756164,648.7242692599344 M556.8018030756164,648.7242692599344 L556.6621192922812,644.9878777926635 M556.8018030756164,648.7242692599344 L561.9727176379758,648.7242692599344" stroke="black"  stroke-width="4"  fill="red"/>
<path d="M555.5585626682387,653.8834627505338 L555.7546726539574,644.2580865623925 M555.7546726539574,644.2580865623925 L556.032806930584,651.7365887368326 M556.032806930584,651.7365887368326 L555.8360401930975,661.369217114147 M555.8360401930975,661.369217114147 L555.5585626682387,653.8834627505338 M555.5585626682387,653.8834627505338 L549.476322762323,653.8834708138671 M549.476322762323,653.8834708138671 L549.7436432855443,661.369217114147 M549.7436432855443,661.369217114147 L555.8360401930975,661.369217114147 M555.7546726539574,644.2580865623925 L549.6652450991039,644.2580946178982 M549.6652450991039,644.2580946178982 L549.476322762323,653.8834708138671 M556.032806930584,651.7365887368326 L549.9331983182899,651.7365887368326 M549.9331983182899,651.7365887368326 L549.6652450991039,644.2580946178982 M549.7436432855443,661.369217114147 L549.9331983182899,651.7365887368326" stroke="black"  stroke-width="4"  fill="red"/>
<path d="" stroke="black"  stroke-width="4"  fill="red"/>
<path d="M236.6532138925881,145.19896093681675 L236.72128698819853,149.05032020812578 M241.30791499540047,149.05032020812578 L236.72128698819853,149.05032020812578 M241.30791499540047,149.05032020812578 L241.24188409250254,145.19896093681683 M241.24188409250254,145.19896093681683 L236.6532138925881,145.19896093681675 M236.6532138925881,145.19896093681675 L236.76664694344186,142.25635437912354 M236.8346191371014,146.10616765761887 L236.76664694344186,142.25635437912354 M236.72128698819853,149.05032020812578 L236.8346191371014,146.10616765761887 M236.8346191371014,146.10616765761887 L241.4178475297682,146.10616765761887 M241.4178475297682,146.10616765761887 L241.30791499540047,149.05032020812578 M241.4178475297682,146.10616765761887 L241.35191450191843,142.25635437912354 M241.35191450191843,142.25635437912354 L241.24188409250254,145.19896093681683 M241.35191450191843,142.25635437912354 L236.76664694344186,142.25635437912354" stroke="black"  stroke-width="4"  fill="red"/>
<path d="M242.20401072751264,153.58479885445755 L242.04930251197882,144.51109514031674 M242.04930251197882,144.51109514031674 L242.26799822899324,138.63078288585302 M242.26799822899324,138.63078288585302 L242.42224844289973,147.69720874748813 M242.42224844289973,147.69720874748813 L242.20401072751264,153.58479885445755 M242.20401072751264,153.58479885445755 L247.60656444693387,153.58479249257513 M247.60656444693387,153.58479249257513 L247.81679163854147,147.69720874748813 M247.81679163854147,147.69720874748813 L242.42224844289973,147.69720874748813 M242.04930251197882,144.51109514031674 L247.45752646045997,144.51108878628867 M247.45752646045997,144.51108878628867 L247.60656444693387,153.58479249257513 M242.26799822899324,138.63078288585302 L247.66819485474775,138.63078288585297 M247.66819485474775,138.63078288585297 L247.45752646045997,144.51108878628867 M247.81679163854147,147.69720874748813 L247.66819485474775,138.63078288585297" stroke="black"  stroke-width="4"  fill="red"/>
<path d="" stroke="black"  stroke-width="4"  fill="red"/>
<path d="M-32.71963463102867,288.86922188185594 L-32.52487505106387,292.79369937404783 M-32.24974984582127,290.11117944511665 L-32.52487505106387,292.79369937404783 M-32.24974984582127,290.11117944511665 L-32.44425558136032,286.1880240805118 M-32.44425558136032,286.1880240805118 L-32.71963463102867,288.86922188185594 M-32.71963463102867,288.86922188185594 L-38.323216331794185,288.8692287049436 M-38.1258726229583,292.79370620049787 L-38.323216331794185,288.8692287049436 M-32.52487505106387,292.79369937404783 L-38.1258726229583,292.79370620049787 M-38.1258726229583,292.79370620049787 L-37.84709697348035,290.1111862626714 M-37.84709697348035,290.1111862626714 L-32.24974984582127,290.11117944511665 M-37.84709697348035,290.1111862626714 L-38.04418346980566,286.1880308947043 M-38.04418346980566,286.1880308947043 L-32.44425558136032,286.1880240805118 M-38.04418346980566,286.1880308947043 L-38.323216331794185,288.8692287049436" stroke="black"  stroke-width="4"  fill="red"/>
<path d="M-31.971718942766984,294.2512569641252 L-32.429855610457594,285.009104975455 M-32.429855610457594,285.009104975455 L-43.62935233105782,285.009104975455 M-43.62935233105782,285.009104975455 L-43.159058248787005,294.2512569641252 M-43.159058248787005,294.2512569641252 L-31.971718942766984,294.2512569641252 M-31.971718942766984,294.2512569641252 L-31.64836830471546,291.09327581053793 M-31.64836830471546,291.09327581053793 L-42.827114189342865,291.0932690010763 M-42.827114189342865,291.0932690010763 L-43.159058248787005,294.2512569641252 M-32.429855610457594,285.009104975455 L-32.10580208268482,281.8547910321148 M-32.10580208268482,281.8547910321148 L-31.64836830471546,291.09327581053793 M-43.62935233105782,285.009104975455 L-43.2966867148981,281.8547842305663 M-43.2966867148981,281.8547842305663 L-32.10580208268482,281.8547910321148 M-42.827114189342865,291.0932690010763 L-43.2966867148981,281.8547842305663" stroke="black"  stroke-width="4"  fill="red"/></svg>