<svg viewBox="0 0 800 800" xmlns="http://www.w3.org/2000/svg"><path d="M731.446930121393,159.38409690456746 L762.4285230002705,159.38409690456746 M762.4285230002705,159.38409690456746 L762.150608510568,157.41999048954403 M762.150608510568,157.41999048954403 L769.0300575826285,157.41999895971696 M769.0300575826285,157.41999895971696 L769.3133313223589,159.38409690456746 M769.3133313223589,159.38409690456746 L800.2949242012363,159.38409690456746 M800.2949242012363,159.38409690456746 L799.1265613237613,151.91715164855157 M730.4817620830902,151.91715164855157 L799.1265613237613,151.91715164855157 M731.446930121393,159.38409690456746 L730.4817620830902,151.91715164855157 M785.421177861843,183.0147063909776 L729.9447581929124,183.0147063909776 M785.421177861843,183.0147063909776 L785.1713219343138,186.37279475262312 M729.7312881987034,186.37279475262312 L785.1713219343138,186.37279475262312 M728.2448030181357,209.75663660410765 L729.7312881987034,186.37279475262312 M740.0568871374853,526.783811062325 L728.2448030181357,209.75663660410765 M772.0220134503467,526.783811062325 L740.0568871374853,526.783811062325 M800.2949242012363,159.38409690456746 L772.0220134503467,526.783811062325 M768.9128492612901,165.03019569513674 L769.3133313223589,159.38409690456746 M768.9128492612901,165.03019569513674 L762.0355983577772,165.03019569513674 M762.4285230002705,159.38409690456746 L762.0355983577772,165.03019569513674 M729.9447581929124,183.0147063909776 L731.446930121393,159.38409690456746 M762.150608510568,157.41999048954403 L761.758293443742,163.06386456055498 M762.0355983577772,165.03019569513674 L761.758293443742,163.06386456055498 M769.0300575826285,157.41999895971696 L768.6301968355775,163.0638730403291 M761.758293443742,163.06386456055498 L768.6301968355775,163.0638730403291 M768.6301968355775,163.0638730403291 L768.9128492612901,165.03019569513674 M772.0220134503467,526.783811062325 L771.0143870530354,518.8415227740844 M799.1265613237613,151.91715164855157 L771.0143870530354,518.8415227740844 M729.7312881987034,186.37279475262312 L729.5805119694905,185.18764484582397 M729.5805119694905,185.18764484582397 L729.7937840323308,181.83033671449402 M729.7937840323308,181.83033671449402 L729.9447581929124,183.0147063909776 M727.2984191819735,202.2153662853534 L730.4817620830902,151.91715164855157 M728.2448030181357,209.75663660410765 L727.2984191819735,202.2153662853534 M785.2444541226092,181.83032819914905 L785.421177861843,183.0147063909776 M729.7937840323308,181.83033671449402 L785.2444541226092,181.83032819914905 M784.9948298751813,185.1876363248668 L785.2444541226092,181.83032819914905 M785.1713219343138,186.37279475262312 L784.9948298751813,185.1876363248668 M729.5805119694905,185.18764484582397 L784.9948298751813,185.1876363248668 M740.0568871374853,526.783811062325 L739.1368662925455,518.8415227740844 M739.1368662925455,518.8415227740844 L727.2984191819735,202.2153662853534 M771.0143870530354,518.8415227740844 L739.1368662925455,518.8415227740844" stroke="black"  stroke-width="4"  fill="red"/>
<path d="M731.446930121393,159.38409690456746 L762.4285230002705,159.38409690456746 M762.7068994646758,161.3512580766988 L762.4285230002705,159.38409690456746 M769.5970456332957,161.35124958015825 L762.7068994646758,161.3512580766988 M769.3133313223589,159.38409690456746 L769.5970456332957,161.35124958015825 M769.3133313223589,159.38409690456746 L800.2949242012363,159.38409690456746 M800.2949242012363,159.38409690456746 L801.4702553540398,166.8953855766357 M732.4178001324834,166.8953855766357 L801.4702553540398,166.8953855766357 M731.446930121393,159.38409690456746 L732.4178001324834,166.8953855766357 M731.446930121393,159.38409690456746 L729.9447581929124,183.0147063909776 M785.421177861843,183.0147063909776 L729.9447581929124,183.0147063909776 M785.421177861843,183.0147063909776 L785.1713219343138,186.37279475262312 M729.7312881987034,186.37279475262312 L785.1713219343138,186.37279475262312 M729.7312881987034,186.37279475262312 L728.2448030181357,209.75663660410765 M740.0568871374853,526.783811062325 L728.2448030181357,209.75663660410765 M772.0220134503467,526.783811062325 L740.0568871374853,526.783811062325 M800.2949242012363,159.38409690456746 L772.0220134503467,526.783811062325 M768.9128492612901,165.03019569513674 L769.3133313223589,159.38409690456746 M768.9128492612901,165.03019569513674 L762.0355983577772,165.03019569513674 M762.4285230002705,159.38409690456746 L762.0355983577772,165.03019569513674 M762.3133637919876,166.99958168731592 L762.0355983577772,165.03019569513674 M762.7068994646758,161.3512580766988 L762.3133637919876,166.99958168731592 M769.5970456332957,161.35124958015825 L769.1959408089623,166.99957318117322 M769.1959408089623,166.99957318117322 L762.3133637919876,166.99958168731592 M768.9128492612901,165.03019569513674 L769.1959408089623,166.99957318117322 M772.0220134503467,526.783811062325 L773.035222833078,534.7698873437055 M801.4702553540398,166.8953855766357 L773.035222833078,534.7698873437055 M729.8822043453323,187.5590444555474 L729.7312881987034,186.37279475262312 M730.0958725465794,184.2001758612164 L729.8822043453323,187.5590444555474 M729.9447581929124,183.0147063909776 L730.0958725465794,184.2001758612164 M729.196722365309,217.34225184940425 L732.4178001324834,166.8953855766357 M728.2448030181357,209.75663660410765 L729.196722365309,217.34225184940425 M730.0958725465794,184.2001758612164 L785.5980361152396,184.20018439238328 M785.421177861843,183.0147063909776 L785.5980361152396,184.20018439238328 M785.3479482043465,187.5590529923266 L785.1713219343138,186.37279475262312 M785.5980361152396,184.20018439238328 L785.3479482043465,187.5590529923266 M729.8822043453323,187.5590444555474 L785.3479482043465,187.5590529923266 M740.0568871374853,526.783811062325 L740.9819526399663,534.7698873437055 M740.9819526399663,534.7698873437055 L729.196722365309,217.34225184940425 M773.035222833078,534.7698873437055 L740.9819526399663,534.7698873437055" stroke="black"  stroke-width="4"  fill="red"/>
<path d="M351.2807211277902,393.7595947056178 L350.87112366586837,415.04290314661023 M350.87112366586837,415.04290314661023 L354.66143558690226,415.04291343134696 M354.66143558690226,415.04291343134696 L354.57603639044856,419.8171222953399 M354.57603639044856,419.8171222953399 L350.77924377551204,419.8171222953399 M350.77924377551204,419.8171222953399 L350.3618567111045,441.50519035461514 M350.3618567111045,441.50519035461514 L364.9401289228404,441.5052008357046 M365.6114445226299,393.75958457745855 L364.9401289228404,441.5052008357046 M351.2807211277902,393.7595947056178 L365.6114445226299,393.75958457745855 M350.81372158873097,457.0615069141188 L351.54763013066366,418.3926103412839 M350.81372158873097,457.0615069141188 L350.8526912485357,460.58074298896895 M351.5855414884511,421.89144724485084 L350.8526912485357,460.58074298896895 M351.8494078463403,446.2436573600346 L351.5855414884511,421.89144724485084 M355.01764605148844,799.2118101842144 L351.8494078463403,446.2436573600346 M354.6241357961475,824.4302611395563 L355.01764605148844,799.2118101842144 M350.3618567111045,441.50519035461514 L354.6241357961475,824.4302611395563 M350.84424517665065,425.72852651421215 L350.77924377551204,419.8171222953399 M350.84424517665065,425.72852651421215 L350.9359029376826,420.94997395385053 M350.87112366586837,415.04290314661023 L350.9359029376826,420.94997395385053 M351.54763013066366,418.3926103412839 L351.2807211277902,393.7595947056178 M354.66143558690226,415.04291343134696 L354.7216342679817,420.9499842479436 M350.9359029376826,420.94997395385053 L354.7216342679817,420.9499842479436 M354.57603639044856,419.8171222953399 L354.6364415133129,425.72852651421215 M354.7216342679817,420.9499842479436 L354.6364415133129,425.72852651421215 M354.6364415133129,425.72852651421215 L350.84424517665065,425.72852651421215 M354.6241357961475,824.4302611395563 L368.0541174220056,824.430272110036 M364.9401289228404,441.5052008357046 L368.0541174220056,824.430272110036 M351.5855414884511,421.89144724485084 L353.8294023971896,421.89144724485084 M353.8294023971896,421.89144724485084 L353.793099472258,418.3926103412839 M353.793099472258,418.3926103412839 L351.54763013066366,418.3926103412839 M366.0269226835547,446.2436471498935 L365.6114445226299,393.75958457745855 M351.8494078463403,446.2436573600346 L366.0269226835547,446.2436471498935 M353.0903444081572,457.06149646304834 L350.81372158873097,457.0615069141188 M353.793099472258,418.3926103412839 L353.0903444081572,457.06149646304834 M353.12766072326014,460.58073253248904 L353.0903444081572,457.06149646304834 M350.8526912485357,460.58074298896895 L353.12766072326014,460.58073253248904 M353.8294023971896,421.89144724485084 L353.12766072326014,460.58073253248904 M355.01764605148844,799.2118101842144 L368.3416132508703,799.2117993862503 M368.3416132508703,799.2117993862503 L366.0269226835547,446.2436471498935 M368.0541174220056,824.430272110036 L368.3416132508703,799.2117993862503" stroke="black"  stroke-width="4"  fill="red"/>
<path d="M351.2807211277902,393.7595947056178 L350.87112366586837,415.04290314661023 M347.08081134897486,415.04291343134696 L350.87112366586837,415.04290314661023 M346.9824511605756,419.8171222953399 L347.08081134897486,415.04291343134696 M350.77924377551204,419.8171222953399 L346.9824511605756,419.8171222953399 M350.77924377551204,419.8171222953399 L350.3618567111045,441.50519035461514 M350.3618567111045,441.50519035461514 L335.78358409595137,441.5052008357046 M336.9499981227834,393.75958457745855 L335.78358409595137,441.5052008357046 M351.2807211277902,393.7595947056178 L336.9499981227834,393.75958457745855 M351.2807211277902,393.7595947056178 L351.54763013066366,418.3926103412839 M350.81372158873097,457.0615069141188 L351.54763013066366,418.3926103412839 M350.81372158873097,457.0615069141188 L350.8526912485357,460.58074298896895 M351.5855414884511,421.89144724485084 L350.8526912485357,460.58074298896895 M351.5855414884511,421.89144724485084 L351.8494078463403,446.2436573600346 M355.01764605148844,799.2118101842144 L351.8494078463403,446.2436573600346 M354.6241357961475,824.4302611395563 L355.01764605148844,799.2118101842144 M350.3618567111045,441.50519035461514 L354.6241357961475,824.4302611395563 M350.84424517665065,425.72852651421215 L350.77924377551204,419.8171222953399 M350.84424517665065,425.72852651421215 L350.9359029376826,420.94997395385053 M350.87112366586837,415.04290314661023 L350.9359029376826,420.94997395385053 M347.15017121248013,420.9499842479436 L350.9359029376826,420.94997395385053 M347.08081134897486,415.04291343134696 L347.15017121248013,420.9499842479436 M346.9824511605756,419.8171222953399 L347.0520488399885,425.72852651421215 M347.0520488399885,425.72852651421215 L347.15017121248013,420.9499842479436 M350.84424517665065,425.72852651421215 L347.0520488399885,425.72852651421215 M354.6241357961475,824.4302611395563 L341.19415382792147,824.430272110036 M335.78358409595137,441.5052008357046 L341.19415382792147,824.430272110036 M349.3416805797127,421.89144724485084 L351.5855414884511,421.89144724485084 M349.30216078906926,418.3926103412839 L349.3416805797127,421.89144724485084 M351.54763013066366,418.3926103412839 L349.30216078906926,418.3926103412839 M337.6718933906681,446.2436471498935 L336.9499981227834,393.75958457745855 M351.8494078463403,446.2436573600346 L337.6718933906681,446.2436471498935 M349.30216078906926,418.3926103412839 L348.5370991660127,457.06149646304834 M350.81372158873097,457.0615069141188 L348.5370991660127,457.06149646304834 M348.57772216994323,460.58073253248904 L350.8526912485357,460.58074298896895 M348.5370991660127,457.06149646304834 L348.57772216994323,460.58073253248904 M349.3416805797127,421.89144724485084 L348.57772216994323,460.58073253248904 M355.01764605148844,799.2118101842144 L341.6936791890908,799.2117993862503 M341.6936791890908,799.2117993862503 L337.6718933906681,446.2436471498935 M341.19415382792147,824.430272110036 L341.6936791890908,799.2117993862503" stroke="black"  stroke-width="4"  fill="red"/>
<path d="M450.2796867770759,9.870998807050341 L449.9802557681574,-5.687892817201259 M449.9802557681574,-5.687892817201259 L446.7624862422223,-5.687900229502418 M446.7624862422223,-5.687900229502418 L446.7011583650491,-9.117844729506544 M446.7011583650491,-9.117844729506544 L449.91424631282814,-9.117844729506544 M449.91424631282814,-9.117844729506544 L449.61955865088896,-24.430264814774034 M449.61955865088896,-24.430264814774034 L437.45704630538836,-24.430272110035844 M437.9393310700543,9.871006317218757 L437.45704630538836,-24.430272110035844 M450.2796867770759,9.870998807050341 L437.9393310700543,9.871006317218757 M449.5503840348146,4.7665170396130065 L450.081632085951,32.75743793803679 M449.5503840348146,4.7665170396130065 L449.5228821023412,7.999067223737882 M450.0534782849755,36.01078300485915 L449.5228821023412,7.999067223737882 M449.8573707447365,58.67221686091608 L450.0534782849755,36.01078300485915 M446.8989531701385,348.5760425162389 L449.8573707447365,58.67221686091608 M446.613604926102,330.2892492249317 L446.8989531701385,348.5760425162389 M449.61955865088896,-24.430264814774034 L446.613604926102,330.2892492249317 M449.86768609264215,-3.6747977569660293 L449.91424631282814,-9.117844729506544 M449.86768609264215,-3.6747977569660293 L449.93356024590156,-0.24046660840474487 M449.9802557681574,-5.687892817201259 L449.93356024590156,-0.24046660840474487 M450.081632085951,32.75743793803679 L450.2796867770759,9.870998807050341 M446.7624862422223,-5.687900229502418 L446.71909259584396,-0.24047403015856617 M449.93356024590156,-0.24046660840474487 L446.71909259584396,-0.24047403015856617 M446.7011583650491,-9.117844729506544 L446.6578904389483,-3.6747977569660293 M446.71909259584396,-0.24047403015856617 L446.6578904389483,-3.6747977569660293 M446.6578904389483,-3.6747977569660293 L449.86768609264215,-3.6747977569660293 M446.613604926102,330.2892492249317 L435.26091953425816,330.28924138572756 M437.45704630538836,-24.430272110035844 L435.26091953425816,330.28924138572756 M450.0534782849755,36.01078300485915 L448.11972398701033,36.01078300485915 M448.11972398701033,36.01078300485915 L448.14668333067414,32.75743793803679 M448.14668333067414,32.75743793803679 L450.081632085951,32.75743793803679 M437.6307902072151,58.67222445440859 L437.9393310700543,9.871006317218757 M449.8573707447365,58.67221686091608 L437.6307902072151,58.67222445440859 M447.63796046555495,4.7665244143565815 L449.5503840348146,4.7665170396130065 M448.14668333067414,32.75743793803679 L447.63796046555495,4.7665244143565815 M447.6116253423536,7.999074604013288 L447.63796046555495,4.7665244143565815 M449.5228821023412,7.999067223737882 L447.6116253423536,7.999074604013288 M448.11972398701033,36.01078300485915 L447.6116253423536,7.999074604013288 M446.8989531701385,348.5760425162389 L435.4693929573019,348.5760504619693 M435.4693929573019,348.5760504619693 L437.6307902072151,58.67222445440859 M435.26091953425816,330.28924138572756 L435.4693929573019,348.5760504619693" stroke="black"  stroke-width="4"  fill="red"/>
<path d="M450.2796867770759,9.870998807050341 L449.9802557681574,-5.687892817201259 M453.1980250087928,-5.687900229502418 L449.9802557681574,-5.687892817201259 M453.12733426060714,-9.117844729506544 L453.1980250087928,-5.687900229502418 M449.91424631282814,-9.117844729506544 L453.12733426060714,-9.117844729506544 M449.91424631282814,-9.117844729506544 L449.61955865088896,-24.430264814774034 M449.61955865088896,-24.430264814774034 L461.78207071559484,-24.430272110035844 M462.62004277316385,9.871006317218757 L461.78207071559484,-24.430272110035844 M450.2796867770759,9.870998807050341 L462.62004277316385,9.871006317218757 M450.2796867770759,9.870998807050341 L450.081632085951,32.75743793803679 M449.5503840348146,4.7665170396130065 L450.081632085951,32.75743793803679 M449.5503840348146,4.7665170396130065 L449.5228821023412,7.999067223737882 M450.0534782849755,36.01078300485915 L449.5228821023412,7.999067223737882 M450.0534782849755,36.01078300485915 L449.8573707447365,58.67221686091608 M446.8989531701385,348.5760425162389 L449.8573707447365,58.67221686091608 M446.613604926102,330.2892492249317 L446.8989531701385,348.5760425162389 M449.61955865088896,-24.430264814774034 L446.613604926102,330.2892492249317 M449.86768609264215,-3.6747977569660293 L449.91424631282814,-9.117844729506544 M449.86768609264215,-3.6747977569660293 L449.93356024590156,-0.24046660840474487 M449.9802557681574,-5.687892817201259 L449.93356024590156,-0.24046660840474487 M453.14802761124486,-0.24047403015856617 L449.93356024590156,-0.24046660840474487 M453.1980250087928,-5.687900229502418 L453.14802761124486,-0.24047403015856617 M453.12733426060714,-9.117844729506544 L453.0774817463361,-3.6747977569660293 M453.0774817463361,-3.6747977569660293 L453.14802761124486,-0.24047403015856617 M449.86768609264215,-3.6747977569660293 L453.0774817463361,-3.6747977569660293 M446.613604926102,330.2892492249317 L457.966290073299,330.28924138572756 M461.78207071559484,-24.430272110035844 L457.966290073299,330.28924138572756 M451.9872325829406,36.01078300485915 L450.0534782849755,36.01078300485915 M452.0165808412279,32.75743793803679 L451.9872325829406,36.01078300485915 M450.081632085951,32.75743793803679 L452.0165808412279,32.75743793803679 M462.08395156601875,58.67222445440859 L462.62004277316385,9.871006317218757 M449.8573707447365,58.67221686091608 L462.08395156601875,58.67222445440859 M452.0165808412279,32.75743793803679 L451.4628078840091,4.766524414356468 M449.5503840348146,4.7665170396130065 L451.4628078840091,4.766524414356468 M451.43413914192223,7.999074604013231 L449.5228821023412,7.999067223737882 M451.4628078840091,4.766524414356468 L451.43413914192223,7.999074604013231 M451.9872325829406,36.01078300485915 L451.43413914192223,7.999074604013231 M446.8989531701385,348.5760425162389 L458.3285136309464,348.5760504619693 M458.3285136309464,348.5760504619693 L462.08395156601875,58.67222445440859 M457.966290073299,330.28924138572756 L458.3285136309464,348.5760504619693" stroke="black"  stroke-width="4"  fill="red"/>
<path d="M70.15371486442427,216.22988063868354 L38.47590641523499,216.22988063868354 M38.47590641523499,216.22988063868354 L38.184873328408116,218.28648287869834 M38.184873328408116,218.28648287869834 L31.139769328142904,218.2864739956898 M31.139769328142904,218.2864739956898 L31.436383299391764,216.22988063868354 M31.436383299391764,216.22988063868354 L-0.2414251497975215,216.22988063868354 M-0.2414251497975215,216.22988063868354 L-1.4702553540396934,224.0830724330762 M69.13865189597016,224.0830724330762 L-1.4702553540396934,224.0830724330762 M70.15371486442427,216.22988063868354 L69.13865189597016,224.0830724330762 M15.006771301156448,240.12201987016738 L71.7239965990052,240.12201987016738 M15.006771301156448,240.12201987016738 L15.267925124840644,243.5168732956767 M71.94711920322283,243.5168732956767 L15.267925124840644,243.5168732956767 M73.50063825643673,267.1539650994959 L71.94711920322283,243.5168732956767 M61.90015370989482,587.138750444115 L73.50063825643673,267.1539650994959 M29.26908726551551,587.138750444115 L61.90015370989482,587.138750444115 M-0.2414251497975215,216.22988063868354 L29.26908726551551,587.138750444115 M31.855056464812037,221.93891567176382 L31.436383299391764,216.22988063868354 M31.855056464812037,221.93891567176382 L38.886678881310786,221.9389156717637 M38.47590641523499,216.22988063868354 L38.886678881310786,221.9389156717637 M71.7239965990052,240.12201987016738 L70.15371486442427,216.22988063868354 M38.184873328408116,218.28648287869834 L38.59629894290447,223.9977422353886 M38.886678881310786,221.9389156717637 L38.59629894290447,223.9977422353886 M31.139769328142904,218.2864739956898 L31.559108184202955,223.99773334278046 M38.59629894290447,223.9977422353886 L31.559108184202955,223.99773334278046 M31.559108184202955,223.99773334278046 L31.855056464812037,221.93891567176382 M29.26908726551551,587.138750444115 L28.213160716589016,595.4615240589958 M-1.4702553540396934,224.0830724330762 L28.213160716589016,595.4615240589958 M71.94711920322283,243.5168732956767 L71.78937966221503,244.75675708438848 M71.78937966221503,244.75675708438848 L71.56604525313242,241.36112452020137 M71.56604525313242,241.36112452020137 L71.7239965990052,240.12201987016738 M72.50582778662863,275.08136666231565 L69.13865189597016,224.0830724330762 M73.50063825643673,267.1539650994959 L72.50582778662863,275.08136666231565 M14.821910964578535,241.36113343744347 L15.006771301156448,240.12201987016738 M71.56604525313242,241.36112452020137 L14.821910964578535,241.36113343744347 M15.083312686876752,244.7567660072349 L14.821910964578535,241.36113343744347 M15.267925124840644,243.5168732956767 L15.083312686876752,244.7567660072349 M71.78937966221503,244.75675708438848 L15.083312686876752,244.7567660072349 M61.90015370989482,587.138750444115 L60.936086646859394,595.4615240589958 M60.936086646859394,595.4615240589958 L72.50582778662863,275.08136666231565 M28.213160716589016,595.4615240589958 L60.936086646859394,595.4615240589958" stroke="black"  stroke-width="4"  fill="red"/>
<path d="M70.15371486442427,216.22988063868354 L38.47590641523499,216.22988063868354 M38.766447058667154,214.17654375704848 L38.47590641523499,216.22988063868354 M31.732526325544484,214.17655261187167 L38.766447058667154,214.17654375704848 M31.436383299391764,216.22988063868354 L31.732526325544484,214.17655261187167 M31.436383299391764,216.22988063868354 L-0.2414251497975215,216.22988063868354 M-0.2414251497975215,216.22988063868354 L0.9799577498538952,208.42408940472558 M71.16268137122393,208.42408940472558 L0.9799577498538952,208.42408940472558 M70.15371486442427,216.22988063868354 L71.16268137122393,208.42408940472558 M70.15371486442427,216.22988063868354 L71.7239965990052,240.12201987016738 M15.006771301156448,240.12201987016738 L71.7239965990052,240.12201987016738 M15.006771301156448,240.12201987016738 L15.267925124840644,243.5168732956767 M71.94711920322283,243.5168732956767 L15.267925124840644,243.5168732956767 M71.94711920322283,243.5168732956767 L73.50063825643673,267.1539650994959 M61.90015370989482,587.138750444115 L73.50063825643673,267.1539650994959 M29.26908726551551,587.138750444115 L61.90015370989482,587.138750444115 M-0.2414251497975215,216.22988063868354 L29.26908726551551,587.138750444115 M31.855056464812037,221.93891567176382 L31.436383299391764,216.22988063868354 M31.855056464812037,221.93891567176382 L38.886678881310786,221.9389156717637 M38.47590641523499,216.22988063868354 L38.886678881310786,221.9389156717637 M39.176567964440096,219.88335433229707 L38.886678881310786,221.9389156717637 M38.766447058667154,214.17654375704848 L39.176567964440096,219.88335433229707 M31.732526325544484,214.17655261187167 L32.150535384220234,219.88336319672095 M32.150535384220234,219.88336319672095 L39.176567964440096,219.88335433229707 M31.855056464812037,221.93891567176382 L32.150535384220234,219.88336319672095 M29.26908726551551,587.138750444115 L30.319075756369955,578.8625589983243 M0.9799577498538952,208.42408940472558 L30.319075756369955,578.8625589983243 M72.10470923351443,242.2781647095308 L71.94711920322283,243.5168732956767 M71.88179813299894,238.88409047188696 L72.10470923351443,242.2781647095308 M71.7239965990052,240.12201987016738 L71.88179813299894,238.88409047188696 M74.48953413527369,259.27393442911995 L71.16268137122393,208.42408940472558 M73.50063825643673,267.1539650994959 L74.48953413527369,259.27393442911995 M71.88179813299894,238.88409047188696 L15.191486526627727,238.88408157155226 M15.006771301156448,240.12201987016738 L15.191486526627727,238.88408157155226 M15.45239278392279,242.27815580359118 L15.267925124840644,243.5168732956767 M15.191486526627727,238.88408157155226 L15.45239278392279,242.27815580359118 M72.10470923351443,242.2781647095308 L15.45239278392279,242.27815580359118 M61.90015370989482,587.138750444115 L62.85885302258447,578.8625589983242 M62.85885302258447,578.8625589983242 L74.48953413527369,259.27393442911995 M30.319075756369955,578.8625589983243 L62.85885302258447,578.8625589983242" stroke="black"  stroke-width="4"  fill="red"/></svg>