<svg viewBox="0 0 800 800" xmlns="http://www.w3.org/2000/svg"><path d="" stroke="black"  stroke-width="4"  fill="red"/>
<path d="M758.0434660182269,417.07078458851083 L757.8658351202797,420.41918839126754 M758.1170933570694,422.869001111631 L757.8658351202797,420.41918839126754 M758.1170933570694,422.869001111631 L758.2949667854615,419.5194941216322 M758.2949667854615,419.5194941216322 L758.0434660182269,417.07078458851083 M758.0434660182269,417.07078458851083 L762.9320166893016,417.07077836536837 M762.752028932226,420.41918216531946 L762.9320166893016,417.07077836536837 M757.8658351202797,420.41918839126754 L762.752028932226,420.41918216531946 M762.752028932226,420.41918216531946 L763.0066209373847,422.8689948771844 M763.0066209373847,422.8689948771844 L758.1170933570694,422.869001111631 M763.0066209373847,422.8689948771844 L763.1868544428701,419.51948788999096 M763.1868544428701,419.51948788999096 L758.2949667854615,419.5194941216322 M763.1868544428701,419.51948788999096 L762.9320166893016,417.07077836536837" stroke="black"  stroke-width="4"  fill="red"/>
<path d="M850.7036344813199,420.41918216531946 L772.7293182372188,416.7049799018556 M845.5227510980615,498.4174264419797 L850.7036344813199,420.41918216531946 M758.559365836036,498.4174264419797 L845.5227510980615,498.4174264419797 M757.7046975260026,428.29868697873917 L758.559365836036,498.4174264419797 M757.7046975260026,428.29868697873917 L767.2091271441386,428.29868074621095 M767.4235531027521,424.3611655673207 L767.2091271441386,428.29868074621095 M772.3069946137314,424.3611717965647 L767.4235531027521,424.3611655673207 M772.3069946137314,424.3611717965647 L772.7293182372188,416.7049799018556 M772.7293182372188,416.7049799018556 L773.0375719321169,419.591018139476 M768.1574993376375,419.35866462324225 L773.0375719321169,419.591018139476 M768.1574993376375,419.35866462324225 L768.4623299890112,422.2492605696072 M851.4458416034672,426.19880354233254 L768.4623299890112,422.2492605696072 M850.7036344813199,420.41918216531946 L851.4458416034672,426.19880354233254 M845.5227510980615,498.4174264419797 L846.2483599863398,504.25614180969853 M846.2483599863398,504.25614180969853 L851.4458416034672,426.19880354233254 M758.559365836036,498.4174264419797 L759.1465694812645,504.25614180969853 M759.1465694812645,504.25614180969853 L846.2483599863398,504.25614180969853 M758.0003675523707,431.18921668293535 L757.9525143311682,427.25018581839856 M758.0003675523707,431.18921668293535 L757.7046975260026,428.29868697873917 M758.248799604097,430.1438349963718 L759.1465694812645,504.25614180969853 M757.9525143311682,427.25018581839856 L758.248799604097,430.1438349963718 M767.5124541102869,431.1892229254804 L758.0003675523707,431.18921668293535 M767.2091271441386,428.29868074621095 L767.5124541102869,431.1892229254804 M767.7272247932392,427.25018581839856 L767.5124541102869,431.1892229254804 M767.7272247932392,427.25018581839856 L767.4235531027521,424.3611655673207 M772.6145688134943,427.25017957913747 L772.3069946137314,424.3611717965647 M767.7272247932392,427.25018581839856 L772.6145688134943,427.25017957913747 M773.0375719321169,419.591018139476 L772.6145688134943,427.25017957913747 M757.9525143311682,427.25018581839856 L758.3716659926368,419.35866462324225 M758.3716659926368,419.35866462324225 L768.1574993376375,419.35866462324225 M768.4623299890112,422.2492605696072 L758.6686262215937,422.24925432690657 M758.3716659926368,419.35866462324225 L758.6686262215937,422.24925432690657 M758.6686262215937,422.24925432690657 L758.248799604097,430.1438349963718" stroke="black"  stroke-width="4"  fill="red"/>
<path d="" stroke="black"  stroke-width="4"  fill="red"/>
<path d="M533.3138182775211,558.1941418290808 L533.2418093394961,561.6034928948425 M528.9327057892092,561.6034928948424 L533.2418093394961,561.6034928948425 M528.9327057892092,561.6034928948424 L529.0025544592584,558.1941418290808 M529.0025544592584,558.1941418290808 L533.3138182775211,558.1941418290808 M533.3138182775211,558.1941418290808 L533.4339826551628,561.3119732712619 M533.3618532686993,564.7226103758685 L533.4339826551628,561.3119732712619 M533.2418093394961,561.6034928948425 L533.3618532686993,564.7226103758685 M533.3618532686993,564.7226103758685 L529.0491480717778,564.7226103758685 M529.0491480717778,564.7226103758685 L528.9327057892092,561.6034928948424 M529.0491480717778,564.7226103758685 L529.1191135766475,561.3119732712619 M529.1191135766475,561.3119732712619 L529.0025544592584,558.1941418290808 M529.1191135766475,561.3119732712619 L533.4339826551628,561.3119732712619" stroke="black"  stroke-width="4"  fill="red"/>
<path d="M535.5576859680966,621.7720173800265 L533.6828442583945,567.1904330667194 M533.8268961473653,701.7045930447604 L535.5576859680966,621.7720173800265 M531.6824509334496,644.1331280442353 L533.8268961473653,701.7045930447604 M533.0786554024515,569.7900958590681 L531.6824509334496,644.1331280442353 M533.0786554024515,569.7900958590681 L533.3120894194385,575.8753913045756 M533.3970434767914,571.8635418436907 L533.3120894194385,575.8753913045756 M533.517369636822,574.9946319630454 L533.3970434767914,571.8635418436907 M533.517369636822,574.9946319630454 L533.6828442583945,567.1904330667194 M533.6828442583945,567.1904330667194 L528.5889176991449,567.1904195548445 M528.4774248293895,563.8256029220187 L528.5889176991449,567.1904195548445 M528.4774248293895,563.8256029220187 L523.387607104723,563.8256029220187 M525.2372732698173,621.7720104362268 L523.387607104723,563.8256029220187 M535.5576859680966,621.7720173800265 L525.2372732698173,621.7720104362268 M533.8268961473653,701.7045930447604 L523.6288687768151,701.7045860386684 M523.6288687768151,701.7045860386684 L525.2372732698173,621.7720104362268 M531.6824509334496,644.1331280442353 L521.6360481409893,644.1331280442353 M521.6360481409893,644.1331280442353 L523.6288687768151,701.7045860386684 M528.0061018658795,569.7901025913541 L528.0816917576902,565.6170617027573 M528.0061018658795,569.7901025913541 L533.0786554024515,569.7900958590681 M523.0063673481193,565.617068431205 L521.6360481409893,644.1331280442353 M528.0816917576902,565.6170617027573 L523.0063673481193,565.617068431205 M528.2312823661313,575.8753980587876 L528.0061018658795,569.7901025913541 M533.3120894194385,575.8753913045756 L528.2312823661313,575.8753980587876 M528.31323284729,571.8635485946577 L528.2312823661313,575.8753980587876 M528.31323284729,571.8635485946577 L533.3970434767914,571.8635418436907 M528.4292934963883,574.9946184385068 L533.517369636822,574.9946319630454 M528.31323284729,571.8635485946577 L528.4292934963883,574.9946184385068 M528.5889176991449,567.1904195548445 L528.4292934963883,574.9946184385068 M528.0816917576902,565.6170617027573 L528.2453357133505,557.5851676185631 M528.2453357133505,557.5851676185631 L528.4774248293895,563.8256029220187 M523.387607104723,563.8256029220187 L523.1640135709271,557.5851743404788 M528.2453357133505,557.5851676185631 L523.1640135709271,557.5851743404788 M523.1640135709271,557.5851743404788 L523.0063673481193,565.617068431205" stroke="black"  stroke-width="4"  fill="red"/>
<path d="" stroke="black"  stroke-width="4"  fill="red"/>
<path d="M261.97115912159643,141.14533602905522 L262.0279627086188,144.35910234246373 M265.85527393649915,144.35910234246373 L262.0279627086188,144.35910234246373 M265.85527393649915,144.35910234246373 L265.8001744569574,141.14533602905522 M265.8001744569574,141.14533602905522 L261.97115912159643,141.14533602905522 M261.97115912159643,141.14533602905522 L262.0658133182009,138.68987831593574 M262.1225327076017,141.90235457581377 L262.0658133182009,138.68987831593574 M262.0279627086188,144.35910234246373 L262.1225327076017,141.90235457581377 M262.1225327076017,141.90235457581377 L265.94700712751313,141.90235457581377 M265.94700712751313,141.90235457581377 L265.85527393649915,144.35910234246373 M265.94700712751313,141.90235457581377 L265.89198931979445,138.68987831593574 M265.89198931979445,138.68987831593574 L265.8001744569574,141.14533602905522 M265.89198931979445,138.68987831593574 L262.0658133182009,138.68987831593574" stroke="black"  stroke-width="4"  fill="red"/>
<path d="M263.80096490408675,98.29540695523963 L262.2485044258337,133.4392085461758 M265.0889801786538,172.66583643142977 L263.80096490408675,98.29540695523963 M263.44496507963197,216.80236047013193 L265.0889801786538,172.66583643142977 M262.1666296801935,151.79316939035215 L263.44496507963197,216.80236047013193 M262.1666296801935,151.79316939035215 L262.35025455596667,147.00680587605004 M262.2836434733995,143.23000392836036 L262.35025455596667,147.00680587605004 M262.37781595799856,140.77900042629483 L262.2836434733995,143.23000392836036 M262.37781595799856,140.77900042629483 L262.2485044258337,133.4392085461758 M262.2485044258337,133.4392085461758 L266.7512414455187,133.43921910373643 M266.6564152834449,135.6645205886711 L266.7512414455187,133.43921910373643 M266.6564152834449,135.6645205886711 L271.1626087541294,135.664520588671 M272.69665429447605,98.29541211420144 L271.1626087541294,135.664520588671 M263.80096490408675,98.29540695523963 L272.69665429447605,98.29541211420144 M265.0889801786538,172.66583643142977 L273.89359313933363,172.66584165375687 M273.89359313933363,172.66584165375687 L272.69665429447605,98.29541211420144 M263.44496507963197,216.80236047013193 L272.3658372687876,216.80236047013193 M272.3658372687876,216.80236047013193 L273.89359313933363,172.66584165375687 M266.6722522787833,151.79316407883204 L266.60302091998744,148.1428975419956 M266.6722522787833,151.79316407883204 L262.1666296801935,151.79316939035215 M271.1111812672186,148.1428922333236 L272.3658372687876,216.80236047013193 M266.60302091998744,148.1428975419956 L271.1111812672186,148.1428922333236 M266.84938538451047,147.00680057982478 L266.6722522787833,151.79316407883204 M262.35025455596667,147.00680587605004 L266.84938538451047,147.00680057982478 M266.78512935719596,143.2299986353961 L266.84938538451047,147.00680057982478 M266.78512935719596,143.2299986353961 L262.2836434733995,143.23000392836036 M266.87598112048477,140.7790109965681 L262.37781595799856,140.77900042629483 M266.78512935719596,143.2299986353961 L266.87598112048477,140.7790109965681 M266.7512414455187,133.43921910373643 L266.87598112048477,140.7790109965681 M266.60302091998744,148.1428975419956 L266.4739246668298,140.57134649206085 M266.4739246668298,140.57134649206085 L266.6564152834449,135.6645205886711 M271.1626087541294,135.664520588671 L270.98681653606616,140.5713411899428 M266.4739246668298,140.57134649206085 L270.98681653606616,140.5713411899428 M270.98681653606616,140.5713411899428 L271.1111812672186,148.1428922333236" stroke="black"  stroke-width="4"  fill="red"/>
<path d="" stroke="black"  stroke-width="4"  fill="red"/>
<path d="M37.19301578367987,261.0309692140515 L37.35553289340976,264.305749018702 M37.585111090168766,262.06732056387864 L37.35553289340976,264.305749018702 M37.585111090168766,262.06732056387864 L37.42280580089158,258.7936440084452 M37.42280580089158,258.7936440084452 L37.19301578367987,261.0309692140515 M37.19301578367987,261.0309692140515 L32.51710765988855,261.03097490757625 M32.681781095666054,264.3057547150325 L32.51710765988855,261.03097490757625 M37.35553289340976,264.305749018702 L32.681781095666054,264.3057547150325 M32.681781095666054,264.3057547150325 L32.91440540520915,262.06732625278636 M32.91440540520915,262.06732625278636 L37.585111090168766,262.06732056387864 M32.91440540520915,262.06732625278636 L32.74994660038237,258.79364969454736 M32.74994660038237,258.79364969454736 L37.42280580089158,258.7936440084452 M32.74994660038237,258.79364969454736 L32.51710765988855,261.03097490757625" stroke="black"  stroke-width="4"  fill="red"/>
<path d="M-51.44584160346727,264.3057547150325 L23.1468118392429,260.6732278653015 M-46.70335929191049,340.6278748018395 L-51.44584160346727,264.3057547150325 M36.519665313683845,340.6278748018395 L-46.70335929191049,340.6278748018395 M37.49228618317687,272.01254860001956 L36.519665313683845,340.6278748018395 M37.49228618317687,272.01254860001956 L28.4006427294201,272.0125543029335 M28.204442636405076,268.1612504570679 L28.4006427294201,272.0125543029335 M23.533210564206797,268.1612447574405 L28.204442636405076,268.1612504570679 M23.533210564206797,268.1612447574405 L23.1468118392429,260.6732278653015 M23.1468118392429,260.6732278653015 L23.428406922039642,258.0369667077631 M28.089403068464605,257.8098950930194 L23.428406922039642,258.0369667077631 M28.089403068464605,257.8098950930194 L28.366995854681136,255.17777250006185 M-50.7689030850259,259.034384749211 L28.366995854681136,255.17777250006185 M-51.44584160346727,264.3057547150325 L-50.7689030850259,259.034384749211 M-46.70335929191049,340.6278748018395 L-46.04088939012223,335.29721629047737 M-46.04088939012223,335.29721629047737 L-50.7689030850259,259.034384749211 M36.519665313683845,340.6278748018395 L37.05577332926646,335.29721629047737 M37.05577332926646,335.29721629047737 L-46.04088939012223,335.29721629047737 M37.76242656242073,269.37179442380955 L37.81711394614189,265.5220077868049 M37.76242656242073,269.37179442380955 L37.49228618317687,272.01254860001956 M38.08693384991733,262.88683076621794 L37.05577332926646,335.29721629047737 M37.81711394614189,265.5220077868049 L38.08693384991733,262.88683076621794 M28.67773900622177,269.37178872964245 L37.76242656242073,269.37179442380955 M28.4006427294201,272.0125543029335 L28.67773900622177,269.37178872964245 M28.481839912842304,265.5220077868049 L28.67773900622177,269.37178872964245 M28.481839912842304,265.5220077868049 L28.204442636405076,268.1612504570679 M23.814212362670105,265.52201347768585 L23.533210564206797,268.1612447574405 M28.481839912842304,265.5220077868049 L23.814212362670105,265.52201347768585 M23.428406922039642,258.0369667077631 L23.814212362670105,265.52201347768585 M37.81711394614189,265.5220077868049 L37.43482185500159,257.8098950930194 M37.43482185500159,257.8098950930194 L28.089403068464605,257.8098950930194 M28.366995854681136,255.17777250006185 L37.70522828502635,255.17777817561318 M37.43482185500159,257.8098950930194 L37.70522828502635,255.17777817561318 M37.70522828502635,255.17777817561318 L38.08693384991733,262.88683076621794" stroke="black"  stroke-width="4"  fill="red"/></svg>