<svg viewBox="0 0 800 800" xmlns="http://www.w3.org/2000/svg"><path d="M843.2238827909258,436.8384887434287 L842.9386242705879,442.22226622976615 M842.9386242705879,442.22226622976615 L836.9008685563692,442.22227237696694 M837.1823421825167,436.83849488418343 L836.9008685563692,442.22227237696694 M837.1823421825167,436.83849488418343 L843.2238827909258,436.8384887434287 M844.0326563836529,442.53997207236785 L843.9713161790995,442.10745967332963 M843.9713161790995,442.10745967332963 L843.7284461621733,446.6809073586242 M843.7284461621733,446.6809073586242 L843.0429100268449,441.8387389646824 M843.0429100268449,441.8387389646824 L843.2850498981567,437.2695969102947 M843.2850498981567,437.2695969102947 L843.2238827909258,436.8384887434287 M843.7463839235157,447.9297280829852 L842.9386242705879,442.22226622976615 M844.0326563836529,442.53997207236785 L843.7463839235157,447.9297280829852 M843.7463839235157,447.9297280829852 L837.6979228065865,447.9297280829852 M836.9008685563692,442.22227237696694 L837.6979228065865,447.9297280829852 M837.1823421825167,436.83849488418343 L837.9803969263965,442.53997207236785 M837.6979228065865,447.9297280829852 L837.9803969263965,442.53997207236785 M844.0326563836529,442.53997207236785 L837.9803969263965,442.53997207236785 M843.9713161790995,442.10745967332963 L839.7530971356255,442.1074535123985 M839.0731779796625,437.26959076789046 L839.7530971356255,442.1074535123985 M839.0731779796625,437.26959076789046 L843.2850498981567,437.2695969102947 M839.5124733697455,446.68090119221534 L839.7530971356255,442.1074535123985 M843.7284461621733,446.6809073586242 L839.5124733697455,446.68090119221534 M838.8332776064403,441.83873281680644 L839.5124733697455,446.68090119221534 M843.0429100268449,441.8387389646824 L838.8332776064403,441.83873281680644 M839.0731779796625,437.26959076789046 L838.8332776064403,441.83873281680644" stroke="black"  stroke-width="4"  fill="red"/>
<path d="M572.6871689642452,579.7606343657047 L572.5662444024751,585.2904471795822 M572.5662444024751,585.2904471795822 L572.3955017078158,582.1855098049324 M572.516202701153,576.6587816797047 L572.3955017078158,582.1855098049324 M572.516202701153,576.6587816797047 L572.6871689642452,579.7606343657047 M560.0660568200524,579.7606343657047 L561.0219482419122,579.7606410654705 M561.0219482419122,579.7606410654705 L560.9258069983482,584.4533467530448 M560.9258069983482,584.4533467530448 L571.6292173668758,584.4533467530448 M571.6292173668758,584.4533467530448 L571.7313054910173,579.7606410654705 M571.7313054910173,579.7606410654705 L572.6871689642452,579.7606343657047 M559.9533909365836,585.2904471795822 L572.5662444024751,585.2904471795822 M560.0660568200524,579.7606343657047 L559.9533909365836,585.2904471795822 M559.9533909365836,585.2904471795822 L559.7943225585645,582.1855031109033 M572.3955017078158,582.1855098049324 L559.7943225585645,582.1855031109033 M572.516202701153,576.6587816797047 L559.9067801509024,576.6587749923298 M559.7943225585645,582.1855031109033 L559.9067801509024,576.6587749923298 M560.0660568200524,579.7606343657047 L559.9067801509024,576.6587749923298 M561.0219482419122,579.7606410654705 L560.9102523202471,577.597858683379 M571.6127013855987,577.597858683379 L560.9102523202471,577.597858683379 M571.6127013855987,577.597858683379 L571.7313054910173,579.7606410654705 M560.8142350436816,582.2887391851682 L560.9102523202471,577.597858683379 M560.9258069983482,584.4533467530448 L560.8142350436816,582.2887391851682 M571.5107448960498,582.2887391851682 L560.8142350436816,582.2887391851682 M571.6292173668758,584.4533467530448 L571.5107448960498,582.2887391851682 M571.6127013855987,577.597858683379 L571.5107448960498,582.2887391851682" stroke="black"  stroke-width="4"  fill="red"/>
<path d="M225.72260560539712,169.0900380942311 L225.81572901926478,174.17875171065498 M225.81572901926478,174.17875171065498 L225.68400170001001,176.57419871723278 M225.59072680478582,171.4827242564262 L225.68400170001001,176.57419871723278 M225.59072680478582,171.4827242564262 L225.72260560539712,169.0900380942311 M236.79782668515298,169.0900380942311 L235.95901775053252,169.090032935188 M235.95901775053252,169.090032935188 L236.03305475329418,173.40836093755934 M236.03305475329418,173.40836093755934 L226.64000780072357,173.40836093755934 M226.64000780072357,173.40836093755934 L226.56139118990387,169.090032935188 M226.56139118990387,169.090032935188 L225.72260560539712,169.0900380942311 M236.88459013123426,174.17875171065498 L225.81572901926478,174.17875171065498 M236.79782668515298,169.0900380942311 L236.88459013123426,174.17875171065498 M236.88459013123426,174.17875171065498 L236.76184705909077,176.57420389063066 M225.68400170001001,176.57419871723278 L236.76184705909077,176.57420389063066 M225.59072680478582,171.4827242564262 L236.67494247006346,171.48272942386404 M236.76184705909077,176.57420389063066 L236.67494247006346,171.48272942386404 M236.79782668515298,169.0900380942311 L236.67494247006346,171.48272942386404 M235.95901775053252,169.090032935188 L235.87292631699322,170.75746701934168 M226.46997377389624,170.75746701934168 L235.87292631699322,170.75746701934168 M226.46997377389624,170.75746701934168 L226.56139118990387,169.090032935188 M235.94704723624858,175.07742815798235 L235.87292631699322,170.75746701934168 M236.03305475329418,173.40836093755934 L235.94704723624858,175.07742815798235 M226.54867949228074,175.07742815798235 L235.94704723624858,175.07742815798235 M226.64000780072357,173.40836093755934 L226.54867949228074,175.07742815798235 M226.46997377389624,170.75746701934168 L226.54867949228074,175.07742815798235" stroke="black"  stroke-width="4"  fill="red"/>
<path d="M-46.43803446875296,288.7191765856075 L-46.17848716692379,293.9431859819045 M-46.17848716692379,293.9431859819045 L-40.419171505078964,293.94318038860786 M-40.67527505483463,288.7191709984993 L-40.419171505078964,293.94318038860786 M-40.67527505483463,288.7191709984993 L-46.43803446875296,288.7191765856075 M-45.704724297066775,283.5496758051567 L-45.76018750807356,283.9405785067102 M-45.76018750807356,283.9405785067102 L-45.54061935683751,288.36923953323907 M-45.54061935683751,288.36923953323907 L-46.16222248954534,292.7598279904492 M-46.16222248954534,292.7598279904492 L-46.382421042174485,288.3270397508827 M-46.382421042174485,288.3270397508827 L-46.43803446875296,288.7191765856075 M-45.44605242799969,288.76795431834006 L-46.17848716692379,293.9431859819045 M-45.704724297066775,283.5496758051567 L-45.44605242799969,288.76795431834006 M-45.44605242799969,288.76795431834006 L-39.696468117356005,288.76795431834006 M-40.419171505078964,293.94318038860786 L-39.696468117356005,288.76795431834006 M-40.67527505483463,288.7191709984993 L-39.9517078581938,283.5496758051567 M-39.696468117356005,288.76795431834006 L-39.9517078581938,283.5496758051567 M-45.704724297066775,283.5496758051567 L-39.9517078581938,283.5496758051567 M-45.76018750807356,283.9405785067102 L-41.74948004061048,283.94058407639216 M-42.365958679047026,288.3270453365597 L-41.74948004061048,283.94058407639216 M-42.365958679047026,288.3270453365597 L-46.382421042174485,288.3270397508827 M-41.53194262499488,288.3692451081657 L-41.74948004061048,283.94058407639216 M-45.54061935683751,288.36923953323907 L-41.53194262499488,288.3692451081657 M-42.147796692475765,292.75983358137796 L-41.53194262499488,288.3692451081657 M-46.16222248954534,292.7598279904492 L-42.147796692475765,292.75983358137796 M-42.365958679047026,288.3270453365597 L-42.147796692475765,292.75983358137796" stroke="black"  stroke-width="4"  fill="red"/>
<path d="M-86.52413609109857,259.82602484251555 L-85.4465138781108,279.74867122506555 M218.15067383811754,133.0571601771352 L218.5201490912684,152.42483965530823 M-86.52413609109857,259.82602484251555 L218.15067383811754,133.0571601771352 M-85.4465138781108,279.74867122506555 L218.5201490912684,152.42483965530823 M-90.06412548512833,271.7135974196734 L-88.9742166172739,291.68704516621347 M-90.06412548512833,271.7135974196734 L-91.51244598494714,270.62744479705003 M-91.51244598494714,270.62744479705003 L-92.57829195078654,269.4493307573097 M-92.57829195078654,269.4493307573097 L-93.23973551867823,268.2040116746762 M-93.23973551867823,268.2040116746762 L-93.48351799664488,266.91755844747166 M-93.48351799664488,266.91755844747166 L-93.30504046245494,265.61688094942735 M-93.30504046245494,265.61688094942735 L-92.70857311708198,264.32910366635195 M-92.70857311708198,264.32910366635195 L-91.7070583433142,263.08098796027383 M-91.7070583433142,263.08098796027383 L-90.32180511918347,261.8984394758742 M-90.32180511918347,261.8984394758742 L-88.58201463426792,260.80592814322773 M-88.58201463426792,260.80592814322773 L-86.52413609109857,259.82602484251555 M-88.9742166172739,291.68704516621347 L-90.41962348923221,290.59625971072455 M-90.41962348923221,290.59625971072455 L-91.4834627597819,289.413118583111 M-91.4834627597819,289.413118583111 L-92.14384682025866,288.16248337446893 M-92.14384682025866,288.16248337446893 L-92.38753675884084,286.8705359745192 M-92.38753675884084,286.8705359745192 L-92.20993326169491,285.5643010238552 M-92.20993326169491,285.5643010238552 L-91.61528583789755,284.27101890020907 M-91.61528583789755,284.27101890020907 L-90.61649666043661,283.01756551363616 M-90.61649666043661,283.01756551363616 L-89.23481597009845,281.82995759096696 M-89.23481597009845,281.82995759096696 L-87.4993690792312,280.7327701672394 M-87.4993690792312,280.7327701672394 L-85.4465138781108,279.74867122506555 M244.5975963012836,132.70300430890302 L244.90946513297627,152.06909949902786 M218.15067383811754,133.0571601771352 L220.40390980785014,132.24857887481153 M220.40390980785014,132.24857887481153 L222.90705005481104,131.59081636663768 M222.90705005481104,131.59081636663768 L225.6036086819445,131.0986128650244 M225.6036086819445,131.0986128650244 L228.43272443884527,130.78294424257115 M228.43272443884527,130.78294424257115 L231.3307090323632,130.65087401667995 M231.3307090323632,130.65087401667995 L234.2323250160971,130.7053483605058 M234.2323250160971,130.7053483605058 L237.07222752506027,130.9451307461959 M237.07222752506027,130.9451307461959 L239.78652728951386,131.36489594500563 M239.78652728951386,131.36489594500563 L242.31401643589317,131.95526053428898 M242.31401643589317,131.95526053428898 L244.5975963012836,132.70300430890302 M218.5201490912684,152.42483965530823 L220.76837910166753,151.61264095252545 M220.76837910166753,151.61264095252545 L223.26599103072257,150.95193504564327 M223.26599103072257,150.95193504564327 L225.95662316407078,150.45752857373986 M225.95662316407078,150.45752857373986 L228.779547148005,150.14044691169204 M228.779547148005,150.14044691169204 L231.67121300888755,150.00778545027947 M231.67121300888755,150.00778545027947 L234.56652435725934,150.06250366123618 M234.56652435725934,150.06250366123618 L237.40027711138742,150.3033594357289 M237.40027711138742,150.3033594357289 L240.1087192560716,150.72500351032136 M240.1087192560716,150.72500351032136 L242.6307741042606,151.3180101323287 M242.6307741042606,151.3180101323287 L244.90946513297627,152.06909949902786 M244.5975963012836,132.70300430890302 L245.46461782614688,133.0571601771352 M245.46461782614688,133.0571601771352 L886.1161186184848,412.0896795961764 M886.1161186184848,412.0896795961764 L888.0204528282683,413.02194118294807 M888.0204528282683,413.02194118294807 L889.9024636346551,414.21211853672247 M889.9024636346551,414.21211853672247 L891.4175833336649,415.50503236291064 M891.4175833336649,415.50503236291064 L892.533803045846,416.8739312242465 M892.533803045846,416.8739312242465 L893.2274669886963,418.29046024855126 M893.2274669886963,418.29046024855126 L893.4835179966449,419.72515235218583 M893.4835179966449,419.72515235218583 L893.2960408415788,421.1480985883172 M893.2960408415788,421.1480985883172 L892.6683720304518,422.5295845139728 M892.6683720304518,422.5295845139728 L891.6130644395362,423.8406493954878 M891.6130644395362,423.8406493954878 L890.1516924738962,425.0537578703774 M890.1516924738962,425.0537578703774 L888.3144177360286,426.14335579860114 M888.3144177360286,426.14335579860114 L583.7545623597514,580.4499215718955 M583.7545623597514,580.4499215718955 L581.2703398718953,581.527270475475 M581.2703398718953,581.527270475475 L578.4730838886304,582.4046228369427 M578.4730838886304,582.4046228369427 L575.4265007145796,583.0617057479749 M575.4265007145796,583.0617057479749 L572.2002883647,583.4833704947507 M572.2002883647,583.4833704947507 L568.8682646562352,583.6598462925988 M568.8682646562352,583.6598462925988 L565.5067847792373,583.5870520115611 M565.5067847792373,583.5870520115611 L562.1929314991207,583.2666998535982 M562.1929314991207,583.2666998535982 L559.0025399280347,582.7061629782902 M559.0025399280347,582.7061629782902 L556.0086306714501,581.9184055219874 M556.0086306714501,581.9184055219874 L553.2796082443398,580.9216377649502 M553.2796082443398,580.9216377649502 L552.2356967006212,580.4499215718955 M552.2356967006212,580.4499215718955 L-88.51686350363013,272.5654858157357 M-88.51686350363013,272.5654858157357 L-90.06412548512833,271.7135974196734 M-87.43017971399496,292.54256593190706 L-88.9742166172739,291.68704516621347 M244.90946513297627,152.06909949902786 L245.77463729143437,152.42483965530823 M551.8230144583399,601.6683131618229 L-87.43017971399496,292.54256593190706 M245.77463729143437,152.42483965530823 L884.9277140587568,432.64694766097927 M552.8642464470144,602.1418218415026 L551.8230144583399,601.6683131618229 M884.9277140587568,432.64694766097927 L886.8271576099376,433.58298743545004 M583.2627355778544,601.6683131618229 L580.7845954175654,602.7497554210969 M580.7845954175654,602.7497554210969 L577.9942407662943,603.6304399682488 M577.9942407662943,603.6304399682488 L574.9552200369216,604.2900177234218 M574.9552200369216,604.2900177234218 L571.7370570212466,604.7132831253941 M571.7370570212466,604.7132831253941 L568.4133837894833,604.8904287526525 M568.4133837894833,604.8904287526525 L565.0603623757014,604.8173581801921 M565.0603623757014,604.8173581801921 L561.7548797216026,604.4957900277435 M561.7548797216026,604.4957900277435 L558.5725776421265,603.9331250923531 M558.5725776421265,603.9331250923531 L555.586290117352,603.1423761420863 M555.586290117352,603.1423761420863 L552.8642464470144,602.1418218415026 M886.8271576099376,433.58298743545004 L888.7042316540801,434.77798633588645 M888.7042316540801,434.77798633588645 L890.2152486361502,436.0761354922092 M890.2152486361502,436.0761354922092 L891.3282869412169,437.45057462629666 M891.3282869412169,437.45057462629666 L892.0197590606268,438.8728337277241 M892.0197590606268,438.8728337277241 L892.2746562280292,440.31332630522274 M892.2746562280292,440.31332630522274 L892.0870900544375,441.7420224691895 M892.0870900544375,441.7420224691895 L891.4604016772486,443.12908787431604 M891.4604016772486,443.12908787431604 L890.4071261232914,444.44544516791905 M890.4071261232914,444.44544516791905 L888.9487975494565,445.66344832921396 M888.9487975494565,445.66344832921396 L887.1155156341771,446.7574407133089 M887.1155156341771,446.7574407133089 L583.2627355778544,601.6683131618229 M-45.704724297066775,283.5496758051567 L-57.210806833139486,283.5496758051567 M-56.83536277536314,280.97147154857055 L-57.210806833139486,283.5496758051567 M-56.83536277536314,280.97147154857055 L-45.33899858969994,280.9714771074386 M-45.704724297066775,283.5496758051567 L-45.33899858969994,280.9714771074386 M-45.76018750807356,283.9405785067102 L-46.07108122703596,286.1322367419989 M-51.51395289979996,283.94058407639216 L-45.76018750807356,283.9405785067102 M-46.07108122703596,286.1322367419989 L-51.82897165053356,286.13224231967 M-51.82897165053356,286.13224231967 L-51.51395289979996,283.94058407639216 M235.95901775053252,169.090032935188 L231.26020447021818,169.090032935188 M236.08238346741925,166.70122696639316 L235.95901775053252,169.090032935188 M231.26020447021818,169.090032935188 L231.3873852520695,166.70122696639316 M231.3873852520695,166.70122696639316 L236.08238346741925,166.70122696639316 M236.79782668515298,169.0900380942311 L237.04297363488968,164.3162917516072 M236.79782668515298,169.0900380942311 L242.33542553055378,169.090032935188 M242.57157538573503,164.3162917516072 L237.04297363488968,164.3162917516072 M242.57157538573503,164.3162917516072 L242.33542553055378,169.090032935188 M560.0660568200524,579.7606343657047 L560.3855247194966,585.9816324984369 M560.0660568200524,579.7606343657047 L553.7555146970521,579.7606410654705 M554.063287053283,585.9816324984369 L560.3855247194966,585.9816324984369 M554.063287053283,585.9816324984369 L553.7555146970521,579.7606410654705 M561.0219482419122,579.7606410654705 L566.3766268664648,579.7606410654705 M561.182406143069,582.8682504291297 L561.0219482419122,579.7606410654705 M566.3766268664648,579.7606410654705 L566.5420478042857,582.8682504291297 M566.5420478042857,582.8682504291297 L561.182406143069,582.8682504291297 M843.9713161790995,442.10745967332963 L843.6279246892827,439.6867070473304 M850.022773757714,442.1074535123985 L843.9713161790995,442.10745967332963 M843.6279246892827,439.6867070473304 L849.6748260484876,439.6867008956731 M849.6748260484876,439.6867008956731 L850.022773757714,442.1074535123985 M844.0326563836529,442.53997207236785 L856.1372275394685,442.53997207236785 M844.0326563836529,442.53997207236785 L844.4381198003848,445.39830341723473 M856.5534384259472,445.39830959078387 L856.1372275394685,442.53997207236785 M856.5534384259472,445.39830959078387 L844.4381198003848,445.39830341723473 M-88.51686350363013,272.5654858157357 L-87.43017971399496,292.54256593190706 M245.46461782614688,133.0571601771352 L245.77463729143437,152.42483965530823 M886.1161186184848,412.0896795961764 L884.9277140587568,432.64694766097927 M888.0204528282683,413.02194118294807 L886.8271576099376,433.58298743545004 M888.3144177360286,426.14335579860114 L887.1155156341771,446.7574407133089 M583.7545623597514,580.4499215718955 L583.2627355778544,601.6683131618229 M553.2796082443398,580.9216377649502 L552.8642464470144,602.1418218415026 M552.2356967006212,580.4499215718955 L551.8230144583399,601.6683131618229 M-57.4766601933016,278.3251636244943 L-57.210806833139486,283.5496758051567 M-45.96370517118481,278.3251636244943 L-57.4766601933016,278.3251636244943 M-45.704724297066775,283.5496758051567 L-45.96370517118481,278.3251636244943 M-57.4766601933016,278.3251636244943 L-57.100767699234666,275.74983013267536 M-56.83536277536314,280.97147154857055 L-57.100767699234666,275.74983013267536 M-57.100767699234666,275.74983013267536 L-45.59754262805609,275.74983568535134 M-45.59754262805609,275.74983568535134 L-45.33899858969994,280.9714771074386 M-45.96370517118481,278.3251636244943 L-45.59754262805609,275.74983568535134 M-46.291184123758285,281.6970820537985 L-46.07108122703596,286.1322367419989 M-45.76018750807356,283.9405785067102 L-45.97997506846883,279.50749202600525 M-45.97997506846883,279.50749202600525 L-46.291184123758285,281.6970820537985 M-51.51395289979996,283.94058407639216 L-51.73665666793505,279.5074975904292 M-51.73665666793505,279.5074975904292 L-45.97997506846883,279.50749202600525 M-46.291184123758285,281.6970820537985 L-52.05199493897396,281.69708762620826 M-51.82897165053356,286.13224231967 L-52.05199493897396,281.69708762620826 M-51.73665666793505,279.5074975904292 L-52.05199493897396,281.69708762620826 M231.1838043000434,164.76755426584634 L231.26020447021818,169.090032935188 M235.95901775053252,169.090032935188 L235.8849095852881,164.76755426584634 M235.8849095852881,164.76755426584634 L231.1838043000434,164.76755426584634 M236.08238346741925,166.70122696639316 L236.0083956283879,162.3810952442609 M236.0083956283879,162.3810952442609 L235.8849095852881,164.76755426584634 M231.1838043000434,164.76755426584634 L231.31110912935668,162.3810952442609 M231.3873852520695,166.70122696639316 L231.31110912935668,162.3810952442609 M236.0083956283879,162.3810952442609 L231.31110912935668,162.3810952442609 M236.95639215414008,159.22725779614598 L237.04297363488968,164.3162917516072 M236.71096347632997,163.99547334988358 L236.95639215414008,159.22725779614598 M236.79782668515298,169.0900380942311 L236.71096347632997,163.99547334988358 M242.25174595547105,163.9954681968128 L242.33542553055378,169.090032935188 M236.71096347632997,163.99547334988358 L242.25174595547105,163.9954681968128 M236.95639215414008,159.22725779614598 L242.4881672059364,159.22725779614598 M242.57157538573503,164.3162917516072 L242.4881672059364,159.22725779614598 M242.4881672059364,159.22725779614598 L242.25174595547105,163.9954681968128 M560.4987574072463,580.4383764827596 L560.3855247194966,585.9816324984369 M560.1788703435371,574.2235751554351 L560.4987574072463,580.4383764827596 M560.0660568200524,579.7606343657047 L560.1788703435371,574.2235751554351 M553.8641934795603,574.223581848519 L553.7555146970521,579.7606410654705 M560.1788703435371,574.2235751554351 L553.8641934795603,574.223581848519 M560.4987574072463,580.4383764827596 L554.1723696457398,580.4383764827596 M554.063287053283,585.9816324984369 L554.1723696457398,580.4383764827596 M554.1723696457398,580.4383764827596 L553.8641934795603,574.223581848519 M566.4758503207564,575.0627855087068 L566.3766268664648,579.7606410654705 M561.0219482419122,579.7606410654705 L561.1181949928023,575.0627855087068 M561.1181949928023,575.0627855087068 L566.4758503207564,575.0627855087068 M561.182406143069,582.8682504291297 L561.2788314332399,578.1677673397519 M561.2788314332399,578.1677673397519 L561.1181949928023,575.0627855087068 M566.4758503207564,575.0627855087068 L566.6414553199259,578.1677673397519 M566.5420478042857,582.8682504291297 L566.6414553199259,578.1677673397519 M561.2788314332399,578.1677673397519 L566.6414553199259,578.1677673397519 M843.8706840805069,435.1106086425835 L843.6279246892827,439.6867070473304 M843.9713161790995,442.10745967332963 L844.2144416344856,437.5292018659399 M844.2144416344856,437.5292018659399 L843.8706840805069,435.1106086425835 M850.022773757714,442.1074535123985 L850.2691250732378,437.5291957105025 M850.2691250732378,437.5291957105025 L844.2144416344856,437.5292018659399 M843.8706840805069,435.1106086425835 L849.9208064428029,435.11060249641633 M849.6748260484876,439.6867008956731 L849.9208064428029,435.11060249641633 M850.2691250732378,437.5291957105025 L849.9208064428029,435.11060249641633 M856.4314660355948,437.14344244066865 L856.1372275394685,442.53997207236785 M844.3192886191057,437.14344244066865 L856.4314660355948,437.14344244066865 M844.0326563836529,442.53997207236785 L844.3192886191057,437.14344244066865 M844.7252619922504,439.9987715561865 L844.4381198003848,445.39830341723473 M844.3192886191057,437.14344244066865 L844.7252619922504,439.9987715561865 M856.4314660355948,437.14344244066865 L856.8482004039329,439.99877772325476 M856.5534384259472,445.39830959078387 L856.8482004039329,439.99877772325476 M856.8482004039329,439.99877772325476 L844.7252619922504,439.9987715561865" stroke="black"  stroke-width="4"  fill="red"/>
<path d="M572.4778905507619,562.7585998461681 L570.338410361922,660.9038193692813 M810.7640030170218,442.8710604180418 L806.0368699472203,538.8686039391004 M572.4778905507619,562.7585998461681 L810.7640030170218,442.8710604180418 M570.338410361922,660.9038193692813 L806.0368699472203,538.8686039391004 M828.1244045698229,450.58484825801395 L823.1915362539899,546.7236387535868 M810.7640030170218,442.8710604180418 L828.1244045698229,450.58484825801395 M806.0368699472203,538.8686039391004 L823.1915362539899,546.7236387535868 M589.894167822033,571.0589758203507 L587.5470677073318,669.3491259833199 M828.1244045698229,450.58484825801395 L589.894167822033,571.0589758203507 M823.1915362539899,546.7236387535868 L587.5470677073318,669.3491259833199 M589.894167822033,571.0589758203507 L572.4778905507619,562.7585998461681 M587.5470677073318,669.3491259833199 L570.338410361922,660.9038193692813" stroke="black"  stroke-width="4"  fill="red"/>
<path d="M-28.550836976260314,276.3159616144037 L-24.13421247869269,369.1609208519907 M209.75520656809536,175.823415715608 L211.5828047341837,266.6710983531846 M-28.550836976260314,276.3159616144037 L209.75520656809536,175.823415715608 M-24.13421247869269,369.1609208519907 L211.5828047341837,266.6710983531846 M224.34924218731726,182.30801770786513 L226.0307602860026,273.286744022311 M209.75520656809536,175.823415715608 L224.34924218731726,182.30801770786513 M211.5828047341837,266.6710983531846 L226.0307602860026,273.286744022311 M-14.000266399865893,283.2505782688008 L-9.728371237611611,376.23071972543653 M224.34924218731726,182.30801770786513 L-14.000266399865893,283.2505782688008 M226.0307602860026,273.286744022311 L-9.728371237611611,376.23071972543653 M-14.000266399865893,283.2505782688008 L-28.550836976260314,276.3159616144037 M-9.728371237611611,376.23071972543653 L-24.13421247869269,369.1609208519907" stroke="black"  stroke-width="4"  fill="red"/>
<path d="M236.76385128406457,182.3080229133675 L238.31772089265655,273.28674933288875 M252.04831879930668,175.823415715608 L253.44199850812316,266.6710983531846 M236.76385128406457,182.3080229133675 L252.04831879930668,175.823415715608 M238.31772089265655,273.28674933288875 L253.44199850812316,266.6710983531846 M825.1578368940508,428.86199144496527 L820.2908580409916,524.6019380409157 M252.04831879930668,175.823415715608 L825.1578368940508,428.86199144496527 M253.44199850812316,266.6710983531846 L820.2908580409916,524.6019380409157 M809.9273728655475,436.5086474399222 L805.2188215800321,532.3893719677377 M825.1578368940508,428.86199144496527 L809.9273728655475,436.5086474399222 M820.2908580409916,524.6019380409157 L805.2188215800321,532.3893719677377 M809.9273728655475,436.5086474399222 L236.76385128406457,182.3080229133675 M805.2188215800321,532.3893719677377 L238.31772089265655,273.28674933288875" stroke="black"  stroke-width="4"  fill="red"/>
<path d="M-31.24060344632096,296.0119262023202 L-26.76704734856048,389.2399440115076 M-14.758809673688347,289.0193398774503 L-10.47085920173663,382.1116767434743 M-31.24060344632096,296.0119262023202 L-14.758809673688347,289.0193398774503 M-26.76704734856048,389.2399440115076 L-10.47085920173663,382.1116767434743 M558.4651312028566,562.7585932141785 L556.4880646334103,660.9038126212976 M-14.758809673688347,289.0193398774503 L558.4651312028566,562.7585932141785 M-10.47085920173663,382.1116767434743 L556.4880646334103,660.9038126212976 M541.9325869391292,571.0589758203507 L540.1427483054973,669.3491259833199 M558.4651312028566,562.7585932141785 L541.9325869391292,571.0589758203507 M556.4880646334103,660.9038126212976 L540.1427483054973,669.3491259833199 M541.9325869391292,571.0589758203507 L-31.24060344632096,296.0119262023202 M540.1427483054973,669.3491259833199 L-26.76704734856048,389.2399440115076" stroke="black"  stroke-width="4"  fill="red"/>
<path d="" stroke="black"  stroke-width="4"  fill="red"/>
<path d="M843.8706840805069,435.1106086425835 L843.6279246892827,439.6867070473304 M843.9713161790995,442.10745967332963 L843.6279246892827,439.6867070473304 M843.9713161790995,442.10745967332963 L844.2144416344856,437.5292018659399 M844.2144416344856,437.5292018659399 L843.8706840805069,435.1106086425835 M843.8706840805069,435.1106086425835 L849.9208064428029,435.11060249641633 M849.6748260484876,439.6867008956731 L849.9208064428029,435.11060249641633 M843.6279246892827,439.6867070473304 L849.6748260484876,439.6867008956731 M849.6748260484876,439.6867008956731 L850.022773757714,442.1074535123985 M850.022773757714,442.1074535123985 L843.9713161790995,442.10745967332963 M850.022773757714,442.1074535123985 L850.2691250732378,437.5291957105025 M850.2691250732378,437.5291957105025 L844.2144416344856,437.5292018659399 M850.2691250732378,437.5291957105025 L849.9208064428029,435.11060249641633" stroke="black"  stroke-width="4"  fill="red"/>
<path d="M843.7463839235157,447.9297280829852 L844.3192886191057,437.14344244066865 M844.3192886191057,437.14344244066865 L856.4314660355948,437.14344244066865 M856.4314660355948,437.14344244066865 L855.8433583658916,447.9297280829852 M855.8433583658916,447.9297280829852 L843.7463839235157,447.9297280829852 M843.7463839235157,447.9297280829852 L844.1513383440914,450.791051868285 M844.1513383440914,450.791051868285 L856.2590467562408,450.79105804829385 M856.2590467562408,450.79105804829385 L855.8433583658916,447.9297280829852 M844.3192886191057,437.14344244066865 L844.7252619922504,439.9987715561865 M844.7252619922504,439.9987715561865 L844.1513383440914,450.791051868285 M856.4314660355948,437.14344244066865 L856.8482004039329,439.99877772325476 M856.8482004039329,439.99877772325476 L844.7252619922504,439.9987715561865 M856.2590467562408,450.79105804829385 L856.8482004039329,439.99877772325476" stroke="black"  stroke-width="4"  fill="red"/>
<path d="" stroke="black"  stroke-width="4"  fill="red"/>
<path d="M566.4758503207564,575.0627855087068 L566.3766268664648,579.7606410654705 M561.0219482419122,579.7606410654705 L566.3766268664648,579.7606410654705 M561.0219482419122,579.7606410654705 L561.1181949928023,575.0627855087068 M561.1181949928023,575.0627855087068 L566.4758503207564,575.0627855087068 M566.4758503207564,575.0627855087068 L566.6414553199259,578.1677673397519 M566.5420478042857,582.8682504291297 L566.6414553199259,578.1677673397519 M566.3766268664648,579.7606410654705 L566.5420478042857,582.8682504291297 M566.5420478042857,582.8682504291297 L561.182406143069,582.8682504291297 M561.182406143069,582.8682504291297 L561.0219482419122,579.7606410654705 M561.182406143069,582.8682504291297 L561.2788314332399,578.1677673397519 M561.2788314332399,578.1677673397519 L561.1181949928023,575.0627855087068 M561.2788314332399,578.1677673397519 L566.6414553199259,578.1677673397519" stroke="black"  stroke-width="4"  fill="red"/>
<path d="M559.9533909365836,585.2904471795822 L560.1788703435371,574.2235751554351 M560.1788703435371,574.2235751554351 L560.4987574072463,580.4383764827596 M560.4987574072463,580.4383764827596 L560.2724404951018,591.5176205564082 M560.2724404951018,591.5176205564082 L559.9533909365836,585.2904471795822 M559.9533909365836,585.2904471795822 L553.6469781433894,585.2904538860066 M553.6469781433894,585.2904538860066 L553.9543474828455,591.5176205564082 M553.9543474828455,591.5176205564082 L560.2724404951018,591.5176205564082 M560.1788703435371,574.2235751554351 L553.8641934795603,574.223581848519 M553.8641934795603,574.223581848519 L553.6469781433894,585.2904538860066 M560.4987574072463,580.4383764827596 L554.1723696457398,580.4383764827596 M554.1723696457398,580.4383764827596 L553.8641934795603,574.223581848519 M553.9543474828455,591.5176205564082 L554.1723696457398,580.4383764827596" stroke="black"  stroke-width="4"  fill="red"/>
<path d="" stroke="black"  stroke-width="4"  fill="red"/>
<path d="M231.1838043000434,164.76755426584634 L231.26020447021818,169.090032935188 M235.95901775053252,169.090032935188 L231.26020447021818,169.090032935188 M235.95901775053252,169.090032935188 L235.8849095852881,164.76755426584634 M235.8849095852881,164.76755426584634 L231.1838043000434,164.76755426584634 M231.1838043000434,164.76755426584634 L231.31110912935668,162.3810952442609 M231.3873852520695,166.70122696639316 L231.31110912935668,162.3810952442609 M231.26020447021818,169.090032935188 L231.3873852520695,166.70122696639316 M231.3873852520695,166.70122696639316 L236.08238346741925,166.70122696639316 M236.08238346741925,166.70122696639316 L235.95901775053252,169.090032935188 M236.08238346741925,166.70122696639316 L236.0083956283879,162.3810952442609 M236.0083956283879,162.3810952442609 L235.8849095852881,164.76755426584634 M236.0083956283879,162.3810952442609 L231.31110912935668,162.3810952442609" stroke="black"  stroke-width="4"  fill="red"/>
<path d="M236.88459013123426,174.17875171065498 L236.71096347632997,163.99547334988358 M236.71096347632997,163.99547334988358 L236.95639215414008,159.22725779614598 M236.95639215414008,159.22725779614598 L237.12945583771383,169.3994904091537 M237.12945583771383,169.3994904091537 L236.88459013123426,174.17875171065498 M236.88459013123426,174.17875171065498 L242.419008999311,174.17874654565674 M242.419008999311,174.17874654565674 L242.654887926247,169.3994904091537 M242.654887926247,169.3994904091537 L237.12945583771383,169.3994904091537 M236.71096347632997,163.99547334988358 L242.25174595547105,163.9954681968128 M242.25174595547105,163.9954681968128 L242.419008999311,174.17874654565674 M236.95639215414008,159.22725779614598 L242.4881672059364,159.22725779614598 M242.4881672059364,159.22725779614598 L242.25174595547105,163.9954681968128 M242.654887926247,169.3994904091537 L242.4881672059364,159.22725779614598" stroke="black"  stroke-width="4"  fill="red"/>
<path d="" stroke="black"  stroke-width="4"  fill="red"/>
<path d="M-46.291184123758285,281.6970820537985 L-46.07108122703596,286.1322367419989 M-45.76018750807356,283.9405785067102 L-46.07108122703596,286.1322367419989 M-45.76018750807356,283.9405785067102 L-45.97997506846883,279.50749202600525 M-45.97997506846883,279.50749202600525 L-46.291184123758285,281.6970820537985 M-46.291184123758285,281.6970820537985 L-52.05199493897396,281.69708762620826 M-51.82897165053356,286.13224231967 L-52.05199493897396,281.69708762620826 M-46.07108122703596,286.1322367419989 L-51.82897165053356,286.13224231967 M-51.82897165053356,286.13224231967 L-51.51395289979996,283.94058407639216 M-51.51395289979996,283.94058407639216 L-45.76018750807356,283.9405785067102 M-51.51395289979996,283.94058407639216 L-51.73665666793505,279.5074975904292 M-51.73665666793505,279.5074975904292 L-45.97997506846883,279.50749202600525 M-51.73665666793505,279.5074975904292 L-52.05199493897396,281.69708762620826" stroke="black"  stroke-width="4"  fill="red"/>
<path d="M-45.44605242799969,288.76795431834006 L-45.96370517118481,278.3251636244943 M-45.96370517118481,278.3251636244943 L-57.4766601933016,278.3251636244943 M-57.4766601933016,278.3251636244943 L-56.945270677988674,288.76795431834006 M-56.945270677988674,288.76795431834006 L-45.44605242799969,288.76795431834006 M-45.44605242799969,288.76795431834006 L-45.080762775136066,286.1868935392603 M-45.080762775136066,286.1868935392603 L-56.57027425450195,286.1868879742184 M-56.57027425450195,286.1868879742184 L-56.945270677988674,288.76795431834006 M-45.96370517118481,278.3251636244943 L-45.59754262805609,275.74983568535134 M-45.59754262805609,275.74983568535134 L-45.080762775136066,286.1868935392603 M-57.4766601933016,278.3251636244943 L-57.100767699234666,275.74983013267536 M-57.100767699234666,275.74983013267536 L-45.59754262805609,275.74983568535134 M-56.57027425450195,286.1868879742184 L-57.100767699234666,275.74983013267536" stroke="black"  stroke-width="4"  fill="red"/></svg>