<svg viewBox="0 0 800 800" xmlns="http://www.w3.org/2000/svg"><path d="" stroke="black"  stroke-width="4"  fill="red"/>
<path d="M817.4706291522648,501.86478090664474 L817.2949643280242,504.69428391524076 M817.5434337466813,506.8007026007494 L817.2949643280242,504.69428391524076 M817.5434337466813,506.8007026007494 L817.7193006998249,503.9704286978584 M817.7193006998249,503.9704286978584 L817.4706291522648,501.86478090664474 M817.4706291522648,501.86478090664474 L822.4574456813941,501.8647744844123 M822.2797542989654,504.69427749065557 L822.4574456813941,501.8647744844123 M817.2949643280242,504.69428391524076 L822.2797542989654,504.69427749065557 M822.2797542989654,504.69427749065557 L822.5310901864051,506.8006961687732 M822.5310901864051,506.8006961687732 L817.5434337466813,506.8007026007494 M822.5310901864051,506.8006961687732 L822.7089860295977,503.9704222682346 M822.7089860295977,503.9704222682346 L817.7193006998249,503.9704286978584 M822.7089860295977,503.9704222682346 L822.4574456813941,501.8647744844123" stroke="black"  stroke-width="4"  fill="red"/>
<path d="M817.397837935554,511.67305124406454 L817.8952996386217,503.6701782452305 M817.8952996386217,503.6701782452305 L827.8787544529814,503.6701782452305 M827.8787544529814,503.6701782452305 L827.3698147821112,511.67305124406454 M827.3698147821112,511.67305124406454 L817.397837935554,511.67305124406454 M817.397837935554,511.67305124406454 L817.7494767927358,514.6590652958675 M817.7494767927358,514.6590652958675 L827.7295570354771,514.6590717447064 M827.7295570354771,514.6590717447064 L827.3698147821112,511.67305124406454 M817.8952996386217,503.6701782452305 L818.2477487800768,506.6531132771565 M818.2477487800768,506.6531132771565 L817.7494767927358,514.6590652958675 M827.8787544529814,503.6701782452305 L828.2393256757516,506.65311971935165 M828.2393256757516,506.65311971935165 L818.2477487800768,506.6531132771565 M827.7295570354771,514.6590717447064 L828.2393256757516,506.65311971935165" stroke="black"  stroke-width="4"  fill="red"/>
<path d="" stroke="black"  stroke-width="4"  fill="red"/>
<path d="M604.6769258840715,638.4888391897061 L604.5844091270341,641.3663201324737 M600.9281132615738,641.3663201324737 L604.5844091270341,641.3663201324737 M600.9281132615738,641.3663201324737 L601.0190880727391,638.4888391897061 M601.0190880727391,638.4888391897061 L604.6769258840715,638.4888391897061 M604.6769258840715,638.4888391897061 L604.8621823223805,641.6939864124149 M604.7695093395703,644.5725431229914 L604.8621823223805,641.6939864124149 M604.5844091270341,641.3663201324737 L604.7695093395703,644.5725431229914 M604.7695093395703,644.5725431229914 L601.110128284599,644.5725431229914 M601.110128284599,644.5725431229914 L600.9281132615738,641.3663201324737 M601.110128284599,644.5725431229914 L601.2012567176957,641.6939864124149 M601.2012567176957,641.6939864124149 L601.0190880727391,638.4888391897061 M601.2012567176957,641.6939864124149 L604.8621823223805,641.6939864124149" stroke="black"  stroke-width="4"  fill="red"/>
<path d="M599.2859841885962,645.4315468533409 L599.5413856713808,637.2962296702322 M599.5413856713808,637.2962296702322 L599.903620371719,643.7110610974926 M599.903620371719,643.7110610974926 L599.6473553970891,651.8524540744208 M599.6473553970891,651.8524540744208 L599.2859841885962,645.4315468533409 M599.2859841885962,645.4315468533409 L594.1182877090565,645.4315537695563 M594.1182877090565,645.4315537695563 L594.4709465081124,651.8524540744208 M594.4709465081124,651.8524540744208 L599.6473553970891,651.8524540744208 M599.5413856713808,637.2962296702322 L594.3675240137453,637.296236579889 M594.3675240137453,637.296236579889 L594.1182877090565,645.4315537695563 M599.903620371719,643.7110610974926 L594.7210254731149,643.7110610974926 M594.7210254731149,643.7110610974926 L594.3675240137453,637.296236579889 M594.4709465081124,651.8524540744208 L594.7210254731149,643.7110610974926" stroke="black"  stroke-width="4"  fill="red"/>
<path d="" stroke="black"  stroke-width="4"  fill="red"/>
<path d="M193.73390574416564,154.12875140841604 L193.80432739915204,156.817433371604 M196.99436588093403,156.817433371604 L193.80432739915204,156.817433371604 M196.99436588093403,156.817433371604 L196.92511792013772,154.12875140841604 M196.92511792013772,154.12875140841604 L193.73390574416564,154.12875140841604 M193.73390574416564,154.12875140841604 L193.87470685234803,151.69304724994964 M193.94502499768248,154.38064809906984 L193.87470685234803,151.69304724994964 M193.80432739915204,156.817433371604 L193.94502499768248,154.38064809906984 M193.94502499768248,154.38064809906984 L197.1327186817427,154.38064809906984 M197.1327186817427,154.38064809906984 L196.99436588093403,156.817433371604 M197.1327186817427,154.38064809906984 L197.06357250549712,151.69304724994964 M197.06357250549712,151.69304724994964 L196.92511792013772,154.12875140841604 M197.06357250549712,151.69304724994964 L193.87470685234803,151.69304724994964" stroke="black"  stroke-width="4"  fill="red"/>
<path d="M198.41289495342437,160.61643468100715 L198.21847870351817,153.01448856491163 M198.21847870351817,153.01448856491163 L198.4933067373508,148.14754592557918 M198.4933067373508,148.14754592557918 L198.68715221237022,155.74338344445908 M198.68715221237022,155.74338344445908 L198.41289495342437,160.61643468100715 M198.41289495342437,160.61643468100715 L202.9219407637997,160.61642941545773 M202.9219407637997,160.61642941545773 L203.1895676759449,155.74338344445908 M203.1895676759449,155.74338344445908 L198.68715221237022,155.74338344445908 M198.21847870351817,153.01448856491163 L202.73221756078766,153.0144833059548 M202.73221756078766,153.0144833059548 L202.9219407637997,160.61642941545773 M198.4933067373508,148.14754592557918 L203.00040145908963,148.14754592557918 M203.00040145908963,148.14754592557918 L202.73221756078766,153.0144833059548 M203.1895676759449,155.74338344445908 L203.00040145908963,148.14754592557918" stroke="black"  stroke-width="4"  fill="red"/>
<path d="" stroke="black"  stroke-width="4"  fill="red"/>
<path d="M-19.158730714707076,265.63092373395517 L-19.0050051773743,268.36768598141754 M-18.787803860579118,266.5263450442234 L-19.0050051773743,268.36768598141754 M-18.787803860579118,266.5263450442234 L-18.94136420346217,263.79035403960535 M-18.94136420346217,263.79035403960535 L-19.158730714707076,265.63092373395517 M-19.158730714707076,265.63092373395517 L-23.823696161369753,265.6309293539491 M-23.668197167494156,268.36769160376525 L-23.823696161369753,265.6309293539491 M-19.0050051773743,268.36768598141754 L-23.668197167494156,268.36769160376525 M-23.668197167494156,268.36769160376525 L-23.448490105049927,266.52635066053045 M-23.448490105049927,266.52635066053045 L-18.787803860579118,266.5263450442234 M-23.448490105049927,266.52635066053045 L-23.6038219987077,263.79035965355894 M-23.6038219987077,263.79035965355894 L-18.94136420346217,263.79035403960535 M-23.6038219987077,263.79035965355894 L-23.823696161369753,265.6309293539491" stroke="black"  stroke-width="4"  fill="red"/>
<path d="M-18.481023271299705,269.6294965671669 L-18.91499938913273,261.8947860097628 M-18.91499938913273,261.8947860097628 L-28.239325675751672,261.8947860097628 M-28.239325675751672,261.8947860097628 L-27.795336397354106,269.6294965671669 M-27.795336397354106,269.6294965671669 L-18.481023271299705,269.6294965671669 M-18.481023271299705,269.6294965671669 L-18.17471893477932,267.0284499697883 M-18.17471893477932,267.0284499697883 L-27.48195396213839,267.02844436118204 M-27.48195396213839,267.02844436118204 L-27.795336397354106,269.6294965671669 M-18.91499938913273,261.8947860097628 L-18.60803637666669,259.2968204717843 M-18.60803637666669,259.2968204717843 L-18.17471893477932,267.0284499697883 M-28.239325675751672,261.8947860097628 L-27.925269354675322,259.2968148698262 M-27.925269354675322,259.2968148698262 L-18.60803637666669,259.2968204717843 M-27.48195396213839,267.02844436118204 L-27.925269354675322,259.2968148698262" stroke="black"  stroke-width="4"  fill="red"/></svg>