<svg viewBox="0 0 800 800" xmlns="http://www.w3.org/2000/svg"><path d="M867.9724235465167,481.94153973356765 L867.661824077311,486.8935657364245 M862.1207431451616,486.89356012874305 L867.661824077311,486.8935657364245 M862.1207431451616,486.89356012874305 L861.8140781578575,491.8392626043358 M861.8140781578575,491.8392626043358 L856.2765608552281,491.8392682180735 M856.8832027203603,481.94153973356765 L856.2765608552281,491.8392682180735 M867.9724235465167,481.94153973356765 L856.8832027203603,481.94153973356765 M868.8530606216814,487.1426129467419 L867.9724235465167,481.94153973356765 M867.661824077311,486.8935657364245 L867.7904179937964,487.6548922307179 M868.0101194437555,484.1533649868909 L867.7904179937964,487.6548922307179 M868.6326078940916,487.83225018033977 L868.0101194437555,484.1533649868909 M868.4123436327349,491.3365939522462 L868.6326078940916,487.83225018033977 M868.4123436327349,491.3365939522462 L868.5413352251612,492.10027475354906 M868.5413352251612,492.10027475354906 L868.8530606216814,487.1426129467419 M862.2478961076664,487.65489784136855 L862.1207431451616,486.89356012874305 M862.2478961076664,487.65489784136855 L867.7904179937964,487.6548922307179 M862.9902490425152,492.10028038155235 L862.8627287270352,491.3365995772666 M862.8627287270352,491.3365995772666 L862.645173522495,494.83777365711614 M862.645173522495,494.83777365711614 L862.0308965414624,491.1532619868351 M862.0308965414624,491.1532619868351 L862.2478961076664,487.65489784136855 M862.6824730848344,497.0516000232958 L861.8140781578575,491.8392626043358 M862.9902490425152,492.10028038155235 L862.6824730848344,497.0516000232958 M862.6824730848344,497.0516000232958 L857.1349485828011,497.0516000232958 M856.2765608552281,491.8392682180735 L857.1349485828011,497.0516000232958 M857.7437888769286,487.14261856865977 L868.8530606216814,487.1426129467419 M857.7437888769286,487.14261856865977 L856.8832027203603,481.94153973356765 M868.5413352251612,492.10027475354906 L862.9902490425152,492.10028038155235 M857.1349485828011,497.0516000232958 L857.7437888769286,487.14261856865977 M868.4123436327349,491.3365939522462 L862.8627287270352,491.3365995772666 M860.7807047806135,487.83225018033977 L868.6326078940916,487.83225018033977 M862.645173522495,494.83777365711614 L860.3474775733828,494.83776802780585 M860.3474775733828,494.83776802780585 L860.7807047806135,487.83225018033977 M860.7807047806135,487.83225018033977 L860.1682564665731,484.1533649868909 M868.0101194437555,484.1533649868909 L860.1682564665731,484.1533649868909 M862.0308965414624,491.1532619868351 L859.736135976299,491.15325637189903 M860.1682564665731,484.1533649868909 L859.736135976299,491.15325637189903 M859.736135976299,491.15325637189903 L860.3474775733828,494.83776802780585" stroke="black"  stroke-width="4"  fill="red"/>
<path d="M633.1055803985354,607.2518937938001 L632.9380318654294,612.33635157782 M632.701476232862,609.5087440997216 L632.9380318654294,612.33635157782 M632.701476232862,609.5087440997216 L632.5344659695056,614.5835283547415 M632.5344659695056,614.5835283547415 L632.2986577719352,611.758353388235 M632.6322720952041,601.6078217252499 L632.2986577719352,611.758353388235 M633.1055803985354,607.2518937938001 L632.6322720952041,601.6078217252499 M621.5324064936678,607.2519059962589 L633.1055803985354,607.2518937938001 M632.9380318654294,612.33635157782 L631.2443146090993,612.336357685327 M631.3619668809976,608.7418171819179 L631.2443146090993,612.336357685327 M623.1800864868159,608.7418171819179 L631.3619668809976,608.7418171819179 M623.0662916664552,612.336357685327 L623.1800864868159,608.7418171819179 M623.0662916664552,612.336357685327 L621.3725743865922,612.336363792834 M621.3725743865922,612.336363792834 L621.5324064936678,607.2519059962589 M631.0093545240807,609.5087501957271 L632.701476232862,609.5087440997216 M631.0093545240807,609.5087501957271 L631.2443146090993,612.336357685327 M621.146887960377,609.5087440997216 L622.8390355995328,609.5087501957271 M622.8390355995328,609.5087501957271 L622.7255620677977,613.0978527274499 M622.7255620677977,613.0978527274499 L630.8920344321467,613.0978527274499 M630.8920344321467,613.0978527274499 L631.0093545240807,609.5087501957271 M620.98756935062,614.5835283547415 L632.5344659695056,614.5835283547415 M621.146887960377,609.5087440997216 L620.98756935062,614.5835283547415 M620.98756935062,614.5835283547415 L620.762633255765,611.7583472974513 M632.2986577719352,611.758353388235 L620.762633255765,611.7583472974513 M621.0808829948096,601.6078156469829 L621.5324064936678,607.2519059962589 M621.0808829948096,601.6078156469829 L632.6322720952041,601.6078217252499 M621.3725743865922,612.336363792834 L621.146887960377,609.5087440997216 M620.762633255765,611.7583472974513 L621.0808829948096,601.6078156469829 M623.0662916664552,612.336357685327 L622.8390355995328,609.5087501957271 M622.8585023066198,604.7474380250785 L623.1800864868159,608.7418171819179 M622.7255620677977,613.0978527274499 L622.6316254006647,611.9273259873859 M622.6316254006647,611.9273259873859 L622.8585023066198,604.7474380250785 M622.8585023066198,604.7474380250785 L631.0294815421507,604.7474380250785 M631.3619668809976,608.7418171819179 L631.0294815421507,604.7474380250785 M630.8920344321467,613.0978527274499 L630.7949138936209,611.9273259873859 M631.0294815421507,604.7474380250785 L630.7949138936209,611.9273259873859 M630.7949138936209,611.9273259873859 L622.6316254006647,611.9273259873859" stroke="black"  stroke-width="4"  fill="red"/>
<path d="M166.20020149987127,181.82996898165254 L166.3235641159658,186.43638648828642 M166.14905112393038,188.52214504870267 L166.3235641159658,186.43638648828642 M166.14905112393038,188.52214504870267 L166.27247225490603,193.12582468533583 M166.27247225490603,193.12582468533583 L166.09788757474084,195.21749186662998 M165.8505033929774,185.99978549142634 L166.09788757474084,195.21749186662998 M166.20020149987127,181.82996898165254 L165.8505033929774,185.99978549142634 M176.13029782430533,181.82995999807792 L166.20020149987127,181.82996898165254 M166.3235641159658,186.43638648828642 L167.77695750633666,186.4363819910261 M167.69033010184225,183.17970954401596 L167.77695750633666,186.4363819910261 M174.7107984545181,183.17970954401596 L167.69033010184225,183.17970954401596 M174.79458561624224,186.4363819910261 L174.7107984545181,183.17970954401596 M174.79458561624224,186.4363819910261 L176.24797898928458,186.4363774937658 M176.24797898928458,186.4363774937658 L176.13029782430533,181.82995999807792 M167.6036214565359,188.52214054415583 L166.14905112393038,188.52214504870267 M167.6036214565359,188.52214054415583 L167.77695750633666,186.4363819910261 M176.0815233939193,188.52214504870267 L174.6269323642473,188.52214054415583 M174.6269323642473,188.52214054415583 L174.71078738037423,191.7779688283449 M174.71078738037423,191.7779688283449 L167.6903190154354,191.7779688283449 M167.6903190154354,191.7779688283449 L167.6036214565359,188.52214054415583 M176.19926036772247,193.12582468533583 L166.27247225490603,193.12582468533583 M176.0815233939193,188.52214504870267 L176.19926036772247,193.12582468533583 M176.19926036772247,193.12582468533583 L176.03270510179243,195.21749638394806 M166.09788757474084,195.21749186662998 L176.03270510179243,195.21749638394806 M175.79671417935927,185.99978999779535 L176.13029782430533,181.82995999807792 M175.79671417935927,185.99978999779535 L165.8505033929774,185.99978549142634 M176.24797898928458,186.4363774937658 L176.0815233939193,188.52214504870267 M176.03270510179243,195.21749638394806 L175.79671417935927,185.99978999779535 M174.79458561624224,186.4363819910261 L174.6269323642473,188.52214054415583 M174.47344417904608,186.12787375456264 L174.7107984545181,183.17970954401596 M174.71078738037423,191.7779688283449 L174.64133474597,192.64365306736704 M174.64133474597,192.64365306736704 L174.47344417904608,186.12787375456264 M174.47344417904608,186.12787375456264 L167.44492991872715,186.12787375456264 M167.69033010184225,183.17970954401596 L167.44492991872715,186.12787375456264 M167.6903190154354,191.7779688283449 L167.61851169130955,192.64365306736704 M167.44492991872715,186.12787375456264 L167.61851169130955,192.64365306736704 M167.61851169130955,192.64365306736704 L174.64133474597,192.64365306736704" stroke="black"  stroke-width="4"  fill="red"/>
<path d="M-70.46427187438405,281.856894400313 L-70.19544162015688,286.5829616550991 M-65.04027464489019,286.5829665088794 L-70.19544162015688,286.5829616550991 M-65.04027464489019,286.5829665088794 L-64.77482614243087,291.3034188482431 M-64.77482614243087,291.3034188482431 L-59.62274214486939,291.3034139887885 M-60.14782655486289,281.85689440031285 L-59.62274214486939,291.3034139887885 M-70.46427187438405,281.856894400313 L-60.14782655486289,281.85689440031285 M-69.70470915428962,277.3711439136182 L-70.46427187438405,281.856894400313 M-70.19544162015688,286.5829616550991 L-70.08417135093089,285.92432506029115 M-70.27413574791274,282.5836296095898 L-70.08417135093089,285.92432506029115 M-69.7372460454277,279.4106300528577 L-70.27413574791274,282.5836296095898 M-69.54773248024009,282.7486915278184 L-69.7372460454277,279.4106300528577 M-69.54773248024009,282.7486915278184 L-69.43678081487809,282.09194090712174 M-69.43678081487809,282.09194090712174 L-69.70470915428962,277.3711439136182 M-64.93029390712564,285.92432020890004 L-65.04027464489019,286.5829665088794 M-64.93029390712564,285.92432020890004 L-70.08417135093089,285.92432506029115 M-64.29028669421757,282.09193606962066 L-64.39997308922489,282.74868668793823 M-64.39997308922489,282.74868668793823 L-64.21277810991415,286.0839474062178 M-64.21277810991415,286.0839474062178 L-64.74265379887095,289.2622093630265 M-64.74265379887095,289.2622093630265 L-64.93029390712564,285.92432020890004 M-64.02572822197715,286.8071338056319 L-64.77482614243087,291.3034188482431 M-64.29028669421757,282.09193606962066 L-64.02572822197715,286.8071338056319 M-64.02572822197715,286.8071338056319 L-58.88229809887412,286.8071338056319 M-59.62274214486939,291.3034139887885 L-58.88229809887412,286.8071338056319 M-59.40562143034998,277.3711390817988 L-69.70470915428962,277.3711439136182 M-59.40562143034998,277.3711390817988 L-60.14782655486289,281.85689440031285 M-69.43678081487809,282.09194090712174 L-64.29028669421757,282.09193606962066 M-58.88229809887412,286.8071338056319 L-59.40562143034998,277.3711390817988 M-69.54773248024009,282.7486915278184 L-64.39997308922489,282.74868668793823 M-62.45415151471974,279.4106300528577 L-69.7372460454277,279.4106300528577 M-64.21277810991415,286.0839474062178 L-62.08139416914446,286.0839522501061 M-62.08139416914446,286.0839522501061 L-62.45415151471974,279.4106300528577 M-62.45415151471974,279.4106300528577 L-62.982381705874445,282.5836296095898 M-70.27413574791274,282.5836296095898 L-62.982381705874445,282.5836296095898 M-64.74265379887095,289.2622093630265 L-62.60873779813039,289.26221421843076 M-62.982381705874445,282.5836296095898 L-62.60873779813039,289.26221421843076 M-62.60873779813039,289.26221421843076 L-62.08139416914446,286.0839522501061" stroke="black"  stroke-width="4"  fill="red"/>
<path d="" stroke="black"  stroke-width="4"  fill="red"/>
<path d="" stroke="black"  stroke-width="4"  fill="red"/>
<path d="" stroke="black"  stroke-width="4"  fill="red"/>
<path d="" stroke="black"  stroke-width="4"  fill="red"/>
<path d="M374.26109530377704,383.12473914693305 L374.2703873115345,392.78127687100744 M381.81461485845546,379.7142914558799 L381.81461485845546,389.36315495502265 M374.26109530377704,383.12473914693305 L381.81461485845546,379.7142914558799 M374.2703873115345,392.78127687100744 L381.81461485845546,389.36315495502265 M389.3681344131338,383.12473914693305 L389.35884240537644,392.78127687100744 M381.81461485845546,379.7142914558799 L389.3681344131338,383.12473914693305 M381.81461485845546,389.36315495502265 L389.35884240537644,392.78127687100744 M381.81461485845546,386.54359829850614 L381.81461485845546,396.20781879160114 M389.3681344131338,383.12473914693305 L381.81461485845546,386.54359829850614 M389.35884240537644,392.78127687100744 L381.81461485845546,396.20781879160114 M381.81461485845546,386.54359829850614 L374.26109530377704,383.12473914693305 M381.81461485845546,396.20781879160114 L374.2703873115345,392.78127687100744" stroke="black"  stroke-width="4"  fill="red"/>
<path d="" stroke="black"  stroke-width="4"  fill="red"/>
<path d="M862.7725895349873,485.9916364079504 L862.5551158357259,489.49457155168705 M862.8627287270352,491.3365995772666 L862.5551158357259,489.49457155168705 M862.8627287270352,491.3365995772666 L863.0804808894883,487.83225580106034 M863.0804808894883,487.83225580106034 L862.7725895349873,485.9916364079504 M862.7725895349873,485.9916364079504 L868.32116454945,485.99163079441945 M868.1011819637762,489.4945659338583 L868.32116454945,485.99163079441945 M862.5551158357259,489.49457155168705 L868.1011819637762,489.4945659338583 M868.1011819637762,489.4945659338583 L868.4123436327349,491.3365939522462 M868.4123436327349,491.3365939522462 L862.8627287270352,491.3365995772666 M868.4123436327349,491.3365939522462 L868.6326078940916,487.83225018033977 M868.6326078940916,487.83225018033977 L863.0804808894883,487.83225580106034 M868.6326078940916,487.83225018033977 L868.32116454945,485.99163079441945" stroke="black"  stroke-width="4"  fill="red"/>
<path d="M862.6824730848344,497.0516000232958 L863.2984192320253,487.14261856865977 M863.2984192320253,487.14261856865977 L874.4077278881354,487.14261856865977 M874.4077278881354,487.14261856865977 L873.7775699734823,497.0516000232958 M873.7775699734823,497.0516000232958 L862.6824730848344,497.0516000232958 M862.6824730848344,497.0516000232958 L863.1178480322374,499.66483630454144 M863.1178480322374,499.66483630454144 L874.22297933681,499.66484194881684 M874.22297933681,499.66484194881684 L873.7775699734823,497.0516000232958 M863.2984192320253,487.14261856865977 L863.7349107480463,489.75022215642645 M863.7349107480463,489.75022215642645 L863.1178480322374,499.66483630454144 M874.4077278881354,487.14261856865977 L874.854279569852,489.75022778854236 M874.854279569852,489.75022778854236 L863.7349107480463,489.75022215642645 M874.22297933681,499.66484194881684 L874.854279569852,489.75022778854236" stroke="black"  stroke-width="4"  fill="red"/>
<path d="" stroke="black"  stroke-width="4"  fill="red"/>
<path d="M627.0397006329533,605.9162650027679 L626.9241950618068,609.5087501957271 M622.8390355995328,609.5087501957271 L626.9241950618068,609.5087501957271 M622.8390355995328,609.5087501957271 L622.9526160779249,605.9162650027679 M622.9526160779249,605.9162650027679 L627.0397006329533,605.9162650027679 M627.0397006329533,605.9162650027679 L627.2710266839067,608.7418171819179 M627.1553031377772,612.336357685327 L627.2710266839067,608.7418171819179 M626.9241950618068,609.5087501957271 L627.1553031377772,612.336357685327 M627.1553031377772,612.336357685327 L623.0662916664552,612.336357685327 M623.0662916664552,612.336357685327 L622.8390355995328,609.5087501957271 M623.0662916664552,612.336357685327 L623.1800864868159,608.7418171819179 M623.1800864868159,608.7418171819179 L622.9526160779249,605.9162650027679 M623.1800864868159,608.7418171819179 L627.2710266839067,608.7418171819179" stroke="black"  stroke-width="4"  fill="red"/>
<path d="M620.98756935062,614.5835283547415 L621.3064189631992,604.4271944769489 M621.3064189631992,604.4271944769489 L621.7587949171802,610.0819408978202 M621.7587949171802,610.0819408978202 L621.4387404220778,620.2498907802574 M621.4387404220778,620.2498907802574 L620.98756935062,614.5835283547415 M620.98756935062,614.5835283547415 L615.2141339739451,614.5835344569982 M615.2141339739451,614.5835344569982 L615.6544261596083,620.2498907802574 M615.6544261596083,620.2498907802574 L621.4387404220778,620.2498907802574 M621.3064189631992,604.4271944769489 L615.5252868237961,604.4272005666808 M615.5252868237961,604.4272005666808 L615.2141339739451,614.5835344569982 M621.7587949171802,610.0819408978202 L615.9667548225291,610.0819408978202 M615.9667548225291,610.0819408978202 L615.5252868237961,604.4272005666808 M615.6544261596083,620.2498907802574 L615.9667548225291,610.0819408978202" stroke="black"  stroke-width="4"  fill="red"/>
<path d="" stroke="black"  stroke-width="4"  fill="red"/>
<path d="M171.02993153925928,185.26367466389286 L171.11527691039157,188.52214054415583 M174.6269323642473,188.52214054415583 L171.11527691039157,188.52214054415583 M174.6269323642473,188.52214054415583 L174.5430094158949,185.26367466389286 M174.5430094158949,185.26367466389286 L171.02993153925928,185.26367466389286 M171.02993153925928,185.26367466389286 L171.20056427818025,183.17970954401596 M171.28577156128947,186.4363819910261 L171.20056427818025,183.17970954401596 M171.11527691039157,188.52214054415583 L171.28577156128947,186.4363819910261 M171.28577156128947,186.4363819910261 L174.79458561624224,186.4363819910261 M174.79458561624224,186.4363819910261 L174.6269323642473,188.52214054415583 M174.79458561624224,186.4363819910261 L174.7107984545181,183.17970954401596 M174.7107984545181,183.17970954401596 L174.5430094158949,185.26367466389286 M174.7107984545181,183.17970954401596 L171.20056427818025,183.17970954401596" stroke="black"  stroke-width="4"  fill="red"/>
<path d="M176.19926036772247,193.12582468533583 L175.96365150862496,183.91319018488855 M175.96365150862496,183.91319018488855 L176.29669521791604,179.75010921974263 M176.29669521791604,179.75010921974263 L176.53154275134125,188.95261294302384 M176.53154275134125,188.95261294302384 L176.19926036772247,193.12582468533583 M176.19926036772247,193.12582468533583 L181.16264406397232,193.12582017532657 M181.16264406397232,193.12582017532657 L181.48689438398574,188.95261294302384 M181.48689438398574,188.95261294302384 L176.53154275134125,188.95261294302384 M175.96365150862496,183.91319018488855 L180.93272260723592,183.91318568581926 M180.93272260723592,183.91318568581926 L181.16264406397232,193.12582017532657 M176.29669521791604,179.75010921974263 L181.25771586211732,179.75010921974263 M181.25771586211732,179.75010921974263 L180.93272260723592,183.91318568581926 M181.48689438398574,188.95261294302384 L181.25771586211732,179.75010921974263" stroke="black"  stroke-width="4"  fill="red"/>
<path d="" stroke="black"  stroke-width="4"  fill="red"/>
<path d="M-64.85255084268346,280.9961823854587 L-64.66497602173263,284.33556045796297 M-64.39997308922489,282.74868668793823 L-64.66497602173263,284.33556045796297 M-64.39997308922489,282.74868668793823 L-64.58732526369386,279.41062521699445 M-64.58732526369386,279.41062521699445 L-64.85255084268346,280.9961823854587 M-64.85255084268346,280.9961823854587 L-70.00553140264736,280.99618722706975 M-69.8157926224136,284.3355653035935 L-70.00553140264736,280.99618722706975 M-64.66497602173263,284.33556045796297 L-69.8157926224136,284.3355653035935 M-69.8157926224136,284.3355653035935 L-69.54773248024009,282.7486915278184 M-69.54773248024009,282.7486915278184 L-64.39997308922489,282.74868668793823 M-69.54773248024009,282.7486915278184 L-69.7372460454277,279.4106300528577 M-69.7372460454277,279.4106300528577 L-64.58732526369386,279.41062521699445 M-69.7372460454277,279.4106300528577 L-70.00553140264736,280.99618722706975" stroke="black"  stroke-width="4"  fill="red"/>
<path d="M-64.02572822197715,286.8071338056319 L-64.55515932709085,277.3711390817988 M-64.55515932709085,277.3711390817988 L-74.85427956985205,277.3711390817988 M-74.85427956985205,277.3711390817988 L-74.31263286474211,286.8071338056319 M-74.31263286474211,286.8071338056319 L-64.02572822197715,286.8071338056319 M-64.02572822197715,286.8071338056319 L-63.65212247165783,284.5646526811654 M-63.65212247165783,284.5646526811654 L-73.9303949695024,284.564647846113 M-73.9303949695024,284.564647846113 L-74.31263286474211,286.8071338056319 M-64.55515932709085,277.3711390817988 L-64.18066611614728,275.1339138331788 M-64.18066611614728,275.1339138331788 L-63.65212247165783,284.5646526811654 M-74.85427956985205,277.3711390817988 L-74.47113372243359,275.13390900946354 M-74.47113372243359,275.13390900946354 L-64.18066611614728,275.1339138331788 M-73.9303949695024,284.564647846113 L-74.47113372243359,275.13390900946354" stroke="black"  stroke-width="4"  fill="red"/></svg>