<svg viewBox="0 0 800 800" xmlns="http://www.w3.org/2000/svg"><path d="M850.6035447953038,496.8922057038302 L850.3064210512545,502.331186110535 M844.181554297042,502.33117980607284 L850.3064210512545,502.331186110535 M844.181554297042,502.33117980607284 L843.8886933444757,507.7632589286708 M843.8886933444757,507.7632589286708 L837.7677405782082,507.76326523965025 M838.3460580858166,496.89220570383003 L837.7677405782082,507.76326523965025 M850.6035447953038,496.8922057038302 L838.3460580858166,496.89220570383003 M851.4459577114745,502.7397405868548 L850.6035447953038,496.8922057038302 M850.3064210512545,502.331186110535 L850.3700235603794,502.77377541692584 M850.6221842073124,498.15873036579814 L850.3700235603794,502.77377541692584 M851.3368806726655,503.12131309953435 L850.6221842073124,498.15873036579814 M851.0839495728504,507.74072365946364 L851.3368806726655,503.12131309953435 M851.0839495728504,507.74072365946364 L851.1477637503198,508.18478575684355 M851.1477637503198,508.18478575684355 L851.4459577114745,502.7397405868548 M844.2443520091849,502.7737817231031 L844.181554297042,502.33117980607284 M844.2443520091849,502.7737817231031 L850.3700235603794,502.77377541692584 M845.0119140379189,508.1847889204253 L844.9489294803168,507.7407299849035 M844.9489294803168,507.7407299849035 L844.699576040114,512.3552246563243 M844.699576040114,512.3552246563243 L843.9957577151802,507.3839231122569 M843.9957577151802,507.3839231122569 L844.2443520091849,502.7737817231031 M844.7179988712343,513.6229127008273 L843.8886933444757,507.7632589286708 M845.0119140379189,508.1847889204253 L844.7179988712343,513.6229127008273 M844.7179988712343,513.6229127008273 L838.5860427224436,513.6229190345173 M837.7677405782082,507.76326523965025 L838.5860427224436,513.6229190345173 M839.1664426679301,502.7397500677779 L851.4459577114745,502.7397405868548 M839.1664426679301,502.7397500677779 L838.3460580858166,496.89220570383003 M851.1477637503198,508.18478575684355 L845.0119140379189,508.1847889204253 M838.5860427224436,513.6229190345173 L839.1664426679301,502.7397500677779 M851.0839495728504,507.74072365946364 L844.9489294803168,507.7407299849035 M840.9197728782349,503.12131309953435 L851.3368806726655,503.12131309953435 M844.699576040114,512.3552246563243 L840.4254152441297,512.3552183253453 M840.4254152441297,512.3552183253453 L840.9197728782349,503.12131309953435 M840.9197728782349,503.12131309953435 L840.2209585565561,498.15873036579814 M850.6221842073124,498.15873036579814 L840.2209585565561,498.15873036579814 M843.9957577151802,507.3839231122569 L839.728106379179,507.3839168005474 M840.2209585565561,498.15873036579814 L839.728106379179,507.3839168005474 M839.728106379179,507.3839168005474 L840.4254152441297,512.3552183253453" stroke="black"  stroke-width="4"  fill="red"/>
<path d="M657.341075791027,602.1732045050129 L657.1609917400915,607.7193292584006 M656.9067243874525,604.6083755905468 L657.1609917400915,607.7193292584006 M656.9067243874525,604.6083755905468 L656.7272090437825,610.1441453949412 M656.7272090437825,610.1441453949412 L656.4737505795731,607.0358565211204 M656.8323520869773,595.9632495047838 L656.4737505795731,607.0358565211204 M657.341075791027,602.1732045050129 L656.8323520869773,595.9632495047838 M644.6863915483581,602.1732179304695 L657.341075791027,602.1732045050129 M657.1609917400915,607.7193292584006 L656.203211836897,607.7193359778223 M656.3554691784472,603.0137892961559 L656.203211836897,607.7193359778223 M645.6186676390291,603.0137892961559 L656.3554691784472,603.0137892961559 M645.4723811736183,607.7193359778223 L645.6186676390291,603.0137892961559 M645.4723811736183,607.7193359778223 L644.5146012451298,607.7193426972439 M644.5146012451298,607.7193426972439 L644.6863915483581,602.1732179304695 M655.9498379315195,604.6083789440382 L656.9067243874525,604.6083755905468 M655.9498379315195,604.6083789440382 L656.203211836897,607.7193359778223 M644.2720227006411,604.6083722370554 L645.228944034425,604.6083789440382 M645.228944034425,604.6083789440382 L645.0830884990149,609.3061398457003 M645.0830884990149,609.3061398457003 L655.7980291092589,609.3061398457003 M655.7980291092589,609.3061398457003 L655.9498379315195,604.6083789440382 M644.1007749278264,610.1441420381168 L656.7272090437825,610.1441453949412 M644.2720227006411,604.6083722370554 L644.1007749278264,610.1441420381168 M644.1007749278264,610.1441420381168 L643.8589901083154,607.0358531705001 M656.4737505795731,607.0358565211204 L643.8589901083154,607.0358531705001 M644.2010762406924,595.9632461608367 L644.6863915483581,602.1732179304695 M644.2010762406924,595.9632461608367 L656.8323520869773,595.9632495047838 M644.5146012451298,607.7193426972439 L644.2720227006411,604.6083722370554 M643.8589901083154,607.0358531705001 L644.2010762406924,595.9632461608367 M645.4723811736183,607.7193359778223 L645.228944034425,604.6083789440382 M645.2053247984425,597.7421829143461 L645.6186676390291,603.0137892961559 M645.0830884990149,609.3061398457003 L644.9138301057357,607.1392004557576 M644.9138301057357,607.1392004557576 L645.2053247984425,597.7421829143461 M645.2053247984425,597.7421829143461 L655.9252552015099,597.7421829143461 M656.3554691784472,603.0137892961559 L655.9252552015099,597.7421829143461 M655.7980291092589,609.3061398457003 L655.6218627662437,607.1392004557576 M655.9252552015099,597.7421829143461 L655.6218627662437,607.1392004557576 M655.6218627662437,607.1392004557576 L644.9138301057357,607.1392004557576" stroke="black"  stroke-width="4"  fill="red"/>
<path d="M141.88699340615574,186.00671866266174 L142.02517152964583,191.10400202146337 M141.82970608596327,193.49537875598543 L142.02517152964583,191.10400202146337 M141.82970608596327,193.49537875598543 L141.96794997402685,198.5895741827946 M141.96794997402685,198.5895741827946 L141.77238529688213,200.9876068578372 M141.4952884064303,190.7878229775045 L141.77238529688213,200.9876068578372 M141.88699340615574,186.00671866266174 L141.4952884064303,190.7878229775045 M152.97148404549384,186.00670836217415 L141.88699340615574,186.00671866266174 M142.02517152964583,191.10400202146337 L142.8641790711531,191.1039968652455 M142.74735088574664,186.77921128408258 L142.8641790711531,191.1039968652455 M152.15204418133658,186.77921128408258 L142.74735088574664,186.77921128408258 M152.26429086927615,191.1039968652455 L152.15204418133658,186.77921128408258 M152.26429086927615,191.1039968652455 L153.10329839137393,191.10399170902775 M153.10329839137393,191.10399170902775 L152.97148404549384,186.00670836217415 M142.66938919680274,193.49537617368475 L141.82970608596327,193.49537875598543 M142.66938919680274,193.49537617368475 L142.8641790711531,191.1039968652455 M152.91685174792622,193.49538133828565 L152.07713934440716,193.49537617368475 M152.07713934440716,193.49537617368475 L152.1894606154624,197.81835609203102 M152.1894606154624,197.81835609203102 L142.7862950092957,197.81835609203102 M142.7862950092957,197.81835609203102 L142.66938919680274,193.49537617368475 M153.04872882060954,198.5895767680757 L141.96794997402685,198.5895741827946 M152.91685174792622,193.49538133828565 L153.04872882060954,198.5895767680757 M153.04872882060954,198.5895767680757 L152.86217031386477,200.98760944732254 M141.77238529688213,200.9876068578372 L152.86217031386477,200.98760944732254 M152.59783510626875,190.78782556101504 L152.97148404549384,186.00670836217415 M152.59783510626875,190.78782556101504 L141.4952884064303,190.7878229775045 M153.10329839137393,191.10399170902775 L152.91685174792622,193.49538133828565 M152.86217031386477,200.98760944732254 L152.59783510626875,190.78782556101504 M152.26429086927615,191.1039968652455 L152.07713934440716,193.49537617368475 M151.83396744153941,190.83583258430855 L152.15204418133658,186.77921128408258 M152.1894606154624,197.81835609203102 L152.0589727534073,199.48922131400963 M152.0589727534073,199.48922131400963 L151.83396744153941,190.83583258430855 M151.83396744153941,190.83583258430855 L142.41629142187622,190.83583258430855 M142.74735088574664,186.77921128408258 L142.41629142187622,190.83583258430855 M142.7862950092957,197.81835609203102 L142.6504806240244,199.48922131400963 M142.41629142187622,190.83583258430855 L142.6504806240244,199.48922131400963 M142.6504806240244,199.48922131400963 L152.0589727534073,199.48922131400963" stroke="black"  stroke-width="4"  fill="red"/>
<path d="M-53.04621860935936,271.8360441594056 L-52.78882417936882,277.0314422151761 M-47.0880089478656,277.0314476768897 L-52.78882417936882,277.0314422151761 M-47.0880089478656,277.0314476768897 L-46.83428501438311,282.22070966817597 M-46.83428501438311,282.22070966817597 L-41.13685932292202,282.2207042003358 M-41.63787025468963,271.83604415940573 L-41.13685932292202,282.2207042003358 M-53.04621860935936,271.8360441594056 L-41.63787025468963,271.83604415940573 M-52.318959117615066,266.78816598748284 L-53.04621860935936,271.8360441594056 M-52.78882417936882,277.0314422151761 L-52.733714447241766,276.64811666089366 M-52.95204467697806,272.2404628362579 L-52.733714447241766,276.64811666089366 M-52.33507528255734,267.9564600288806 L-52.95204467697806,272.2404628362579 M-52.11736304636861,272.36001753874956 L-52.33507528255734,267.9564600288806 M-52.11736304636861,272.36001753874956 L-52.062423146396895,271.9778734032188 M-52.062423146396895,271.9778734032188 L-52.318959117615066,266.78816598748284 M-47.03364374650613,276.6481112005625 L-47.0880089478656,277.0314476768897 M-47.03364374650613,276.6481112005625 L-52.733714447241766,276.64811666089366 M-46.37114907544259,271.9778706814671 L-46.42536319569166,272.36001209387 M-46.42536319569166,272.36001209387 L-46.21071373074619,276.7592262132796 M-46.21071373074619,276.7592262132796 L-46.818385287525075,281.05141134327556 M-46.818385287525075,281.05141134327556 L-47.03364374650613,276.6481112005625 M-46.11827084378751,277.16145896509744 L-46.83428501438311,282.22070966817597 M-46.37114907544259,271.9778706814671 L-46.11827084378751,277.16145896509744 M-46.11827084378751,277.16145896509744 L-40.430345526219696,277.16145351547715 M-41.13685932292202,282.2207042003358 L-40.430345526219696,277.16145351547715 M-40.929686017178426,266.7881578314303 L-52.318959117615066,266.78816598748284 M-40.929686017178426,266.7881578314303 L-41.63787025468963,271.83604415940573 M-52.062423146396895,271.9778734032188 L-46.37114907544259,271.9778706814671 M-40.430345526219696,277.16145351547715 L-40.929686017178426,266.7881578314303 M-52.11736304636861,272.36001753874956 L-46.42536319569166,272.36001209387 M-42.6705840557608,267.9564600288806 L-52.33507528255734,267.9564600288806 M-46.21071373074619,276.7592262132796 L-42.24504564814487,276.7592316633513 M-42.24504564814487,276.7592316633513 L-42.6705840557608,267.9564600288806 M-42.6705840557608,267.9564600288806 L-43.27384301919432,272.2404628362579 M-52.95204467697806,272.2404628362579 L-43.27384301919432,272.2404628362579 M-46.818385287525075,281.05141134327556 L-42.847096989630586,281.05141680880604 M-43.27384301919432,272.2404628362579 L-42.847096989630586,281.05141680880604 M-42.847096989630586,281.05141680880604 L-42.24504564814487,276.7592316633513" stroke="black"  stroke-width="4"  fill="red"/>
<path d="" stroke="black"  stroke-width="4"  fill="red"/>
<path d="" stroke="black"  stroke-width="4"  fill="red"/>
<path d="" stroke="black"  stroke-width="4"  fill="red"/>
<path d="" stroke="black"  stroke-width="4"  fill="red"/>
<path d="M374.2157891973139,385.64187168059294 L374.225999723889,396.25296216069614 M382.56702992328854,381.8058740678699 L382.56702992328854,392.40869119162835 M374.2157891973139,385.64187168059294 L382.56702992328854,381.8058740678699 M374.225999723889,396.25296216069614 L382.56702992328854,392.40869119162835 M390.91827064926315,385.64187168059294 L390.9080601226881,396.25296216069614 M382.56702992328854,381.8058740678699 L390.91827064926315,385.64187168059294 M382.56702992328854,392.40869119162835 L390.9080601226881,396.25296216069614 M382.56702992328854,389.48727234298093 L382.56702992328854,400.1066449242193 M390.91827064926315,385.64187168059294 L382.56702992328854,389.48727234298093 M390.9080601226881,396.25296216069614 L382.56702992328854,400.1066449242193 M382.56702992328854,389.48727234298093 L374.2157891973139,385.64187168059294 M382.56702992328854,400.1066449242193 L374.225999723889,396.25296216069614" stroke="black"  stroke-width="4"  fill="red"/>
<path d="" stroke="black"  stroke-width="4"  fill="red"/>
<path d="M844.84561059468,500.6381350851459 L844.5963721313324,505.2553622525092 M844.9489294803168,507.7407299849035 L844.5963721313324,505.2553622525092 M844.9489294803168,507.7407299849035 L845.1985485606782,503.1213194194201 M845.1985485606782,503.1213194194201 L844.84561059468,500.6381350851459 M844.84561059468,500.6381350851459 L850.9792598218185,500.63812877489954 M850.726714389155,505.25535593671157 L850.9792598218185,500.63812877489954 M844.5963721313324,505.2553622525092 L850.726714389155,505.25535593671157 M850.726714389155,505.25535593671157 L851.0839495728504,507.74072365946364 M851.0839495728504,507.74072365946364 L844.9489294803168,507.7407299849035 M851.0839495728504,507.74072365946364 L851.3368806726655,503.12131309953435 M851.3368806726655,503.12131309953435 L845.1985485606782,503.1213194194201 M851.3368806726655,503.12131309953435 L850.9792598218185,500.63812877489954" stroke="black"  stroke-width="4"  fill="red"/>
<path d="M844.7179988712343,513.6229127008273 L845.3062032862575,502.7397437471624 M845.3062032862575,502.7397437471624 L857.5857466313462,502.73974690747013 M857.5857466313462,502.73974690747013 L856.9819332463096,513.6229158676725 M856.9819332463096,513.6229158676725 L844.7179988712343,513.6229127008273 M844.7179988712343,513.6229127008273 L845.133753518008,516.5606421787177 M845.133753518008,516.5606421787177 L857.4087209767811,516.5606453512635 M857.4087209767811,516.5606453512635 L856.9819332463096,513.6229158676725 M845.3062032862575,502.7397437471624 L845.7230174072866,505.6714122306182 M845.7230174072866,505.6714122306182 L845.133753518008,516.5606421787177 M857.5857466313462,502.73974690747013 L858.013621951411,505.6714153966222 M858.013621951411,505.6714153966222 L845.7230174072866,505.6714122306182 M857.4087209767811,516.5606453512635 L858.013621951411,505.6714153966222" stroke="black"  stroke-width="4"  fill="red"/>
<path d="" stroke="black"  stroke-width="4"  fill="red"/>
<path d="M650.7383864932209,599.905462625494 L650.5893909829723,604.6083789440382 M645.228944034425,604.6083789440382 L650.5893909829723,604.6083789440382 M645.228944034425,604.6083789440382 L645.3749596346203,599.905462625494 M645.3749596346203,599.905462625494 L650.7383864932209,599.905462625494 M650.7383864932209,599.905462625494 L650.9870684087381,603.0137892961559 M650.8377965052576,607.7193359778223 L650.9870684087381,603.0137892961559 M650.5893909829723,604.6083789440382 L650.8377965052576,607.7193359778223 M650.8377965052576,607.7193359778223 L645.4723811736183,607.7193359778223 M645.4723811736183,607.7193359778223 L645.228944034425,604.6083789440382 M645.4723811736183,607.7193359778223 L645.6186676390291,603.0137892961559 M645.6186676390291,603.0137892961559 L645.3749596346203,599.905462625494 M645.6186676390291,603.0137892961559 L650.9870684087381,603.0137892961559" stroke="black"  stroke-width="4"  fill="red"/>
<path d="M644.1007749278264,610.1441420381168 L644.4434948805533,599.065348233426 M644.4434948805533,599.065348233426 L644.929717380187,605.2868410887572 M644.929717380187,605.2868410887572 L644.5857244437839,616.3780202640456 M644.5857244437839,616.3780202640456 L644.1007749278264,610.1441420381168 M644.1007749278264,610.1441420381168 L637.7875687339266,610.1441487517656 M637.7875687339266,610.1441487517656 L638.2608187077938,616.3780236333303 M638.2608187077938,616.3780236333303 L644.5857244437839,616.3780202640456 M644.4434948805533,599.065348233426 L638.1220157138738,599.06535493372 M638.1220157138738,599.06535493372 L637.7875687339266,610.1441487517656 M644.929717380187,605.2868410887572 L638.5965079511626,605.286844451356 M638.5965079511626,605.286844451356 L638.1220157138738,599.06535493372 M638.2608187077938,616.3780236333303 L638.5965079511626,605.286844451356" stroke="black"  stroke-width="4"  fill="red"/>
<path d="" stroke="black"  stroke-width="4"  fill="red"/>
<path d="M147.25854056521143,189.1682411170654 L147.37326427060495,193.49537617368475 M152.07713934440716,193.49537617368475 L147.37326427060495,193.49537617368475 M152.07713934440716,193.49537617368475 L151.9647101130048,189.1682411170654 M151.9647101130048,189.1682411170654 L147.25854056521143,189.1682411170654 M147.25854056521143,189.1682411170654 L147.44969753354164,186.77921128408258 M147.56423497021467,191.1039968652455 L147.44969753354164,186.77921128408258 M147.37326427060495,193.49537617368475 L147.56423497021467,191.1039968652455 M147.56423497021467,191.1039968652455 L152.26429086927615,191.1039968652455 M152.26429086927615,191.1039968652455 L152.07713934440716,193.49537617368475 M152.26429086927615,191.1039968652455 L152.15204418133658,186.77921128408258 M152.15204418133658,186.77921128408258 L151.9647101130048,189.1682411170654 M152.15204418133658,186.77921128408258 L147.44969753354164,186.77921128408258" stroke="black"  stroke-width="4"  fill="red"/>
<path d="M153.04872882060954,198.5895767680757 L152.78482303974502,188.39532847744834 M152.78482303974502,188.39532847744834 L153.1578589344554,183.6219789376127 M153.1578589344554,183.6219789376127 L153.42090902804568,193.80516958741265 M153.42090902804568,193.80516958741265 L153.04872882060954,198.5895767680757 M153.04872882060954,198.5895767680757 L158.58910977505082,198.58957159751338 M158.58910977505082,198.58957159751338 L158.9522995532485,193.80516701050914 M158.9522995532485,193.80516701050914 L153.42090902804568,193.80516958741265 M152.78482303974502,188.39532847744834 L158.3315744607624,188.39532331882612 M158.3315744607624,188.39532331882612 L158.58910977505082,198.58957159751338 M153.1578589344554,183.6219789376127 L158.6955992631861,183.6219763666698 M158.6955992631861,183.6219763666698 L158.3315744607624,188.39532331882612 M158.9522995532485,193.80516701050914 L158.6955992631861,183.6219763666698" stroke="black"  stroke-width="4"  fill="red"/>
<path d="" stroke="black"  stroke-width="4"  fill="red"/>
<path d="M-46.94445401609147,270.0969376980119 L-46.72928799927479,274.502542669608 M-46.42536319569166,272.36001209387 L-46.72928799927479,274.502542669608 M-46.42536319569166,272.36001209387 L-46.640224586061606,267.95645458920643 M-46.640224586061606,267.95645458920643 L-46.94445401609147,270.0969376980119 M-46.94445401609147,270.0969376980119 L-52.643341320546995,270.0969431454004 M-52.42532041603545,274.50254812220504 L-52.643341320546995,270.0969431454004 M-46.72928799927479,274.502542669608 L-52.42532041603545,274.50254812220504 M-52.42532041603545,274.50254812220504 L-52.11736304636861,272.36001753874956 M-52.11736304636861,272.36001753874956 L-46.42536319569166,272.36001209387 M-52.11736304636861,272.36001753874956 L-52.33507528255734,267.9564600288806 M-52.33507528255734,267.9564600288806 L-46.640224586061606,267.95645458920643 M-52.33507528255734,267.9564600288806 L-52.643341320546995,270.0969431454004" stroke="black"  stroke-width="4"  fill="red"/>
<path d="M-46.11827084378751,277.16145896509744 L-46.62432582512133,266.78816326879866 M-46.62432582512133,266.78816326879866 L-58.01362195141098,266.78816055011436 M-58.01362195141098,266.78816055011436 L-57.49413797212361,277.161456240287 M-57.49413797212361,277.161456240287 L-46.11827084378751,277.16145896509744 M-46.11827084378751,277.16145896509744 L-45.76114371742199,274.63815959211985 M-45.76114371742199,274.63815959211985 L-57.1275342178522,274.63815687184757 M-57.1275342178522,274.63815687184757 L-57.49413797212361,277.161456240287 M-46.62432582512133,266.78816326879866 L-46.266355403818295,264.2705393044167 M-46.266355403818295,264.2705393044167 L-45.76114371742199,274.63815959211985 M-58.01362195141098,266.78816055011436 L-57.646152524374145,264.27053659026564 M-57.646152524374145,264.27053659026564 L-46.266355403818295,264.2705393044167 M-57.1275342178522,274.63815687184757 L-57.646152524374145,264.27053659026564" stroke="black"  stroke-width="4"  fill="red"/></svg>