<svg viewBox="0 0 800 800" xmlns="http://www.w3.org/2000/svg"><path d="M636.2244398278015,159.28649674771384 L633.126243903582,228.3386392332731 M644.584467539237,227.02390220459574 L636.2244398278015,159.28649674771384 M633.126243903582,228.3386392332731 L641.2764121094867,297.4919995763436 M641.2764121094867,297.4919995763436 L644.584467539237,227.02390220459574 M637.2756368199896,182.6577289042317 L637.5924055160915,185.24315314950405 M637.0521290153313,187.59746338853145 L637.2756368199896,182.6577289042317 M637.5924055160915,185.24315314950405 L637.3683320936102,190.18682049824645 M637.3683320936102,190.18682049824645 L637.0521290153313,187.59746338853145 M635.3325124204478,225.6026212240765 L635.6443806927355,228.22186346296516 M635.1124605031403,230.46597731995172 L635.3325124204478,225.6026212240765 M635.6443806927355,228.22186346296516 L635.4237762309226,233.08899613213748 M635.4237762309226,233.08899613213748 L635.1124605031403,230.46597731995172 M642.2116056172472,229.84782378476302 L641.8830644519626,227.1574313831171 M642.4444319831227,224.84464671679956 L642.2116056172472,229.84782378476302 M641.8830644519626,227.1574313831171 L642.1152917584443,222.15824782558144 M642.1152917584443,222.15824782558144 L642.4444319831227,224.84464671679956 M638.8051310026922,225.9518412408917 L638.8299083608467,226.22703675333162 M638.8299083608467,226.22703675333162 L638.8485898317051,226.58773182809279 M638.8485898317051,226.58773182809279 L638.8600853659,227.01288887650907 M638.8600853659,227.01288887650907 L638.8637362016839,227.47781884762043 M638.8637362016839,227.47781884762043 L638.8593365098773,227.9554811744846 M638.8593365098773,227.9554811744846 L638.8471252345087,228.41799023408856 M638.8471252345087,228.41799023408856 L638.8278203422597,228.8384795949834 M638.8278203422597,228.8384795949834 L638.8025450644802,229.1925278967207 M638.8025450644802,229.1925278967207 L638.7727664426434,229.45948474744722 M638.7727664426434,229.45948474744722 L638.7402365947821,229.62390800121898 M638.7402365947821,229.62390800121898 L638.706840249514,229.67626096349971 M638.706840249514,229.67626096349971 L638.6745030707734,229.61357860306225 M638.6745030707734,229.61357860306225 L638.6451100874303,229.43948307613138 M638.6451100874303,229.43948307613138 L638.6203650620666,229.16417577809062 M638.6203650620666,229.16417577809062 L638.6017174161468,228.80361651806328 M638.6017174161468,228.80361651806328 L638.5902454519805,228.3788137104078 M638.5902454519805,228.3788137104078 L638.5866025415194,227.91437530988088 M638.5866025415194,227.91437530988088 L638.5909907535902,227.43727184582963 M638.5909907535902,227.43727184582963 L638.6031791659329,226.97514292448642 M638.6031791659329,226.97514292448642 L638.6224496470081,226.55488585708554 M638.6224496470081,226.55488585708554 L638.6476868459793,226.20086880613832 M638.6476868459793,226.20086880613832 L638.6774378557786,225.9336170226921 M638.6774378557786,225.9336170226921 L638.7099514803338,225.7687581973877 M638.7099514803338,225.7687581973877 L638.7433486515376,225.71588624533354 M638.7433486515376,225.71588624533354 L638.775703518894,225.77808503941122 M638.775703518894,225.77808503941122 L638.8051310026922,225.9518412408917 M640.191428072374,273.25916995129245 L639.8680619207771,270.5346193413779 M640.4205811094298,268.3349285934031 L640.191428072374,273.25916995129245 M640.0966300080552,265.6142082105366 L640.4205811094298,268.3349285934031 M639.8680619207771,270.5346193413779 L640.0966300080552,265.6142082105366 M651.9523710336637,166.15789359006084 L636.2244398278015,159.28649674771384 M648.6476852528303,235.35629886236626 L633.126243903582,228.3386392332731 M651.9523710336637,166.15789359006084 L648.6476852528303,235.35629886236626 M658.9579550390292,219.73442448588997 L651.9523710336637,166.15789359006084 M644.584467539237,227.02390220459574 L658.9579550390292,219.73442448588997 M648.6476852528303,235.35629886236626 L655.4774274635943,290.05291126745664 M641.2764121094867,297.4919995763436 L655.4774274635943,290.05291126745664 M655.4774274635943,290.05291126745664 L658.9579550390292,219.73442448588997 M640.3597356799314,185.24315314950405 L640.0394704968021,182.6577289042317 M640.0394704968021,182.6577289042317 L637.2756368199896,182.6577289042317 M640.3597356799314,185.24315314950405 L637.5924055160915,185.24315314950405 M640.0394704968021,182.6577289042317 L639.8134956171166,187.59746338853145 M639.8134956171166,187.59746338853145 L637.0521290153313,187.59746338853145 M640.133188939144,190.18682049824645 L640.3597356799314,185.24315314950405 M640.133188939144,190.18682049824645 L637.3683320936102,190.18682049824645 M639.8134956171166,187.59746338853145 L640.133188939144,190.18682049824645 M638.3902085944894,228.22186346296516 L638.0748979259617,225.6026212240765 M638.0748979259617,225.6026212240765 L635.3325124204478,225.6026212240765 M638.3902085944894,228.22186346296516 L635.6443806927355,228.22186346296516 M638.0748979259617,225.6026212240765 L637.8524170796477,230.46597731995172 M637.8524170796477,230.46597731995172 L635.1124605031403,230.46597731995172 M638.167169104694,233.08899613213748 L638.3902085944894,228.22186346296516 M638.167169104694,233.08899613213748 L635.4237762309226,233.08899613213748 M637.8524170796477,230.46597731995172 L638.167169104694,233.08899613213748 M644.6977546878131,227.1574313831171 L645.0299222842398,229.84782378476302 M645.0299222842398,229.84782378476302 L642.2116056172472,229.84782378476302 M644.6977546878131,227.1574313831171 L641.8830644519626,227.1574313831171 M645.0299222842398,229.84782378476302 L645.2653185831198,224.84464671679956 M645.2653185831198,224.84464671679956 L642.4444319831227,224.84464671679956 M644.9325453148929,222.15824782558144 L644.6977546878131,227.1574313831171 M644.9325453148929,222.15824782558144 L642.1152917584443,222.15824782558144 M645.2653185831198,224.84464671679956 L644.9325453148929,222.15824782558144 M653.7880460703022,225.9518371927869 L653.8142967919764,226.22703270429494 M653.8142967919764,226.22703270429494 L653.8340893301161,226.58772777805603 M653.8340893301161,226.58772777805603 L653.8462870696337,227.01289292755553 M653.8462870696337,227.01289292755553 L653.8501592740345,227.47782087362413 M653.8501592740345,227.47782087362413 L653.8454754117861,227.95547712162147 M653.8454754117861,227.95547712162147 L653.8325378794298,228.4179861805245 M653.8325378794298,228.4179861805245 L653.8120848423337,228.83847554091415 M653.8120848423337,228.83847554091415 L653.7853063352393,229.19252384237166 M653.7853063352393,229.19252384237166 L653.7537791443485,229.4594867746411 M653.7537791443485,229.4594867746411 L653.719310368225,229.62391205540212 M653.719310368225,229.62391205540212 L653.6839092916675,229.67625690975285 M653.6839092916675,229.67625690975285 L653.6496488820671,229.61357454995758 M653.6496488820671,229.61357454995758 L653.6185080239968,229.43947902383724 M653.6185080239968,229.43947902383724 L653.5923098036542,229.16417982945325 M653.5923098036542,229.16417982945325 L653.572553100702,228.8036205684267 M653.572553100702,228.8036205684267 L653.5603803530591,228.3788096610523 M653.5603803530591,228.3788096610523 L653.5565205309356,227.91437126148406 M653.5565205309356,227.91437126148406 L653.561192205498,227.437273869601 M653.561192205498,227.437273869601 L653.5741015349893,226.97514697132945 M653.5741015349893,226.97514697132945 L653.5945181158072,226.5548899034239 M653.5945181158072,226.5548899034239 L653.6212602631645,226.20087082916717 M653.6212602631645,226.20087082916717 L653.6527582113372,225.93361297667454 M653.6527582113372,225.93361297667454 L653.6872058129989,225.7687541511673 M653.6872058129989,225.7687541511673 L653.7226077648888,225.7158902919881 M653.7226077648888,225.7158902919881 L653.7568869176662,225.77808908670653 M653.7568869176662,225.77808908670653 L653.7880460703022,225.9518371927869 M653.7880460703022,225.9518371927869 L638.8051310026922,225.9518412408917 M642.6605105969611,270.5346193413779 L642.9874460579974,273.25916995129245 M642.9874460579974,273.25916995129245 L640.191428072374,273.25916995129245 M642.6605105969611,270.5346193413779 L639.8680619207771,270.5346193413779 M642.9874460579974,273.25916995129245 L643.2191284819239,268.3349285934031 M643.2191284819239,268.3349285934031 L640.4205811094298,268.3349285934031 M643.2191284819239,268.3349285934031 L642.8916016144451,265.6142082105366 M642.8916016144451,265.6142082105366 L640.0966300080552,265.6142082105366 M642.8916016144451,265.6142082105366 L642.6605105969611,270.5346193413779" stroke="black"  stroke-width="4"  fill="red"/>
<path d="M631.661047423569,233.5779819283926 L628.5091509384467,304.18002722406493 M484.5165825417136,233.57797593524032 L631.661047423569,233.5779819283926 M628.5091509384467,304.18002722406493 L483.2593958872189,304.1800211086752 M483.2593958872189,304.1800211086752 L484.5165825417136,233.57797593524032 M603.3269385658703,244.65198392032062 L597.631591104159,244.65198392032062 M603.1278789140506,249.68441102538935 L603.3269385658703,244.65198392032062 M597.631591104159,244.65198392032062 L597.4377693528206,249.68441102538935 M597.4377693528206,249.68441102538935 L603.1278789140506,249.68441102538935 M601.5967211136012,288.3936117432377 L595.9469012449676,288.3936117432377 M601.4008314855998,293.3458974753931 L601.5967211136012,288.3936117432377 M595.9469012449676,288.3936117432377 L595.7561661039126,293.3458974753931 M595.7561661039126,293.3458974753931 L601.4008314855998,293.3458974753931 M512.043907303512,249.68440474208873 L517.7340168478031,249.68440474208873 M512.1591216838885,244.6519776462311 L512.043907303512,249.68440474208873 M517.7340168478031,249.68440474208873 L517.8544691286297,244.6519776462311 M517.8544691286297,244.6519776462311 L512.1591216838885,244.6519776462311 M557.0345281443012,267.34220373734587 L556.5530364587737,267.3935096961498 M556.5530364587737,267.3935096961498 L556.0963511349587,267.54450258788165 M556.0963511349587,267.54450258788165 L555.6910414686627,267.7863280659854 M555.6910414686627,267.7863280659854 L555.3606531479495,268.1049461750747 M555.3606531479495,268.1049461750747 L555.1243865636629,268.4818358507063 M555.1243865636629,268.4818358507063 L554.9959688281269,268.89500576653927 M554.9959688281269,268.89500576653927 L554.9828388989661,269.3204789862235 M554.9828388989661,269.3204789862235 L555.0857321462875,269.7335647959301 M555.0857321462875,269.7335647959301 L555.298646760444,270.1101945461104 M555.298646760444,270.1101945461104 L555.6091835308189,270.4285367347056 M555.6091835308189,270.4285367347056 L555.9992892659745,270.67009788233304 M555.9992892659745,270.67009788233304 L556.4463181016918,270.8209092475848 M556.4463181016918,270.8209092475848 L556.924305684285,270.8721581411603 M556.924305684285,270.8721581411603 L557.4054976442224,270.82091556926974 M557.4054976442224,270.82091556926974 L557.8619446198668,270.6701042037459 M557.8619446198668,270.6701042037459 L558.2671360578483,270.42853462771325 M558.2671360578483,270.42853462771325 L558.5975533600676,270.1101882257082 M558.5975533600676,270.1101882257082 L558.833988167866,269.7335669025041 M558.833988167866,269.7335669025041 L558.9626785387186,269.32048109254885 M558.9626785387186,269.32048109254885 L558.9761193241668,268.89500787260846 M558.9761193241668,268.89500787260846 L558.8735039643436,268.48183795652676 M558.8735039643436,268.48183795652676 L558.6607743186221,268.1049398582948 M558.6607743186221,268.1049398582948 L558.3502835050265,267.7863259605841 M558.3502835050265,267.7863259605841 L557.9600755309693,267.5445089036484 M557.9600755309693,267.5445089036484 L557.512819680692,267.39351601164367 M557.512819680692,267.39351601164367 L557.0345281443012,267.34220373734587 M511.0443039306743,293.3458911133376 L516.6889692956925,293.3458911133376 M511.1576835227066,288.3936053900105 L511.0443039306743,293.3458911133376 M516.8075033746404,288.3936053900105 L511.1576835227066,288.3936053900105 M516.6889692956925,293.3458911133376 L516.8075033746404,288.3936053900105 M617.0953261826387,240.96495050120245 L631.661047423569,233.5779819283926 M614.120666415583,311.71731975756524 L628.5091509384467,304.18002722406493 M617.0953261826387,240.96495050120245 L614.120666415583,311.71731975756524 M484.5165825417136,233.57797593524032 L500.2898825289356,240.9649442032909 M500.2898825289356,240.9649442032909 L617.0953261826387,240.96495050120245 M614.120666415583,311.71731975756524 L498.82450709659105,311.71731333178366 M483.2593958872189,304.1800211086752 L498.82450709659105,311.71731333178366 M498.82450709659105,311.71731333178366 L500.2898825289356,240.9649442032909 M597.7688585479787,246.02347243752274 L603.4679155686279,246.02347243752274 M603.4679155686279,246.02347243752274 L603.3269385658703,244.65198392032062 M597.7688585479787,246.02347243752274 L597.631591104159,244.65198392032062 M603.4679155686279,246.02347243752274 L603.2685966441313,251.05791215202987 M603.2685966441313,251.05791215202987 L603.1278789140506,249.68441102538935 M597.5747843462627,251.05791215202987 L597.7688585479787,246.02347243752274 M597.5747843462627,251.05791215202987 L597.4377693528206,249.68441102538935 M603.2685966441313,251.05791215202987 L597.5747843462627,251.05791215202987 M596.081982174036,289.7823921463215 L601.7354525125393,289.7823921463215 M601.7354525125393,289.7823921463215 L601.5967211136012,288.3936117432377 M596.081982174036,289.7823921463215 L595.9469012449676,288.3936117432377 M601.7354525125393,289.7823921463215 L601.5393097813953,294.73660689476065 M601.5393097813953,294.73660689476065 L601.4008314855998,293.3458974753931 M595.8910005897969,294.73660689476065 L596.081982174036,289.7823921463215 M595.8910005897969,294.73660689476065 L595.7561661039126,293.3458974753931 M601.5393097813953,294.73660689476065 L595.8910005897969,294.73660689476065 M517.8191660550185,251.05790586054948 L512.1253537741104,251.05790586054948 M512.1253537741104,251.05790586054948 L512.043907303512,249.68440474208873 M517.8191660550185,251.05790586054948 L517.7340168478031,249.68440474208873 M512.1253537741104,251.05790586054948 L512.2407182197585,246.02346615525738 M512.2407182197585,246.02346615525738 L512.1591216838885,244.6519776462311 M517.9397752234156,246.02346615525738 L517.8191660550185,251.05790586054948 M517.9397752234156,246.02346615525738 L517.8544691286297,244.6519776462311 M512.2407182197585,246.02346615525738 L517.9397752234156,246.02346615525738 M557.6308824617904,274.8018593633925 L557.1477156280905,274.85328312050274 M557.1477156280905,274.85328312050274 L556.6894131964802,275.0045977767503 M556.6894131964802,275.0045977767503 L556.282638629913,275.24693006143536 M556.282638629913,275.24693006143536 L555.951057784594,275.56622695665544 M555.951057784594,275.56622695665544 L555.7139361637653,275.9439299618342 M555.7139361637653,275.9439299618342 L555.5850277739657,276.35797756900706 M555.5850277739657,276.35797756900706 L555.5718056749624,276.7843565695358 M555.5718056749624,276.7843565695358 L555.6750103999577,277.1983236868821 M555.6750103999577,277.1983236868821 L555.8886161298242,277.57574425370893 M555.8886161298242,277.57574425370893 L556.2002060725267,277.89476366640866 M556.2002060725267,277.89476366640866 L556.5916699698626,278.1368470860014 M556.5916699698626,278.1368470860014 L557.0402481264907,278.2879791919433 M557.0402481264907,278.2879791919433 L557.5198862712382,278.33932860574413 M557.5198862712382,278.33932860574413 L558.0027692981505,278.28797706992736 M558.0027692981505,278.28797706992736 L558.4608316861213,278.13684496407643 M558.4608316861213,278.13684496407643 L558.8674871653063,277.8947700317464 M558.8674871653063,277.8947700317464 L559.1990929988215,277.57574849688336 M559.1990929988215,277.57574849688336 L559.4363839861048,277.1983152014418 M559.4363839861048,277.1983152014418 L559.5655710830636,276.7843502062036 M559.5655710830636,276.7843502062036 L559.5791062190269,276.35797120644537 M559.5791062190269,276.35797120644537 L559.4761771723072,275.9439214794164 M559.4761771723072,275.9439214794164 L559.2627577560884,275.56623119740914 M559.2627577560884,275.56623119740914 L558.9512182931992,275.2469364219885 M558.9512182931992,275.2469364219885 L558.5596514485142,275.004595656712 M558.5596514485142,275.004595656712 L558.1108447050137,274.8532810005558 M558.1108447050137,274.8532810005558 L557.6308824617904,274.8018593633925 M557.6308824617904,274.8018593633925 L557.0345281443012,267.34220373734587 M516.7727634067635,294.7366005244887 L511.12445423185574,294.7366005244887 M511.12445423185574,294.7366005244887 L511.0443039306743,293.3458911133376 M516.7727634067635,294.7366005244887 L516.6889692956925,293.3458911133376 M511.12445423185574,294.7366005244887 L511.2379803182751,289.7823857848818 M511.2379803182751,289.7823857848818 L511.1576835227066,288.3936053900105 M511.2379803182751,289.7823857848818 L516.8914506400572,289.7823857848818 M516.8914506400572,289.7823857848818 L516.8075033746404,288.3936053900105 M516.8914506400572,289.7823857848818 L516.7727634067635,294.7366005244887" stroke="black"  stroke-width="4"  fill="red"/>
<path d="M167.97436034894372,12.203943301753156 L170.49866214604222,77.9829639017156 M299.5673874311484,12.203948095037845 L167.97436034894372,12.203943301753156 M170.49866214604222,77.9829639017156 L300.5742474534873,77.98296880610468 M300.5742474534873,77.98296880610468 L299.5673874311484,12.203948095037845 M193.272559940545,22.50960731587611 L198.36706369972364,22.50960731587611 M193.43185001079834,27.194328478495777 L193.272559940545,22.50960731587611 M198.36706369972364,22.50960731587611 L198.5221623352586,27.194328478495777 M198.5221623352586,27.194328478495777 L193.43185001079834,27.194328478495777 M194.65813615580575,63.25940551567436 L199.71618094271838,63.25940551567436 M194.81515402600562,67.87730127192003 L194.65813615580575,63.25940551567436 M199.71618094271838,63.25940551567436 L199.8690671671005,67.87730127192003 M199.8690671671005,67.87730127192003 L194.81515402600562,67.87730127192003 M274.914614914965,27.194333506960902 L269.8243025769488,27.194333506960902 M274.8224188984258,22.509612335995485 L274.914614914965,27.194333506960902 M269.8243025769488,27.194333506960902 L269.72791512566886,22.509612335995485 M269.72791512566886,22.509612335995485 L274.8224188984258,22.509612335995485 M234.61463506342977,43.63928739348148 L235.04536833934418,43.687092983300886 M235.04536833934418,43.687092983300886 L235.45361277288774,43.8277634085826 M235.45361277288774,43.8277634085826 L235.8156194014317,44.05305116008259 M235.8156194014317,44.05305116008259 L236.11035822628608,44.349889094425976 M236.11035822628608,44.349889094425976 L236.32069982795895,44.70103157538978 M236.32069982795895,44.70103157538978 L236.43442364940267,45.0859736820687 M236.43442364940267,45.0859736820687 L236.44493928063383,45.48238494211682 M236.44493928063383,45.48238494211682 L236.35165777091368,45.86726113983178 M236.35165777091368,45.86726113983178 L236.16001853198162,46.21816890543448 M236.16001853198162,46.21816890543448 L235.8811786184013,46.51478366409742 M235.8811786184013,46.51478366409742 L235.53134866892617,46.7398647895821 M235.53134866892617,46.7398647895821 L235.1308380214224,46.8803838586669 M235.1308380214224,46.8803838586669 L234.70291114630035,46.92812809579482 M234.70291114630035,46.92812809579482 L234.27241707120004,46.88037879535693 M234.27241707120004,46.88037879535693 L233.86436305355465,46.739859726519626 M233.86436305355465,46.739859726519626 L233.50245043449627,46.51478535165279 M233.50245043449627,46.51478535165279 L233.2076876791004,46.21817396757825 M233.2076876791004,46.21817396757825 L232.99721076742537,45.86725945265658 M232.99721076742537,45.86725945265658 L232.88326826102536,45.48238325516775 M232.88326826102536,45.48238325516775 L232.87250366808922,45.08597199535234 M232.87250366808922,45.08597199535234 L232.96556295453243,44.70102988889971 M232.96556295453243,44.70102988889971 L233.15705463483215,44.34989415327709 M233.15705463483215,44.34989415327709 L233.43585846193952,44.053052846191804 M233.43585846193952,44.053052846191804 L233.78577097308371,43.827758350652346 M233.78577097308371,43.827758350652346 L234.18646390920676,43.68708792561847 M234.18646390920676,43.68708792561847 L234.61463506342977,43.63928739348148 M275.71526193369795,67.87730637199547 L270.66134877924026,67.87730637199547 M275.62438105120276,63.259410607699294 L275.71526193369795,67.87730637199547 M270.56633625090547,63.259410607699294 L275.62438105120276,63.259410607699294 M270.66134877924026,67.87730637199547 L270.56633625090547,63.259410607699294 M182.36695042875797,6.3351010600301265 L167.97436034894372,12.203943301753156 M184.71798283175838,71.97786958563722 L170.49866214604222,77.9829639017156 M182.36695042875797,6.3351010600301265 L184.71798283175838,71.97786958563722 M299.5673874311484,12.203948095037845 L286.1342025390434,6.335106030426857 M286.1342025390434,6.335106030426857 L182.36695042875797,6.3351010600301265 M184.71798283175838,71.97786958563722 L287.29236697885705,71.97787467161106 M300.5742474534873,77.98296880610468 L287.29236697885705,71.97787467161106 M287.29236697885705,71.97787467161106 L286.1342025390434,6.335106030426857 M198.47676083953985,21.413583645285883 L193.38522157065952,21.413583645285883 M193.38522157065952,21.413583645285883 L193.272559940545,22.50960731587611 M198.47676083953985,21.413583645285883 L198.36706369972364,22.50960731587611 M193.38522157065952,21.413583645285883 L193.54432638932735,26.096482225993725 M193.54432638932735,26.096482225993725 L193.43185001079834,27.194328478495777 M198.63167909805506,26.096482225993725 L198.47676083953985,21.413583645285883 M198.63167909805506,26.096482225993725 L198.5221623352586,27.194328478495777 M193.54432638932735,26.096482225993725 L198.63167909805506,26.096482225993725 M199.82431404919808,62.14767834412288 L194.76919148565094,62.14767834412288 M194.76919148565094,62.14767834412288 L194.65813615580575,63.25940551567436 M199.82431404919808,62.14767834412288 L199.71618094271838,63.25940551567436 M194.76919148565094,62.14767834412288 L194.92602805197617,66.76381593189058 M194.92602805197617,66.76381593189058 L194.81515402600562,67.87730127192003 M199.9770237403944,66.76381593189058 L199.82431404919808,62.14767834412288 M199.9770237403944,66.76381593189058 L199.8690671671005,67.87730127192003 M194.92602805197617,66.76381593189058 L199.9770237403944,66.76381593189058 M269.89236276072756,26.096487248613016 L274.9797154829954,26.096487248613016 M274.9797154829954,26.096487248613016 L274.914614914965,27.194333506960902 M269.89236276072756,26.096487248613016 L269.8243025769488,27.194333506960902 M274.9797154829954,26.096487248613016 L274.8876266888226,21.413588659564653 M274.8876266888226,21.413588659564653 L274.8224188984258,22.509612335995485 M269.7960874063799,21.413588659564653 L269.89236276072756,26.096487248613016 M269.7960874063799,21.413588659564653 L269.72791512566886,22.509612335995485 M274.8876266888226,21.413588659564653 L269.7960874063799,21.413588659564653 M235.08908059550342,37.70474303643721 L235.51845290892064,37.752442813122514 M235.51845290892064,37.752442813122514 L235.9254136772352,37.8928216530004 M235.9254136772352,37.8928216530004 L236.28628867202514,38.11764918370574 M236.28628867202514,38.11764918370574 L236.58008470836938,38.413871976655855 M236.58008470836938,38.413871976655855 L236.7897311445249,38.7642785026045 M236.7897311445249,38.7642785026045 L236.9030649889822,39.1484248464285 M236.9030649889822,39.1484248464285 L236.91351521226477,39.54401507810803 M236.91351521226477,39.54401507810803 L236.82049652610038,39.92809262646563 M236.82049652610038,39.92809262646563 L236.62943611881857,40.27828229841549 M236.62943611881857,40.27828229841549 L236.35144009991052,40.57428306813739 M236.35144009991052,40.57428306813739 L236.00266605060403,40.79889162532959 M236.00266605060403,40.79889162532959 L235.6033909636246,40.93911989297726 M235.6033909636246,40.93911989297726 L235.1768075866722,40.986772052492654 M235.1768075866722,40.986772052492654 L234.74765806278143,40.93912157025176 M234.74765806278143,40.93912157025176 L234.3408865123127,40.79889330252223 M234.3408865123127,40.79889330252223 L233.98010493843088,40.57427803695481 M233.98010493843088,40.57427803695481 L233.68628909550623,40.27827894464099 M233.68628909550623,40.27827894464099 L233.4765081587899,39.928099333193074 M233.4765081587899,39.928099333193074 L233.3629529894164,39.54402010747748 M233.3629529894164,39.54402010747748 L233.3522553540006,39.14842987510144 M233.3522553540006,39.14842987510144 L233.44505720044702,38.76428520659988 M233.44505720044702,38.76428520659988 L233.6359709936708,38.413868625069654 M233.6359709936708,38.413868625069654 L233.91392717260265,38.11764415684826 M233.91392717260265,38.11764415684826 L234.26278328743072,37.892823328487566 M234.26278328743072,37.892823328487566 L234.66223954352617,37.75244448852686 M234.66223954352617,37.75244448852686 L235.08908059550342,37.70474303643721 M235.08908059550342,37.70474303643721 L234.61463506342977,43.63928739348148 M270.7284393691245,66.76382102607948 L275.77943507089014,66.76382102607965 M275.77943507089014,66.76382102607965 L275.71526193369795,67.87730637199547 M270.7284393691245,66.76382102607948 L270.66134877924026,67.87730637199547 M275.77943507089014,66.76382102607965 L275.688659125853,62.14768343026577 M275.688659125853,62.14768343026577 L275.62438105120276,63.259410607699294 M275.688659125853,62.14768343026577 L270.63353654893666,62.14768343026577 M270.63353654893666,62.14768343026577 L270.56633625090547,63.259410607699294 M270.63353654893666,62.14768343026577 L270.7284393691245,66.76382102607948" stroke="black"  stroke-width="4"  fill="red"/>
<path d="M147.83197940066623,75.90149214561592 L150.6811675068684,143.13142591219412 M155.04258866868417,17.477110082475065 L147.83197940066623,75.90149214561592 M150.6811675068684,143.13142591219412 L157.7234496404632,83.37818338509135 M157.7234496404632,83.37818338509135 L155.04258866868417,17.477110082475065 M149.67456156539242,75.04358410861812 L149.9581496661196,72.72897549888643 M149.8751599570727,79.81443154476415 L149.67456156539242,75.04358410861812 M149.9581496661196,72.72897549888643 L150.1582689061251,77.49607913009902 M150.1582689061251,77.49607913009902 L149.8751599570727,79.81443154476415 M151.41914783303318,116.53521747811294 L151.69858233800235,114.18837195564441 M151.6168059310566,121.23613567735504 L151.41914783303318,116.53521747811294 M151.69858233800235,114.18837195564441 L151.89577177228546,118.88568375925615 M151.89577177228546,118.88568375925615 L151.6168059310566,121.23613567735504 M154.32718216448518,43.35714642144819 L154.0539627499353,45.5945142601185 M154.13405227812265,38.64571412500669 L154.32718216448518,43.35714642144819 M154.0539627499353,45.5945142601185 L153.86037860804197,40.87940234885775 M153.86037860804197,40.87940234885775 L154.13405227812265,38.64571412500669 M152.81310108818397,78.05436486921462 L152.83849463329605,77.90896652657591 M152.83849463329605,77.90896652657591 L152.86642691707627,77.86882220044629 M152.86642691707627,77.86882220044629 L152.89527477106859,77.9361691423307 M152.89527477106859,77.9361691423307 L152.923352751299,78.1070875058142 M152.923352751299,78.1070875058142 L152.94902329526406,78.37163576699538 M152.94902329526406,78.37163576699538 L152.9708123490453,78.71435067139362 M152.9708123490453,78.71435067139362 L152.98745012276908,79.1153631769377 M152.98745012276908,79.1153631769377 L152.99797346365042,79.55142068227599 M152.99797346365042,79.55142068227599 L153.0017774140577,79.9971407171829 M153.0017774140577,79.9971407171829 L152.9986245506868,80.42670026507687 M152.9986245506868,80.42670026507687 L152.9887045778055,80.81515083886711 M152.9887045778055,80.81515083886711 L152.97260453176472,81.13998895478619 M152.97260453176472,81.13998895478619 L152.95125142875722,81.38228413641957 M152.95125142875722,81.38228413641957 L152.92588649970796,81.5279874031686 M152.92588649970796,81.5279874031686 L152.89796840780923,81.56855817886827 M152.89796840780923,81.56855817886827 L152.86912121746406,81.5016597140692 M152.86912121746406,81.5016597140692 L152.84103021990504,81.33110916041858 M152.84103021990504,81.33110916041858 L152.81533765223477,81.0668043956507 M152.81533765223477,81.0668043956507 L152.79351793426267,80.72404031741428 M152.79351793426267,80.72404031741428 L152.77685255769856,80.32280981098597 M152.77685255769856,80.32280981098597 L152.76631099675447,79.88641540248437 M152.76631099675447,79.88641540248437 L152.7624977028237,79.44020418024786 M152.7624977028237,79.44020418024786 L152.76565693147447,79.01022426901795 M152.76565693147447,79.01022426901795 L152.77559582553965,78.6214798304477 M152.77559582553965,78.6214798304477 L152.7917230031347,78.2965416200189 M152.7917230031347,78.2965416200189 L152.81310108818397,78.05436486921462 M156.00424284110713,84.26929100841494 L155.73495211299846,86.53822427149498 M155.813891186626,79.62563409184656 L156.00424284110713,84.26929100841494 M155.54415597329256,81.89101948420517 L155.813891186626,79.62563409184656 M155.73495211299846,86.53822427149498 L155.54415597329256,81.89101948420517 M134.43499153607036,69.62740084427787 L147.83197940066623,75.90149214561592 M137.43422462928396,136.71668989212276 L150.6811675068684,143.13142591219412 M134.43499153607036,69.62740084427787 L137.43422462928396,136.71668989212276 M140.4774593035263,23.41630837829024 L134.43499153607036,69.62740084427787 M155.04258866868417,17.477110082475065 L140.4774593035263,23.41630837829024 M137.43422462928396,136.71668989212276 L143.33564685529768,89.45443095244832 M157.7234496404632,83.37818338509135 L143.33564685529768,89.45443095244832 M143.33564685529768,89.45443095244832 L140.4774593035263,23.41630837829024 M147.34298190397973,72.72897549888643 L147.056263563025,75.04358410861812 M147.056263563025,75.04358410861812 L149.67456156539242,75.04358410861812 M147.34298190397973,72.72897549888643 L149.9581496661196,72.72897549888643 M147.056263563025,75.04358410861812 L147.2590761560544,79.81443154476415 M147.2590761560544,79.81443154476415 L149.8751599570727,79.81443154476415 M147.545310056467,77.49607913009902 L147.34298190397973,72.72897549888643 M147.545310056467,77.49607913009902 L150.1582689061251,77.49607913009902 M147.2590761560544,79.81443154476415 L147.545310056467,77.49607913009902 M149.1026254396079,114.18837195564441 L148.82010654172456,116.53521747811294 M148.82010654172456,116.53521747811294 L151.41914783303318,116.53521747811294 M149.1026254396079,114.18837195564441 L151.69858233800235,114.18837195564441 M148.82010654172456,116.53521747811294 L149.0199463861899,121.23613567735504 M149.0199463861899,121.23613567735504 L151.6168059310566,121.23613567735504 M149.30199144723116,118.88568375925615 L149.1026254396079,114.18837195564441 M149.30199144723116,118.88568375925615 L151.89577177228546,118.88568375925615 M149.0199463861899,121.23613567735504 L149.30199144723116,118.88568375925615 M151.4840046269582,45.5945142601185 L151.76023983221626,43.35714642144819 M151.76023983221626,43.35714642144819 L154.32718216448518,43.35714642144819 M151.4840046269582,45.5945142601185 L154.0539627499353,45.5945142601185 M151.76023983221626,43.35714642144819 L151.56497818183638,38.64571412500669 M151.56497818183638,38.64571412500669 L154.13405227812265,38.64571412500669 M151.28828370698358,40.87940234885775 L151.4840046269582,45.5945142601185 M151.28828370698358,40.87940234885775 L153.86037860804197,40.87940234885775 M151.56497818183638,38.64571412500669 L151.28828370698358,40.87940234885775 M138.89198110792796,78.0543683638947 L138.91888515086498,77.90897002061473 M138.91888515086498,77.90897002061473 L138.94847868771086,77.86882569399575 M138.94847868771086,77.86882569399575 L138.97902690830614,77.93616564909053 M138.97902690830614,77.93616564909053 L139.00877041042543,78.10708575924974 M139.00877041042543,78.10708575924974 L139.0359871934612,78.37163926021742 M139.0359871934612,78.37163926021742 L139.05907213601705,78.71435416490772 M139.05907213601705,78.71435416490772 L139.07669942972723,79.11536667092537 M139.07669942972723,79.11536667092537 L139.087848638967,79.55142417689177 M139.087848638967,79.55142417689177 L139.0918593316087,79.99713896950215 M139.0918593316087,79.99713896950215 L139.08852335025244,80.42669676889471 M139.08852335025244,80.42669676889471 L139.07802872689422,80.8151543358972 M139.07802872689422,80.8151543358972 L139.06097114186196,81.1399924526421 M139.06097114186196,81.1399924526421 L139.0383478436396,81.38228763503105 M139.0383478436396,81.38228763503105 L139.01145901565678,81.52798390391507 M139.01145901565678,81.52798390391507 L138.98188051299314,81.56855467912413 M138.98188051299314,81.56855467912413 L138.95133299532,81.50166321412416 M138.95133299532,81.50166321412416 L138.9215715397163,81.3311126605862 M138.9215715397163,81.3311126605862 L138.89433141446267,81.06680264561288 M138.89433141446267,81.06680264561288 L138.87121814843158,80.72403681762995 M138.87121814843158,80.72403681762995 L138.85356160920912,80.32280631167566 M138.85356160920912,80.32280631167566 L138.84238892894933,79.88641365314379 M138.84238892894933,79.88641365314379 L138.8383683560407,79.44020767818142 M138.8383683560407,79.44020767818142 L138.8417152430929,79.01022776612933 M138.8417152430929,79.01022776612933 L138.85222989919941,78.62147633418545 M138.85222989919941,78.62147633418545 L138.869316230428,78.29653812458315 M138.869316230428,78.29653812458315 L138.89198110792796,78.0543683638947 M138.89198110792796,78.0543683638947 L152.81310108818397,78.05436486921462 M153.18354871868235,86.53822427149481 L153.45581187273297,84.26929100841494 M153.45581187273297,84.26929100841494 L156.00424284110713,84.26929100841494 M153.18354871868235,86.53822427149481 L155.73495211299846,86.53822427149498 M153.45581187273297,84.26929100841494 L153.26335912030518,79.62563409184656 M153.26335912030518,79.62563409184656 L155.813891186626,79.62563409184656 M153.26335912030518,79.62563409184656 L152.99064657481034,81.89101948420517 M152.99064657481034,81.89101948420517 L155.54415597329256,81.89101948420517 M152.99064657481034,81.89101948420517 L153.18354871868235,86.53822427149481" stroke="black"  stroke-width="4"  fill="red"/>
<path d="M67.01755186337505,15.510778289884684 L67.73450556441571,28.289303308071396 M196.23205217679282,-36.13677854491493 L196.64764548447573,-23.596604455036527 M67.01755186337505,15.510778289884684 L196.23205217679282,-36.13677854491493 M67.73450556441571,28.289303308071396 L196.64764548447573,-23.596604455036527 M273.96953862920657,-37.15441590991327 L274.2155374101039,-24.61900248140472 M196.23205217679282,-36.13677854491493 L199.18918953139107,-37.243455974015035 M199.18918953139107,-37.243455974015035 L202.3091971824666,-38.26516423197421 M202.3091971824666,-38.26516423197421 L205.57762283287448,-39.197396833046355 M205.57762283287448,-39.197396833046355 L208.97936708742876,-40.036048166337196 M208.97936708742876,-40.036048166337196 L212.4988416673761,-40.777448503332096 M212.4988416673761,-40.777448503332096 L216.11989991262604,-41.418358010346026 M216.11989991262604,-41.418358010346026 L219.82610287666256,-41.95597402657012 M219.82610287666256,-41.95597402657012 L223.60057319191228,-42.38795795713992 M223.60057319191228,-42.38795795713992 L227.4262262306342,-42.712431081911234 M227.4262262306342,-42.712431081911234 L231.28571971682226,-42.92799333075112 M231.28571971682226,-42.92799333075112 L235.16164322160972,-43.033704822777565 M235.16164322160972,-43.033704822777565 L239.03649679672313,-43.02910630852767 M239.03649679672313,-43.02910630852767 L242.89278118809295,-42.91421196185246 M242.89278118809295,-42.91421196185246 L246.71305262210575,-42.68953794413858 M246.71305262210575,-42.68953794413858 L250.48008497234179,-42.35603995177138 M250.48008497234179,-42.35603995177138 L254.1767905015754,-41.91517526795917 M254.1767905015754,-41.91517526795917 L257.7864149464732,-41.368854716352985 M257.7864149464732,-41.368854716352985 L261.29253281164915,-40.719462010471375 M261.29253281164915,-40.719462010471375 L264.67913964770804,-39.96982625489869 M264.67913964770804,-39.96982625489869 L267.9307102123223,-39.12323003913576 M267.9307102123223,-39.12323003913576 L271.0322941682746,-38.183383164990005 M271.0322941682746,-38.183383164990005 L273.96953862920657,-37.15441590991327 M196.64764548447573,-23.596604455036527 L199.59808908382885,-24.708459206639418 M199.59808908382885,-24.708459206639418 L202.71107486718546,-25.734949889164625 M202.71107486718546,-25.734949889164625 L205.97218260982825,-26.67154828210562 M205.97218260982825,-26.67154828210562 L209.36634608080192,-27.51412893384594 M209.36634608080192,-27.51412893384594 L212.87801091986665,-28.259004346789368 M212.87801091986665,-28.259004346789368 L216.4910653106043,-28.902918974504303 M216.4910653106043,-28.902918974504303 L220.18910551698468,-29.44305654540881 M220.18910551698468,-29.44305654540881 L223.95529008609006,-29.87706709222067 M223.95529008609006,-29.87706709222067 L227.77257053539276,-30.203062749914864 M227.77257053539276,-30.203062749914864 L231.62364110073923,-30.419636626306612 M231.62364110073923,-30.419636626306612 L235.4911278556014,-30.525844260142662 M235.4911278556014,-30.525844260142662 L239.3575674201984,-30.52122416286403 M239.3575674201984,-30.52122416286403 L243.2054970143359,-30.405790578495385 M243.2054970143359,-30.405790578495385 L247.01750915377835,-30.180062181844278 M247.01750915377835,-30.180062181844278 L250.77641350899967,-29.844999330892335 M250.77641350899967,-29.844999330892335 L254.4651578412038,-29.402066406005872 M254.4651578412038,-29.402066406005872 L258.06702270225446,-28.853183532461458 M258.06702270225446,-28.853183532461458 L261.56561676460154,-28.200746013308617 M261.56561676460154,-28.200746013308617 L264.94496892936564,-27.44759669265312 M264.94496892936564,-27.44759669265312 L268.18958638296664,-26.5970340770603 M268.18958638296664,-26.5970340770603 L271.2845501106663,-25.65278592810631 M271.2845501106663,-25.65278592810631 L274.2155374101039,-24.61900248140472 M276.50596885501864,-36.13677854491493 L276.74657550683514,-23.596604455036527 M273.96953862920657,-37.15441590991327 L276.50596885501864,-36.13677854491493 M274.2155374101039,-24.61900248140472 L276.74657550683514,-23.596604455036527 M731.1028637491593,158.3936131881875 L730.2727143323345,171.79818801716397 M276.50596885501864,-36.13677854491493 L731.1028637491593,158.3936131881875 M276.74657550683514,-23.596604455036527 L730.2727143323345,171.79818801716397 M736.7926238520013,161.12851414818908 L735.9476124491475,174.54459441922563 M731.1028637491593,158.3936131881875 L736.7926238520013,161.12851414818908 M730.2727143323345,171.79818801716397 L735.9476124491475,174.54459441922563 M738.2369623908501,200.24668537946948 L737.3720892806582,213.82536833029803 M736.7926238520013,161.12851414818908 L739.6086748103223,162.75155058760362 M739.6086748103223,162.75155058760362 L742.1950989022748,164.45411472941197 M742.1950989022748,164.45411472941197 L744.5393170047971,166.2285229899145 M744.5393170047971,166.2285229899145 L746.6298296237546,168.06673258283874 M746.6298296237546,168.06673258283874 L748.4561922979099,169.9603331678126 M748.4561922979099,169.9603331678126 L750.0091597972946,171.90066168403155 M750.0091597972946,171.90066168403155 L751.280639335888,173.8787403796269 M751.280639335888,173.8787403796269 L752.2638764033272,175.8854097237479 M752.2638764033272,175.8854097237479 L752.953346133098,177.91128425151658 M752.953346133098,177.91128425151658 L753.3449633883122,179.94686048914812 M753.3449633883122,179.94686048914812 L753.4359478490162,181.9825069779028 M753.4359478490162,181.9825069779028 L753.2249540909243,184.0085473217415 M753.2249540909243,184.0085473217415 L752.7121281374434,186.01531300212753 M752.7121281374434,186.01531300212753 L751.8990229308704,187.993129281879 M751.8990229308704,187.993129281879 L750.788631111406,189.93243493291214 M750.788631111406,189.93243493291214 L749.385500159538,191.82379101596763 M749.385500159538,191.82379101596763 L747.695555929829,193.65795122627773 M747.695555929829,193.65795122627773 L745.7262096749116,195.4258931074221 M745.7262096749116,195.4258931074221 L743.4863046041189,197.11887856929872 M743.4863046041189,197.11887856929872 L740.9860236159736,198.7284808537692 M740.9860236159736,198.7284808537692 L738.2369623908501,200.24668537946948 M735.9476124491475,174.54459441922563 L738.7561807776003,176.17445032051802 M738.7561807776003,176.17445032051802 L741.3356331106631,177.88416128302322 M741.3356331106631,177.88416128302322 L743.6734247161717,179.66601054403003 M743.6734247161717,179.66601054403003 L745.7580883472692,181.51192072516758 M745.7580883472692,181.51192072516758 L747.579209688784,183.413445466639 M747.579209688784,183.413445466639 L749.1275711303533,185.36188476072522 M749.1275711303533,185.36188476072522 L750.3951050868488,187.34822273886576 M750.3951050868488,187.34822273886576 L751.3750792842179,189.3632611541315 M751.3750792842179,189.3632611541315 L752.0619883686911,191.39757505392024 M752.0619883686911,191.39757505392024 L752.4517633891039,193.44162116467 M752.4517633891039,193.44162116467 L752.5416371681163,195.48572788052135 M752.5416371681163,195.48572788052135 L752.3302739773992,197.5201786597466 M752.3302739773992,197.5201786597466 L751.8178258762937,199.53526505839721 M751.8178258762937,199.53526505839721 L751.0058483433256,201.52127257226635 M751.0058483433256,201.52127257226635 L749.8973328720294,203.4686008542015 M749.8973328720294,203.4686008542015 L748.4968217781143,205.3677725196738 M748.4968217781143,205.3677725196738 L746.8102320881208,207.2095037700451 M746.8102320881208,207.2095037700451 L744.8449622451965,208.98473571905953 M744.8449622451965,208.98473571905953 L742.609838734496,210.68469514173114 M742.609838734496,210.68469514173114 L740.1150239983895,212.3009215301184 M740.1150239983895,212.3009215301184 L737.3720892806582,213.82536833029803 M609.1383281386563,266.3834919705056 L608.5737274448122,280.22873915990147 M738.2369623908501,200.24668537946948 L609.1383281386563,266.3834919705056 M737.3720892806582,213.82536833029803 L608.5737274448122,280.22873915990147 M518.6730467741181,267.7681663259982 L518.338039504572,281.61888234993535 M609.1383281386563,266.3834919705056 L605.9787330390893,267.88948030558714 M605.9787330390893,267.88948030558714 L602.5986356681924,269.28336183967184 M602.5986356681924,269.28336183967184 L599.0140282307557,270.5581348199494 M599.0140282307557,270.5581348199494 L595.2420404948723,271.7073623870315 M595.2420404948723,271.7073623870315 L591.3007515244246,272.7252398662571 M591.3007515244246,272.7252398662571 L587.2092519530488,273.6066048999021 M587.2092519530488,273.6066048999021 L582.9873113408546,274.3469641960055 M582.9873113408546,274.3469641960055 L578.6555285398215,274.9425455935554 M578.6555285398215,274.9425455935554 L574.2350277695975,275.3903053399369 M574.2350277695975,275.3903053399369 L569.7474867333328,275.68796469731285 M569.7474867333328,275.68796469731285 L565.214871654129,275.8339926387215 M565.214871654129,275.8339926387215 L560.6594265953784,275.82763956581107 M560.6594265953784,275.82763956581107 L556.103524076929,275.668930085462 M556.103524076929,275.668930085462 L551.5695639756598,275.3587023429475 M551.5695639756598,275.3587023429475 L547.0797280802842,274.8985188095705 M547.0797280802842,274.8985188095705 L542.6560445242678,274.29074624057205 M542.6560445242678,274.29074624057205 L538.3201096977091,273.53848094988956 M538.3201096977091,273.53848094988956 L534.0930607124906,272.64556458636036 M534.0930607124906,272.64556458636036 L529.9954284885391,271.6165330658929 M529.9954284885391,271.6165330658929 L526.0470413849705,270.45661246536156 M526.0470413849705,270.45661246536156 L522.2668834349195,269.17166597323535 M522.2668834349195,269.17166597323535 L518.6730467741181,267.7681663259982 M608.5737274448122,280.22873915990147 L605.4217657306028,281.7406752456019 M605.4217657306028,281.7406752456019 L602.0499028222728,283.1400569300139 M602.0499028222728,283.1400569300139 L598.4740917325937,284.4198559891033 M598.4740917325937,284.4198559891033 L594.7114196088439,285.5736113044855 M594.7114196088439,285.5736113044855 L590.7799199419487,286.5954963921235 M590.7799199419487,286.5954963921235 L586.6986347023005,287.48032954785646 M586.6986347023005,287.48032954785646 L582.4872825679454,288.2236006770315 M582.4872825679454,288.2236006770315 L578.166408932424,288.8215235423629 M578.166408932424,288.8215235423629 L573.7570827983395,289.27104305068787 M573.7570827983395,289.27104305068787 L569.2809248635385,289.5698719873212 M569.2809248635385,289.5698719873212 L564.7598432922287,289.71647363195115 M564.7598432922287,289.71647363195115 L560.2160231134096,289.71009560064573 M560.2160231134096,289.71009560064573 L555.671777280344,289.550762590001 M555.671777280344,289.550762590001 L551.1494458828265,289.2393158650182 M551.1494458828265,289.2393158650182 L546.6711514074216,288.7773237006579 M546.6711514074216,288.7773237006579 L542.2588630495216,288.16716166248875 M542.2588630495216,288.16716166248875 L537.9341194059618,287.4119376003267 M537.9341194059618,287.4119376003267 L533.7180010598515,286.5155075026665 M533.7180010598515,286.5155075026665 L529.6309840981532,285.48242424753005 M529.6309840981532,285.48242424753005 L525.6928440303684,284.3179335026189 M525.6928440303684,284.3179335026189 L521.9225144278475,283.0279204918857 M521.9225144278475,283.0279204918857 L518.338039504572,281.61888234993535 M515.5569707276766,266.3834919705056 L515.2300966417667,280.22873915990147 M518.6730467741181,267.7681663259982 L515.5569707276766,266.3834919705056 M518.338039504572,281.61888234993535 L515.2300966417667,280.22873915990147 M60.86630085521722,51.5978532577891 L61.61106274173744,64.53911931569581 M515.5569707276766,266.3834919705056 L60.86630085521722,51.5978532577891 M515.2300966417667,280.22873915990147 L61.61106274173744,64.53911931569581 M56.349055488637646,49.15102401175642 L57.10317293264052,62.08135441812544 M60.86630085521722,51.5978532577891 L56.349055488637646,49.15102401175642 M61.61106274173744,64.53911931569581 L57.10317293264052,62.08135441812544 M56.349055488637646,49.15102401175642 L54.2081883812624,47.70502072137481 M54.2081883812624,47.70502072137481 L52.31572729735956,46.19299984378932 M52.31572729735956,46.19299984378932 L50.680242538517064,44.622418650859174 M50.680242538517064,44.622418650859174 L49.30896106823877,43.00098013385684 M49.30896106823877,43.00098013385684 L48.20781068935622,41.33662640710236 M48.20781068935622,41.33662640710236 L47.38134928363138,39.63742516760624 M47.38134928363138,39.63742516760624 L46.83281961096304,37.91161343483486 M46.83281961096304,37.91161343483486 L46.56405215098374,36.16747225881545 M46.56405215098374,36.16747225881545 L46.57558815364564,34.413358443710365 M46.57558815364564,34.413358443710365 L46.866555955091485,32.657605930092586 M46.866555955091485,32.657605930092586 L47.43483135017863,30.908531940586442 M47.43483135017863,30.908531940586442 L48.27698126104042,29.17436498478287 M48.27698126104042,29.17436498478287 L49.38826576938817,27.463201735044606 M49.38826576938817,27.463201735044606 L50.76274779897682,25.783023103013136 M50.76274779897682,25.783023103013136 L52.393334435528004,24.14159836275661 M52.393334435528004,24.14159836275661 L54.27170486188032,22.54648615346781 M54.27170486188032,22.54648615346781 L56.38852262010562,21.00498507682937 M56.38852262010562,21.00498507682937 L58.73337085724529,19.524119169382573 M58.73337085724529,19.524119169382573 L61.29483999150358,18.11060019851061 M61.29483999150358,18.11060019851061 L64.06063548876551,16.77081933183274 M64.06063548876551,16.77081933183274 L67.01755186337505,15.510778289884684 M57.10317293264052,62.08135441812544 L54.96661699003744,60.62888172959663 M54.96661699003744,60.62888172959663 L53.077867483421926,59.11009072610665 M53.077867483421926,59.11009072610665 L51.44547909099077,57.53247139281905 M51.44547909099077,57.53247139281905 L50.07666653986399,55.90376062234782 M50.07666653986399,55.90376062234782 L48.977348651127386,54.231935603488864 M48.977348651127386,54.231935603488864 L48.1520776616274,52.52509978405487 M48.1520776616274,52.52509978405487 L47.60409387983998,50.79152681746075 M47.60409387983998,50.79152681746075 L47.33522865846999,49.03953471609918 M47.33522865846999,49.03953471609918 L47.346027137986425,47.27751772328486 M47.346027137986425,47.27751772328486 L47.635624761282656,45.513847255003554 M47.635624761282656,45.513847255003554 L48.20190724372799,43.756878073990265 M48.20190724372799,43.756878073990265 L49.041454299316,42.01487596836216 M49.041454299316,42.01487596836216 L50.14954161117191,40.29597442833409 M50.14954161117191,40.29597442833409 L51.52025023535663,38.60819078911578 M51.52025023535663,38.60819078911578 L53.14650775473149,36.95932991198697 M53.14650775473149,36.95932991198697 L55.0200163457431,35.356985180795164 M55.0200163457431,35.356985180795164 L57.131464515519156,33.808488863203706 M57.131464515519156,33.808488863203706 L59.47046246506454,32.320897503349954 M59.47046246506454,32.320897503349954 L62.025629525181444,30.900954031718186 M62.025629525181444,30.900954031718186 L64.7847016745767,29.555079380797395 M64.7847016745767,29.555079380797395 L67.73450556441571,28.289303308071396" stroke="black"  stroke-width="4"  fill="red"/>
<path d="M249.76143351014645,-17.914683607552377 L251.31748742773397,47.16049634352146 M717.5727369947485,185.54528863973582 L713.4110138946419,255.1531718292968 M249.76143351014645,-17.914683607552377 L717.5727369947485,185.54528863973582 M251.31748742773397,47.16049634352146 L713.4110138946419,255.1531718292968 M249.76143351014645,-17.914683607552377 L249.15913047266116,-9.818982521778253 M251.31748742773397,47.16049634352146 L250.72880597880732,55.446508791833196 M249.15913047266116,-9.818982521778253 L250.72880597880732,55.446508791833196 M717.5727369947485,185.54528863973582 L696.3281632047979,185.545292619866 M713.4110138946419,255.1531718292968 L692.4338022733073,255.1531758930062 M696.3281632047979,185.545292619866 L692.4338022733073,255.1531758930062 M696.3281632047979,185.545292619866 L249.15913047266116,-9.818982521778253 M692.4338022733073,255.1531758930062 L250.72880597880732,55.446508791833196" stroke="black"  stroke-width="4"  fill="red"/>
<path d="M545.6144783619966,272.563728105889 L543.5330193199914,343.9514034710958 M77.71220926255785,52.36476152688971 L81.35288776689293,119.06452174531194 M545.6144783619966,272.563728105889 L77.71220926255785,52.36476152688971 M543.5330193199914,343.9514034710958 L81.35288776689293,119.06452174531194 M545.6144783619966,272.563728105889 L544.8149617515337,261.81697564986285 M543.5330193199914,343.9514034710958 L542.754282112697,332.98998829940143 M544.8149617515337,261.81697564986285 L542.754282112697,332.98998829940143 M77.71220926255785,52.36476152688971 L97.57428853604728,52.36475804792008 M81.35288776689293,119.06452174531194 L100.98107838830401,119.06451818746234 M97.57428853604728,52.36475804792008 L100.98107838830401,119.06451818746234 M97.57428853604728,52.36475804792008 L544.8149617515337,261.81697564986285 M100.98107838830401,119.06451818746234 L542.754282112697,332.98998829940143" stroke="black"  stroke-width="4"  fill="red"/>
<path d="M575.9790302852641,261.81697564986285 L698.4679433283322,199.6970341653181 M698.4679433283322,199.6970341653181 L694.5198816522682,269.6008339150294 M573.5117261742676,332.98998829940143 L694.5198816522682,269.6008339150294 M575.9790302852641,261.81697564986285 L573.5117261742676,332.98998829940143 M719.8594208757713,199.69703012995333 L576.9363135957883,272.563728105889 M719.8594208757713,199.69703012995333 L698.4679433283322,199.6970341653181 M576.9363135957883,272.563728105889 L575.9790302852641,261.81697564986285 M719.8594208757713,199.69703012995333 L715.6403102780289,269.6008297956426 M715.6403102780289,269.6008297956426 L694.5198816522682,269.6008339150294 M715.6403102780289,269.6008297956426 L574.4441297542446,343.9514034710958 M574.4441297542446,343.9514034710958 L573.5117261742676,332.98998829940143 M576.9363135957883,272.563728105889 L574.4441297542446,343.9514034710958" stroke="black"  stroke-width="4"  fill="red"/>
<path d="M79.68457397819452,40.15826643075377 L83.27921898989547,106.58032500627263 M222.7039395871439,-17.914683607552377 L224.56704251241032,47.16049634352146 M79.68457397819452,40.15826643075377 L222.7039395871439,-17.914683607552377 M83.27921898989547,106.58032500627263 L224.56704251241032,47.16049634352146 M79.68457397819452,40.15826643075377 L99.41994233110574,40.158262996031226 M83.27921898989547,106.58032500627263 L102.78365602733754,106.58032149314522 M99.41994233110574,40.158262996031226 L102.78365602733754,106.58032149314522 M222.7039395871439,-17.914683607552377 L221.98278836270987,-9.818982521778253 M224.56704251241032,47.16049634352146 L223.86220074504004,55.446508791833196 M221.98278836270987,-9.818982521778253 L223.86220074504004,55.446508791833196 M221.98278836270987,-9.818982521778253 L99.41994233110574,40.158262996031226 M223.86220074504004,55.446508791833196 L102.78365602733754,106.58032149314522" stroke="black"  stroke-width="4"  fill="red"/>
<path d="M655.4094717524158,192.59677525767202 L653.7880460703022,225.9518371927869 M653.7880460703022,225.9518371927869 L653.9080713490396,226.8902311496006 M653.9080713490396,226.8902311496006 L653.7383808451552,230.37884384812247 M653.7383808451552,230.37884384812247 L653.6185080239968,229.43947902383724 M653.6185080239968,229.43947902383724 L652.018574266463,262.35242111135204 M652.018574266463,262.35242111135204 L652.9236601645025,269.6008297956426 M656.3378969043022,199.69703012995333 L652.9236601645025,269.6008297956426 M655.4094717524158,192.59677525767202 L656.3378969043022,199.69703012995333 M684.7017062736288,199.65253048355197 L685.0825953869614,192.5967772614743 M684.7017062736288,199.65253048355197 L688.6530823095961,199.65253449978928 M689.0390249481361,192.59678126907903 L688.6530823095961,199.65253449978928 M718.7121303319839,192.59677525767202 L689.0390249481361,192.59678126907903 M685.1115298139648,751.9478306875403 L718.7121303319839,192.59677525767202 M656.6651705098473,751.9478306875403 L685.1115298139648,751.9478306875403 M652.018574266463,262.35242111135204 L656.6651705098473,751.9478306875403 M701.5255661002029,229.43948307613138 L653.6185080239968,229.43947902383724 M701.5255661002029,229.43948307613138 L701.7255539997909,225.9518412408917 M653.7880460703022,225.9518371927869 L701.7255539997909,225.9518412408917 M685.0825953869614,192.5967772614743 L655.4094717524158,192.59677525767202 M653.9080713490396,226.8902311496006 L701.8671119703954,226.8902291237276 M701.7255539997909,225.9518412408917 L701.8671119703954,226.8902291237276 M653.7383808451552,230.37884384812247 L701.666944247216,230.37884182015392 M701.8671119703954,226.8902291237276 L701.666944247216,230.37884182015392 M701.666944247216,230.37884182015392 L701.5255661002029,229.43948307613138 M656.6651705098473,751.9478306875403 L657.5031931148462,760.0643802985109 M652.9236601645025,269.6008297956426 L657.5031931148462,760.0643802985109 M689.0390249481361,192.59678126907903 L689.3125151226793,194.45562236846652 M689.3125151226793,194.45562236846652 L685.3525266125853,194.4556243758979 M685.3525266125853,194.4556243758979 L685.0825953869614,192.5967772614743 M719.8594208757713,199.69703012995333 L656.3378969043022,199.69703012995333 M718.7121303319839,192.59677525767202 L719.8594208757713,199.69703012995333 M684.9709480815391,201.5153795706671 L684.7017062736288,199.65253048355197 M685.3525266125853,194.4556243758979 L684.9709480815391,201.5153795706671 M688.9258739492257,201.51537755891636 L684.9709480815391,201.5153795706671 M688.6530823095961,199.65253449978928 L688.9258739492257,201.51537755891636 M689.3125151226793,194.45562236846652 L688.9258739492257,201.51537755891636 M685.1115298139648,751.9478306875403 L686.037914219025,760.0643802985109 M686.037914219025,760.0643802985109 L719.8594208757713,199.69703012995333 M657.5031931148462,760.0643802985109 L686.037914219025,760.0643802985109" stroke="black"  stroke-width="4"  fill="red"/>
<path d="M653.7880460703022,225.9518371927869 L655.4094717524158,192.59677525767202 M653.6681466310054,225.01429445391614 L653.7880460703022,225.9518371927869 M653.4987608248318,228.50096576230848 L653.6681466310054,225.01429445391614 M653.6185080239968,229.43947902383724 L653.4987608248318,228.50096576230848 M652.018574266463,262.35242111135204 L653.6185080239968,229.43947902383724 M652.018574266463,262.35242111135204 L651.1196435501629,255.1531718292968 M654.4874405253977,185.54528863973582 L651.1196435501629,255.1531718292968 M655.4094717524158,192.59677525767202 L654.4874405253977,185.54528863973582 M701.5255661002029,229.43948307613138 L653.6185080239968,229.43947902383724 M701.5255661002029,229.43948307613138 L701.7255539997909,225.9518412408917 M653.7880460703022,225.9518371927869 L701.7255539997909,225.9518412408917 M685.0825953869614,192.5967772614743 L655.4094717524158,192.59677525767202 M684.7017062736288,199.65253048355197 L685.0825953869614,192.5967772614743 M684.7017062736288,199.65253048355197 L688.6530823095961,199.65253449978928 M689.0390249481361,192.59678126907903 L688.6530823095961,199.65253449978928 M718.7121303319839,192.59677525767202 L689.0390249481361,192.59678126907903 M685.1115298139648,751.9478306875403 L718.7121303319839,192.59677525767202 M656.6651705098473,751.9478306875403 L685.1115298139648,751.9478306875403 M652.018574266463,262.35242111135204 L656.6651705098473,751.9478306875403 M701.5841153433844,225.014300520619 L701.7255539997909,225.9518412408917 M653.6681466310054,225.01429445391614 L701.5841153433844,225.014300520619 M653.4987608248318,228.50096576230848 L701.3843070297819,228.5009718352931 M701.3843070297819,228.5009718352931 L701.5841153433844,225.014300520619 M701.5255661002029,229.43948307613138 L701.3843070297819,228.5009718352931 M656.6651705098473,751.9478306875403 L655.8323382329736,743.8814030919089 M651.1196435501629,255.1531718292968 L655.8323382329736,743.8814030919089 M688.766006773848,190.74129317092948 L689.0390249481361,192.59678126907903 M684.8131741357636,190.7412951711126 L688.766006773848,190.74129317092948 M685.0825953869614,192.5967772614743 L684.8131741357636,190.7412951711126 M717.5727369947485,185.54528863973582 L654.4874405253977,185.54528863973582 M718.7121303319839,192.59677525767202 L717.5727369947485,185.54528863973582 M684.8131741357636,190.7412951711126 L684.4329725440141,197.79304936937098 M684.7017062736288,199.65253048355197 L684.4329725440141,197.79304936937098 M688.3807608083373,197.79304736487487 L688.6530823095961,199.65253449978928 M684.4329725440141,197.79304936937098 L688.3807608083373,197.79304736487487 M688.766006773848,190.74129317092948 L688.3807608083373,197.79304736487487 M685.1115298139648,751.9478306875403 L684.1908813964183,743.8814030919089 M684.1908813964183,743.8814030919089 L717.5727369947485,185.54528863973582 M655.8323382329736,743.8814030919089 L684.1908813964183,743.8814030919089" stroke="black"  stroke-width="4"  fill="red"/>
<path d="M558.6925930875225,240.9649442032909 L557.6308824617904,274.8018593633925 M557.6308824617904,274.8018593633925 L555.6185969423955,274.8018614833087 M555.6185969423955,274.8018614833087 L555.508908852931,278.3393307277909 M555.508908852931,278.3393307277909 L557.5198862712382,278.33932860574413 M557.5198862712382,278.33932860574413 L556.4725756378225,311.71731333178366 M556.4725756378225,311.71731333178366 L541.2429716963616,311.7173176156381 M543.2636260260117,240.9649484018986 L541.2429716963616,311.7173176156381 M558.6925930875225,240.9649442032909 L543.2636260260117,240.9649484018986 M559.6659267424584,262.8486367318787 L559.8936899408841,255.65951936921067 M559.6659267424584,262.8486367318787 L559.8269268052509,264.82755363755155 M560.0551149310772,257.63434000432454 L559.8269268052509,264.82755363755155 M561.2753867552385,272.56372378009854 L560.0551149310772,257.63434000432454 M543.0010432273884,843.0336999148637 L561.2753867552385,272.56372378009854 M541.9575762436602,824.9603206772263 L543.0010432273884,843.0336999148637 M556.4725756378225,311.71731333178366 L541.9575762436602,824.9603206772263 M559.4538166490327,302.5857746275607 L557.5198862712382,278.33932860574413 M559.4538166490327,302.5857746275607 L559.5673438954398,299.0241377241049 M557.6308824617904,274.8018593633925 L559.5673438954398,299.0241377241049 M559.8936899408841,255.65951936921067 L558.6925930875225,240.9649442032909 M555.6185969423955,274.8018614833087 L557.5322413102906,299.0241377241048 M559.5673438954398,299.0241377241049 L557.5322413102906,299.0241377241048 M555.508908852931,278.3393307277909 L557.4200519909823,302.5857746275606 M557.5322413102906,299.0241377241048 L557.4200519909823,302.5857746275606 M557.4200519909823,302.5857746275606 L559.4538166490327,302.5857746275607 M541.9575762436602,824.9603206772263 L528.031455557631,824.9603255197524 M541.2429716963616,311.7173176156381 L528.031455557631,824.9603255197524 M560.0551149310772,257.63434000432454 L555.9733904975669,257.6343336061283 M555.9733904975669,257.6343336061283 L555.8157841817174,255.65952362672698 M555.8157841817174,255.65952362672698 L559.8936899408841,255.65951936921067 M545.6144783619966,272.563728105889 L543.2636260260117,240.9649484018986 M561.2753867552385,272.56372378009854 L545.6144783619966,272.563728105889 M555.5933894068107,262.8486409982313 L559.6659267424584,262.8486367318787 M555.8157841817174,255.65952362672698 L555.5933894068107,262.8486409982313 M555.7505808302587,264.8275472260916 L555.5933894068107,262.8486409982313 M559.8269268052509,264.82755363755155 L555.7505808302587,264.8275472260916 M555.9733904975669,257.6343336061283 L555.7505808302587,264.8275472260916 M543.0010432273884,843.0336999148637 L528.9812165957983,843.0337048227775 M528.9812165957983,843.0337048227775 L545.6144783619966,272.563728105889 M528.031455557631,824.9603255197524 L528.9812165957983,843.0337048227775" stroke="black"  stroke-width="4"  fill="red"/>
<path d="M557.6308824617904,274.8018593633925 L558.6925930875225,240.9649442032909 M559.6431860325015,274.80186572314074 L557.6308824617904,274.8018593633925 M559.5308817286843,278.3393349718846 L559.6431860325015,274.80186572314074 M557.5198862712382,278.33932860574413 L559.5308817286843,278.3393349718846 M556.4725756378225,311.71731333178366 L557.5198862712382,278.33932860574413 M556.4725756378225,311.71731333178366 L571.7021974996096,311.7173176156381 M574.1215783128146,240.9649484018986 L571.7021974996096,311.7173176156381 M558.6925930875225,240.9649442032909 L574.1215783128146,240.9649484018986 M559.4538166490327,302.5857746275607 L557.5198862712382,278.33932860574413 M559.4538166490327,302.5857746275607 L559.5673438954398,299.0241377241049 M557.6308824617904,274.8018593633925 L559.5673438954398,299.0241377241049 M559.8936899408841,255.65951936921067 L558.6925930875225,240.9649442032909 M559.6659267424584,262.8486367318787 L559.8936899408841,255.65951936921067 M559.6659267424584,262.8486367318787 L559.8269268052509,264.82755363755155 M560.0551149310772,257.63434000432454 L559.8269268052509,264.82755363755155 M561.2753867552385,272.56372378009854 L560.0551149310772,257.63434000432454 M543.0010432273884,843.0336999148637 L561.2753867552385,272.56372378009854 M541.9575762436602,824.9603206772263 L543.0010432273884,843.0336999148637 M556.4725756378225,311.71731333178366 L541.9575762436602,824.9603206772263 M561.6024549130177,299.0241333875598 L559.5673438954398,299.0241377241049 M559.6431860325015,274.80186572314074 L561.6024549130177,299.0241333875598 M559.5308817286843,278.3393349718846 L561.4875897341985,302.58577028672096 M561.4875897341985,302.58577028672096 L561.6024549130177,299.0241333875598 M559.4538166490327,302.5857746275607 L561.4875897341985,302.58577028672096 M541.9575762436602,824.9603206772263 L555.8837132638987,824.9603255197524 M571.7021974996096,311.7173176156381 L555.8837132638987,824.9603255197524 M564.1368252850657,257.6343357388603 L560.0551149310772,257.63434000432454 M563.9716097738437,255.6595257554851 L564.1368252850657,257.6343357388603 M559.8936899408841,255.65951936921067 L563.9716097738437,255.6595257554851 M576.9363135957883,272.563728105889 L574.1215783128146,240.9649484018986 M561.2753867552385,272.56372378009854 L576.9363135957883,272.563728105889 M563.9716097738437,255.6595257554851 L563.7384781322221,262.8486431314076 M559.6659267424584,262.8486367318787 L563.7384781322221,262.8486431314076 M563.9032587204151,264.827549363245 L559.8269268052509,264.82755363755155 M563.7384781322221,262.8486431314076 L563.9032587204151,264.827549363245 M564.1368252850657,257.6343357388603 L563.9032587204151,264.827549363245 M543.0010432273884,843.0336999148637 L557.0208863068851,843.0337048227775 M557.0208863068851,843.0337048227775 L576.9363135957883,272.563728105889 M555.8837132638987,824.9603255197524 L557.0208863068851,843.0337048227775" stroke="black"  stroke-width="4"  fill="red"/>
<path d="M234.25058591580031,6.335106030426857 L235.08908059550342,37.70474303643721 M235.08908059550342,37.70474303643721 L236.8779827206209,37.70474136106043 M236.8779827206209,37.70474136106043 L236.96467584019413,40.986770375189735 M236.96467584019413,40.986770375189735 L235.1768075866722,40.986772052492654 M235.1768075866722,40.986772052492654 L236.0051842318748,71.97787467161106 M236.0051842318748,71.97787467161106 L249.55435473785207,71.97787128096184 M247.9573237514203,6.335102716829283 L249.55435473785207,71.97787128096184 M234.25058591580031,6.335106030426857 L247.9573237514203,6.335102716829283 M235.3612782298344,1.4945579532512738 L235.18614966287126,-5.110947479894435 M235.3612782298344,1.4945579532512738 L235.48486167232824,-0.024633787528102857 M235.3100188384319,-6.626499547133847 L235.48486167232824,-0.024633787528102857 M236.23269394724102,-17.914680379457934 L235.3100188384319,-6.626499547133847 M250.06717962262064,508.69566827686674 L236.23269394724102,-17.914680379457934 M249.25561807190195,522.7523273849672 L250.06717962262064,508.69566827686674 M236.0051842318748,71.97787467161106 L249.25561807190195,522.7523273849672 M236.67336435780888,22.223670070085916 L235.1768075866722,40.986772052492654 M236.67336435780888,22.223670070085916 L236.58736015378528,18.96329346910136 M235.08908059550342,37.70474303643721 L236.58736015378528,18.96329346910136 M235.18614966287126,-5.110947479894435 L234.25058591580031,6.335106030426857 M236.8779827206209,37.70474136106043 L238.35860085847568,18.96329346910136 M236.58736015378528,18.96329346910136 L238.35860085847568,18.96329346910136 M236.96467584019413,40.986770375189735 L238.44359149651575,22.223670070085916 M238.35860085847568,18.96329346910136 L238.44359149651575,22.223670070085916 M238.44359149651575,22.223670070085916 L236.67336435780888,22.223670070085916 M249.25561807190195,522.7523273849672 L261.6148663865934,522.7523235708352 M249.55435473785207,71.97787128096184 L261.6148663865934,522.7523235708352 M235.3100188384319,-6.626499547133847 L238.88262616527663,-6.62649464549844 M238.88262616527663,-6.62649464549844 L238.76166588117832,-5.110950752994597 M238.76166588117832,-5.110950752994597 L235.18614966287126,-5.110947479894435 M249.76143351014645,-17.914683607552377 L247.9573237514203,6.335102716829283 M236.23269394724102,-17.914680379457934 L249.76143351014645,-17.914683607552377 M238.93266663197915,1.494554672293532 L235.3612782298344,1.4945579532512738 M238.76166588117832,-5.110950752994597 L238.93266663197915,1.494554672293532 M239.0533479061715,-0.024628874116558563 L238.93266663197915,1.494554672293532 M235.48486167232824,-0.024633787528102857 L239.0533479061715,-0.024628874116558563 M238.88262616527663,-6.62649464549844 L239.0533479061715,-0.024628874116558563 M250.06717962262064,508.69566827686674 L262.3535476747597,508.6956645075845 M262.3535476747597,508.6956645075845 L249.76143351014645,-17.914683607552377 M261.6148663865934,522.7523235708352 L262.3535476747597,508.6956645075845" stroke="black"  stroke-width="4"  fill="red"/>
<path d="M235.08908059550342,37.70474303643721 L234.25058591580031,6.335106030426857 M233.30016356805908,37.704738010306926 L235.08908059550342,37.70474303643721 M233.38892443912476,40.98676702058424 L233.30016356805908,37.704738010306926 M235.1768075866722,40.986772052492654 L233.38892443912476,40.98676702058424 M236.0051842318748,71.97787467161106 L235.1768075866722,40.986772052492654 M236.0051842318748,71.97787467161106 L222.45599890715738,71.97787128096184 M220.5438330953356,6.335102716829283 L222.45599890715738,71.97787128096184 M234.25058591580031,6.335106030426857 L220.5438330953356,6.335102716829283 M236.67336435780888,22.223670070085916 L235.1768075866722,40.986772052492654 M236.67336435780888,22.223670070085916 L236.58736015378528,18.96329346910136 M235.08908059550342,37.70474303643721 L236.58736015378528,18.96329346910136 M235.18614966287126,-5.110947479894435 L234.25058591580031,6.335106030426857 M235.3612782298344,1.4945579532512738 L235.18614966287126,-5.110947479894435 M235.3612782298344,1.4945579532512738 L235.48486167232824,-0.024633787528102857 M235.3100188384319,-6.626499547133847 L235.48486167232824,-0.024633787528102857 M236.23269394724102,-17.914680379457934 L235.3100188384319,-6.626499547133847 M250.06717962262064,508.69566827686674 L236.23269394724102,-17.914680379457934 M249.25561807190195,522.7523273849672 L250.06717962262064,508.69566827686674 M236.0051842318748,71.97787467161106 L249.25561807190195,522.7523273849672 M234.8161115389743,18.96329675403365 L236.58736015378528,18.96329346910136 M233.30016356805908,37.704738010306926 L234.8161115389743,18.96329675403365 M233.38892443912476,40.98676702058424 L234.90312931365983,22.22367335883223 M234.90312931365983,22.22367335883223 L234.8161115389743,18.96329675403365 M236.67336435780888,22.223670070085916 L234.90312931365983,22.22367335883223 M249.25561807190195,522.7523273849672 L236.8963561974868,522.7523235708352 M222.45599890715738,71.97787128096184 L236.8963561974868,522.7523235708352 M231.73742241106254,-6.626496279376909 L235.3100188384319,-6.626499547133847 M231.61062254303044,-5.110952389544707 L231.73742241106254,-6.626496279376909 M235.18614966287126,-5.110947479894435 L231.61062254303044,-5.110952389544707 M222.7039395871439,-17.914683607552377 L220.5438330953356,6.335102716829283 M236.23269394724102,-17.914680379457934 L222.7039395871439,-17.914683607552377 M231.61062254303044,-5.110952389544707 L231.7898789379665,1.4945530318148599 M235.3612782298344,1.4945579532512738 L231.7898789379665,1.4945530318148599 M231.9163863261533,-0.02463051192040666 L235.48486167232824,-0.024633787528102857 M231.7898789379665,1.4945530318148599 L231.9163863261533,-0.02463051192040666 M231.73742241106254,-6.626496279376909 L231.9163863261533,-0.02463051192040666 M250.06717962262064,508.69566827686674 L237.78079808813544,508.6956645075845 M237.78079808813544,508.6956645075845 L222.7039395871439,-17.914683607552377 M236.8963561974868,522.7523235708352 L237.78079808813544,508.6956645075845" stroke="black"  stroke-width="4"  fill="red"/>
<path d="M137.49282625797906,46.24198718446496 L138.89198110792796,78.0543683638947 M138.89198110792796,78.0543683638947 L138.99548487313183,77.24496629310073 M138.99548487313183,77.24496629310073 L139.14172948532195,80.57197477107798 M139.14172948532195,80.57197477107798 L139.0383478436396,81.38228763503105 M139.0383478436396,81.38228763503105 L140.42026275422734,112.80268681011904 M140.42026275422734,112.80268681011904 L141.1972143464822,106.58032500627263 M138.28831476180324,40.15826643075377 L141.1972143464822,106.58032500627263 M137.49282625797906,46.24198718446496 L138.28831476180324,40.15826643075377 M110.26297994940131,52.96912466899636 L109.93441600811354,46.241985456095165 M110.26297994940131,52.96912466899636 L106.59287338607925,52.96912120417966 M106.25995015714739,46.2419819993554 L106.59287338607925,52.96912120417966 M78.70155475175142,46.24198718446496 L106.25995015714739,46.2419819993554 M107.89425365454798,583.3694550673079 L78.70155475175142,46.24198718446496 M134.50536406163735,583.3694550673079 L107.89425365454798,583.3694550673079 M140.42026275422734,112.80268681011904 L134.50536406163735,583.3694550673079 M94.52432206246954,81.38228413641957 L139.0383478436396,81.38228763503105 M94.52432206246954,81.38228413641957 L94.35166715424441,78.05436486921462 M138.89198110792796,78.0543683638947 L94.35166715424441,78.05436486921462 M109.93441600811354,46.241985456095165 L137.49282625797906,46.24198718446496 M138.99548487313183,77.24496629310073 L94.47378173212178,77.24496803898239 M94.35166715424441,78.05436486921462 L94.47378173212178,77.24496803898239 M139.14172948532195,80.57197477107798 L94.64629257090627,80.57197651892466 M94.47378173212178,77.24496803898239 L94.64629257090627,80.57197651892466 M94.64629257090627,80.57197651892466 L94.52432206246954,81.38228413641957 M134.50536406163735,583.3694550673079 L135.2343461879625,576.3088674453804 M141.1972143464822,106.58032500627263 L135.2343461879625,576.3088674453804 M106.25995015714739,46.2419819993554 L106.49545192817936,44.641441987925305 M106.49545192817936,44.641441987925305 L110.16681517449501,44.64144026245492 M110.16681517449501,44.64144026245492 L109.93441600811354,46.241985456095165 M79.68457397819452,40.15826643075377 L138.28831476180324,40.15826643075377 M78.70155475175142,46.24198718446496 L79.68457397819452,40.15826643075377 M110.49482823528325,51.36483809848198 L110.26297994940131,52.96912466899636 M110.16681517449501,44.64144026245492 L110.49482823528325,51.36483809848198 M106.82781694583542,51.364839827987396 L110.49482823528325,51.36483809848198 M106.59287338607925,52.96912120417966 L106.82781694583542,51.364839827987396 M106.49545192817936,44.641441987925305 L106.82781694583542,51.364839827987396 M107.89425365454798,583.3694550673079 L108.7001017228888,576.3088674453804 M108.7001017228888,576.3088674453804 L79.68457397819452,40.15826643075377 M135.2343461879625,576.3088674453804 L108.7001017228888,576.3088674453804" stroke="black"  stroke-width="4"  fill="red"/>
<path d="M138.89198110792796,78.0543683638947 L137.49282625797906,46.24198718446496 M138.78837598065445,78.86443972099619 L138.89198110792796,78.0543683638947 M138.93486500118763,82.19327013865802 L138.78837598065445,78.86443972099619 M139.0383478436396,81.38228763503105 L138.93486500118763,82.19327013865802 M140.42026275422734,112.80268681011904 L139.0383478436396,81.38228763503105 M140.42026275422734,112.80268681011904 L139.63836665044943,119.06452174531194 M136.6922153184716,52.36476152688971 L139.63836665044943,119.06452174531194 M137.49282625797906,46.24198718446496 L136.6922153184716,52.36476152688971 M94.52432206246954,81.38228413641957 L139.0383478436396,81.38228763503105 M94.52432206246954,81.38228413641957 L94.35166715424441,78.05436486921462 M138.89198110792796,78.0543683638947 L94.35166715424441,78.05436486921462 M109.93441600811354,46.241985456095165 L137.49282625797906,46.24198718446496 M110.26297994940131,52.96912466899636 L109.93441600811354,46.241985456095165 M110.26297994940131,52.96912466899636 L106.59287338607925,52.96912120417966 M106.25995015714739,46.2419819993554 L106.59287338607925,52.96912120417966 M78.70155475175142,46.24198718446496 L106.25995015714739,46.2419819993554 M107.89425365454798,583.3694550673079 L78.70155475175142,46.24198718446496 M134.50536406163735,583.3694550673079 L107.89425365454798,583.3694550673079 M140.42026275422734,112.80268681011904 L134.50536406163735,583.3694550673079 M94.22945896199906,78.86443447459556 L94.35166715424441,78.05436486921462 M138.78837598065445,78.86443972099619 L94.22945896199906,78.86443447459556 M138.93486500118763,82.19327013865802 L94.40225811493144,82.19326488635761 M94.40225811493144,82.19326488635761 L94.22945896199906,78.86443447459556 M94.52432206246954,81.38228413641957 L94.40225811493144,82.19326488635761 M134.50536406163735,583.3694550673079 L133.77213258435404,590.471060509004 M139.63836665044943,119.06452174531194 L133.77213258435404,590.471060509004 M106.02407153870752,47.84521801371801 L106.25995015714739,46.2419819993554 M109.70160704829698,47.845216282441356 L106.02407153870752,47.84521801371801 M109.93441600811354,46.241985456095165 L109.70160704829698,47.845216282441356 M77.71220926255785,52.36476152688971 L136.6922153184716,52.36476152688971 M78.70155475175142,46.24198718446496 L77.71220926255785,52.36476152688971 M109.70160704829698,47.845216282441356 L110.03072328080327,54.57609994759713 M110.26297994940131,52.96912466899636 L110.03072328080327,54.57609994759713 M106.3575543646225,54.576101682915464 L106.59287338607925,52.96912120417966 M110.03072328080327,54.57609994759713 L106.3575543646225,54.576101682915464 M106.02407153870752,47.84521801371801 L106.3575543646225,54.576101682915464 M107.89425365454798,583.3694550673079 L107.08370968978784,590.471060509004 M107.08370968978784,590.471060509004 L77.71220926255785,52.36476152688971 M133.77213258435404,590.471060509004 L107.08370968978784,590.471060509004" stroke="black"  stroke-width="4"  fill="red"/></svg>