<svg viewBox="0 0 800 800" xmlns="http://www.w3.org/2000/svg"><path d="M793.0726483739247,399.6145035427228 L792.8185024064445,404.4110836285425 M792.8185024064445,404.4110836285425 L787.4392721363674,404.41108910528067 M787.6900460201855,399.614509013718 L787.4392721363674,404.41108910528067 M787.6900460201855,399.614509013718 L793.0726483739247,399.6145035427228 M793.7932107148936,404.69413795640787 L793.7385607587305,404.30879878417016 M793.7385607587305,404.30879878417016 L793.5221800688547,408.38343005310594 M793.5221800688547,408.38343005310594 L792.9114139324066,404.06938688369394 M792.9114139324066,404.06938688369394 L793.1271441121299,399.99859163946746 M793.1271441121299,399.99859163946746 L793.0726483739247,399.6145035427228 M793.5381613959169,409.49604450131255 L792.8185024064445,404.4110836285425 M793.7932107148936,404.69413795640787 L793.5381613959169,409.49604450131255 M793.5381613959169,409.49604450131255 L788.1493933391124,409.49604450131255 M787.4392721363674,404.41108910528067 L788.1493933391124,409.49604450131255 M787.6900460201855,399.614509013718 L788.4010585948328,404.69413795640787 M788.1493933391124,409.49604450131255 L788.4010585948328,404.69413795640787 M793.7932107148936,404.69413795640787 L788.4010585948328,404.69413795640787 M793.7385607587305,404.30879878417016 L789.9804140832969,404.30879329519894 M789.3746522939704,399.99858616700226 L789.9804140832969,404.30879329519894 M789.3746522939704,399.99858616700226 L793.1271441121299,399.99859163946746 M789.7660346505428,408.38342455925454 L789.9804140832969,404.30879329519894 M793.5221800688547,408.38343005310594 L789.7660346505428,408.38342455925454 M789.1609173549432,404.06938140635407 L789.7660346505428,408.38342455925454 M792.9114139324066,404.06938688369394 L789.1609173549432,404.06938140635407 M789.3746522939704,399.99858616700226 L789.1609173549432,404.06938140635407" stroke="black"  stroke-width="4"  fill="red"/>
<path d="M552.0428106220379,526.948428329575 L551.9350750504352,531.8751159738298 M551.9350750504352,531.8751159738298 L551.7829549059678,529.1088276536386 M551.8904912932812,524.1848882574654 L551.7829549059678,529.1088276536386 M551.8904912932812,524.1848882574654 L552.0428106220379,526.948428329575 M540.7982569001648,526.948428329575 L541.6498912349667,526.9484342986111 M541.6498912349667,526.9484342986111 L541.5642359166562,531.1293163478326 M541.5642359166562,531.1293163478326 L551.1002476025631,531.1293163478326 M551.1002476025631,531.1293163478326 L551.1912011875689,526.9484342986111 M551.1912011875689,526.9484342986111 L552.0428106220379,526.948428329575 M540.6978792500169,531.8751159738298 L551.9350750504352,531.8751159738298 M540.7982569001648,526.948428329575 L540.6978792500169,531.8751159738298 M540.6978792500169,531.8751159738298 L540.5561601287817,529.1088216897132 M551.7829549059678,529.1088276536386 L540.5561601287817,529.1088216897132 M551.8904912932812,524.1848882574654 L540.6563522056786,524.1848822994684 M540.5561601287817,529.1088216897132 L540.6563522056786,524.1848822994684 M540.7982569001648,526.948428329575 L540.6563522056786,524.1848822994684 M541.6498912349667,526.9484342986111 L541.5503777549081,525.0215420876629 M551.0855329849749,525.0215420876629 L541.5503777549081,525.0215420876629 M551.0855329849749,525.0215420876629 L551.1912011875689,526.9484342986111 M541.4648328827737,529.2007980203127 L541.5503777549081,525.0215420876629 M541.5642359166562,531.1293163478326 L541.4648328827737,529.2007980203127 M550.9946966774507,529.2007980203127 L541.4648328827737,529.2007980203127 M551.1002476025631,531.1293163478326 L550.9946966774507,529.2007980203127 M551.0855329849749,525.0215420876629 L550.9946966774507,529.2007980203127" stroke="black"  stroke-width="4"  fill="red"/>
<path d="M242.92094975100616,161.0688189091771 L243.00391638802162,165.60251712700304 M243.00391638802162,165.60251712700304 L242.88655629319987,167.736697716291 M242.803454696584,163.20053977363094 L242.88655629319987,167.736697716291 M242.803454696584,163.20053977363094 L242.92094975100616,161.0688189091771 M252.78821952803912,161.0688189091771 L252.0408977373785,161.06881431282002 M252.0408977373785,161.06881431282002 L252.10685967840624,164.9161512714475 M252.10685967840624,164.9161512714475 L243.73829279907176,164.9161512714475 M243.73829279907176,164.9161512714475 L243.66825073830137,161.06881431282002 M243.66825073830137,161.06881431282002 L242.92094975100616,161.0688189091771 M252.86551986571226,165.60251712700304 L243.00391638802162,165.60251712700304 M252.78821952803912,161.0688189091771 L252.86551986571226,165.60251712700304 M252.86551986571226,165.60251712700304 L252.7561641248759,167.7367023254371 M242.88655629319987,167.736697716291 L252.7561641248759,167.7367023254371 M242.803454696584,163.20053977363094 L252.67873803842411,163.2005443774668 M252.7561641248759,167.7367023254371 L252.67873803842411,163.2005443774668 M252.78821952803912,161.0688189091771 L252.67873803842411,163.2005443774668 M252.0408977373785,161.06881431282002 L251.9641961172387,162.5543848332894 M243.58680402951148,162.5543848332894 L251.9641961172387,162.5543848332894 M243.58680402951148,162.5543848332894 L243.66825073830137,161.06881431282002 M252.03023282216287,166.40317680541372 L251.9641961172387,162.5543848332894 M252.10685967840624,164.9161512714475 L252.03023282216287,166.40317680541372 M243.65692547907014,166.40317680541372 L252.03023282216287,166.40317680541372 M243.73829279907176,164.9161512714475 L243.65692547907014,166.40317680541372 M243.58680402951148,162.5543848332894 L243.65692547907014,166.40317680541372" stroke="black"  stroke-width="4"  fill="red"/>
<path d="M0.44430400617790156,267.65025635299503 L0.6755430242170064,272.30449392169135 M0.6755430242170064,272.30449392169135 L5.806702118674423,272.3044889384439 M5.578531249840523,267.65025137526095 L5.806702118674423,272.3044889384439 M5.578531249840523,267.65025137526095 L0.44430400617790156,267.65025635299503 M1.097633564311593,263.0445822589106 L1.0482196102457237,263.39285001672965 M1.0482196102457237,263.39285001672965 L1.2438399204037864,267.33848620630147 M1.2438399204037864,267.33848620630147 L0.6900337470995623,271.2502023224165 M0.6900337470995623,271.2502023224165 L0.49385179211583363,267.30088906633966 M0.49385179211583363,267.30088906633966 L0.44430400617790156,267.65025635299503 M1.3280926312172596,267.6937139999818 L0.6755430242170064,272.30449392169135 M1.097633564311593,263.0445822589106 L1.3280926312172596,267.6937139999818 M1.3280926312172596,267.6937139999818 L6.45058175268673,267.6937139999818 M5.806702118674423,272.3044889384439 L6.45058175268673,267.6937139999818 M5.578531249840523,267.65025137526095 L6.223180478930658,263.0445822589106 M6.45058175268673,267.6937139999818 L6.223180478930658,263.0445822589106 M1.097633564311593,263.0445822589106 L6.223180478930658,263.0445822589106 M1.0482196102457237,263.39285001672965 L4.621487565190421,263.3928549789381 M4.07224696823738,267.30089404279875 L4.621487565190421,263.3928549789381 M4.07224696823738,267.30089404279875 L0.49385179211583363,267.30088906633966 M4.815298627833727,267.33849117318243 L4.621487565190421,263.3928549789381 M1.2438399204037864,267.33848620630147 L4.815298627833727,267.33849117318243 M4.266614481182785,271.2502073035545 L4.815298627833727,267.33849117318243 M0.6900337470995623,271.2502023224165 L4.266614481182785,271.2502073035545 M4.07224696823738,267.30089404279875 L4.266614481182785,271.2502073035545" stroke="black"  stroke-width="4"  fill="red"/>
<path d="M-35.26968997812662,241.90842051019106 L-34.309601776121326,259.6581453340484 M236.1748728155667,128.9659719600744 L236.50405017216514,146.2212589642821 M-35.26968997812662,241.90842051019106 L236.1748728155667,128.9659719600744 M-34.309601776121326,259.6581453340484 L236.50405017216514,146.2212589642821 M-38.42358009979432,252.49944029825465 L-39.713935298341255,251.53175208063098 M-39.713935298341255,251.53175208063098 L-40.66353166395447,250.48213248617654 M-40.66353166395447,250.48213248617654 L-41.252832959131354,249.3726377629251 M-41.252832959131354,249.3726377629251 L-41.4700265898216,248.22649531060304 M-41.4700265898216,248.22649531060304 L-41.31101522866612,247.06767999904426 M-41.31101522866612,247.06767999904426 L-40.779603334709066,245.92035790286812 M-40.779603334709066,245.92035790286812 L-39.887321691996306,244.80837157806795 M-39.887321691996306,244.80837157806795 L-38.65315515269475,243.75480119459976 M-38.65315515269475,243.75480119459976 L-37.10311999343679,242.7814477982155 M-37.10311999343679,242.7814477982155 L-35.26968997812662,241.90842051019106 M-36.51373136122021,260.74758232491547 L-35.8243448364841,260.36659453149366 M-35.8243448364841,260.36659453149366 L-35.08877658225265,260.00303287924635 M-35.08877658225265,260.00303287924635 L-34.309601776121326,259.6581453340484 M-36.51373136122021,260.74758232491547 L-36.68620566087702,257.57596932816466 M-40.615123962712914,262.34232926163656 L-40.22084049042354,261.1199504337536 M-40.22084049042354,261.1199504337536 L-39.4283407463987,259.9046780895527 M-39.4283407463987,259.9046780895527 L-38.25607304202657,258.72388536523874 M-38.25607304202657,258.72388536523874 L-37.51540589970165,258.14004845510055 M-37.51540589970165,258.14004845510055 L-36.68620566087702,257.57596932816466 M-40.45019701229154,265.3454785903434 L-40.615123962712914,262.34232926163656 M-37.452545322785795,270.29442568710886 L-38.64150629798786,269.4106871787809 M-38.64150629798786,269.4106871787809 L-39.54865386778067,268.45679307830517 M-39.54865386778067,268.45679307830517 L-40.15843091239503,267.44945939017714 M-40.15843091239503,267.44945939017714 L-40.460605847894726,266.40628089172367 M-40.460605847894726,266.40628089172367 L-40.45019701229154,265.3454785903434 M-38.42358009979432,252.49944029825465 L-37.452545322785795,270.29442568710886 M236.1748728155667,128.9659719600744 L238.18235302969137,128.24558093679468 M238.18235302969137,128.24558093679468 L240.41248098186915,127.65955921581701 M240.41248098186915,127.65955921581701 L242.8149315742232,127.22103932527523 M242.8149315742232,127.22103932527523 L245.33548156620674,126.9398000221986 M245.33548156620674,126.9398000221986 L247.91738901419387,126.82213442085344 M247.91738901419387,126.82213442085344 L250.50253178422741,126.87066736142253 M250.50253178422741,126.87066736142253 L253.0326920396858,127.08429718157208 M253.0326920396858,127.08429718157208 L255.4509487804524,127.45827946416841 M255.4509487804524,127.45827946416841 L257.70276994828754,127.98425421693571 M257.70276994828754,127.98425421693571 L259.73728451255164,128.650443134979 M259.73728451255164,128.650443134979 L260.0151384601342,145.90431864613723 M258.49775734150586,145.3846108880132 L259.01915449622237,145.54936940008182 M259.01915449622237,145.54936940008182 L259.52520075971825,145.72269353345374 M259.52520075971825,145.72269353345374 L260.0151384601342,145.90431864613723 M258.49775734150586,145.3846108880132 L258.4475367463661,142.3025744376364 M248.7087780350651,141.15006189750363 L251.28676863539107,141.2232047084084 M251.28676863539107,141.2232047084084 L253.7972724556896,141.44102032677154 M253.7972724556896,141.44102032677154 L256.18370677755905,141.7985551470806 M256.18370677755905,141.7985551470806 L257.34258687337626,142.03384477830434 M257.34258687337626,142.03384477830434 L258.4475367463661,142.3025744376364 M248.75984150867748,144.06419829092184 L248.7087780350651,141.15006189750363 M236.50405017216514,146.2212589642821 L238.22901606090048,145.58571118519816 M238.22901606090048,145.58571118519816 L240.12622313768736,145.05042984506585 M240.12622313768736,145.05042984506585 L242.16340683030458,144.6244600413282 M242.16340683030458,144.6244600413282 L244.30582797480918,144.31495508958497 M244.30582797480918,144.31495508958497 L246.51714634306688,144.12714952046704 M246.51714634306688,144.12714952046704 L248.75984150867748,144.06419829092184 M259.73728451255164,128.650443134979 L260.5097418049806,128.9659719600744 M260.5097418049806,128.9659719600744 L831.2867173485165,377.5649954780382 M831.2867173485165,377.5649954780382 L832.9833497911784,378.39557723466373 M832.9833497911784,378.39557723466373 L834.6600935975711,379.4559444226087 M834.6600935975711,379.4559444226087 L836.0099623457402,380.60784282983525 M836.0099623457402,380.60784282983525 L837.0044382980681,381.8274387426395 M837.0044382980681,381.8274387426395 L837.6224457589948,383.08946989571166 M837.6224457589948,383.08946989571166 L837.8505698166474,384.36768311886965 M837.8505698166474,384.36768311886965 L837.6835404045258,385.6354315718363 M837.6835404045258,385.6354315718363 L837.1243301237178,386.8662417040632 M837.1243301237178,386.8662417040632 L836.1841227344181,388.03431146880564 M836.1841227344181,388.03431146880564 L834.8821395662519,389.11510872823203 M834.8821395662519,389.11510872823203 L833.245252558533,390.08586647914785 M833.245252558533,390.08586647914785 L561.903106464044,527.5625364153967 M561.903106464044,527.5625364153967 L559.6898329503754,528.5223811172816 M559.6898329503754,528.5223811172816 L557.1976678528545,529.3040424834774 M557.1976678528545,529.3040424834774 L554.4833691621062,529.8894587295586 M554.4833691621062,529.8894587295586 L551.609033075719,530.2651333803794 M551.609033075719,530.2651333803794 L548.6404262553109,530.4223613304082 M548.6404262553109,530.4223613304082 L545.6455759893388,530.3575065700333 M545.6455759893388,530.3575065700333 L542.6931577864927,530.0720945549133 M542.6931577864927,530.0720945549133 L539.850735581141,529.5726942694644 M539.850735581141,529.5726942694644 L537.1833657733567,528.8708558786791 M537.1833657733567,528.8708558786791 L534.7519921400943,527.9828035054661 M534.7519921400943,527.9828035054661 L533.8219378548523,527.5625364153967 M533.8219378548523,527.5625364153967 L-37.045074760962166,253.25841500073133 M-37.045074760962166,253.25841500073133 L-38.42358009979432,252.49944029825465 M534.381932989151,546.8885462887299 L533.4542660054639,546.4666822148192 M536.1966955385153,547.5807829188182 L535.5746304797193,547.3612646553028 M535.5746304797193,547.3612646553028 L534.9694056252087,547.1303984038684 M534.9694056252087,547.1303984038684 L534.381932989151,546.8885462887299 M536.1966955385153,547.5807829188182 L535.1759924669254,526.9484342986111 M540.7982569001648,526.948428329575 L535.1759924669254,526.9484342986111 M540.7982569001648,526.948428329575 L541.2255890308162,535.2698665443818 M546.8635287636422,535.26987854906 L541.2255890308162,535.2698665443818 M547.6126617924195,549.342215453623 L546.8635287636422,535.26987854906 M561.4649222051836,546.4666822148192 L559.5654770750051,547.3128522291586 M559.5654770750051,547.3128522291586 L557.4510324600093,548.0262173475119 M557.4510324600093,548.0262173475119 L555.1578421174125,548.5943553367235 M555.1578421174125,548.5943553367235 L552.725497862404,549.0074093716322 M552.725497862404,549.0074093716322 L550.1958843529096,549.2581510101697 M550.1958843529096,549.2581510101697 L547.6126617924195,549.342215453623 M832.1771122126175,408.4516160741501 L561.4649222051836,546.4666822148192 M834.1341535647624,407.2407170530097 L833.535950853525,407.66395490558625 M833.535950853525,407.66395490558625 L832.88284463957,408.06806123543174 M832.88284463957,408.06806123543174 L832.1771122126175,408.4516160741501 M834.1341535647624,407.2407170530097 L794.1544510810046,407.2407170530097 M793.7932107148936,404.69413795640787 L794.1544510810046,407.2407170530097 M793.7932107148936,404.69413795640787 L809.9697244445532,404.6941324659599 M809.5947823255209,402.1520671259715 L809.9697244445532,404.6941324659599 M836.723126814408,402.15206164526296 L809.5947823255209,402.1520671259715 M831.9202047976727,396.71407298391193 L833.4596375821448,397.68217976073106 M833.4596375821448,397.68217976073106 L834.7294101557262,398.72858077384876 M834.7294101557262,398.72858077384876 L835.7072030835751,399.83523147219626 M835.7072030835751,399.83523147219626 L836.3757966898332,400.9830273165253 M836.3757966898332,400.9830273165253 L836.723126814408,402.15206164526296 M830.2279295996627,395.8801251186527 L831.9202047976727,396.71407298391193 M260.7859480927011,146.2212589642821 L830.2279295996627,395.8801251186527 M260.0151384601342,145.90431864613723 L260.7859480927011,146.2212589642821 M258.49775734150586,145.3846108880132 L257.7218439975708,161.06881431282002 M252.78821952803912,161.0688189091771 L257.7218439975708,161.06881431282002 M252.78821952803912,161.0688189091771 L253.1155674158602,154.69437376951876 M248.19393070528065,154.6943646214601 L253.1155674158602,154.69437376951876 M248.75984150867748,144.06419829092184 L248.19393070528065,154.6943646214601 M-36.51373136122021,260.74758232491547 L1.423470330277496,260.74758232491547 M1.097633564311593,263.0445822589106 L1.423470330277496,260.74758232491547 M1.097633564311593,263.0445822589106 L-14.27906321402753,263.04458721985 M-14.618454219747377,265.34547362101716 L-14.27906321402753,263.04458721985 M-40.45019701229154,265.3454785903434 L-14.618454219747377,265.34547362101716 M-36.07691330960671,271.0566365842242 L-37.452545322785795,270.29442568710886 M533.4542660054639,546.4666822148192 L-36.07691330960671,271.0566365842242 M1.0482196102457237,263.39285001672965 L0.7712344218783755,265.34546865169125 M-4.077994570498333,263.3928549789381 L1.0482196102457237,263.39285001672965 M0.7712344218783755,265.34546865169125 L-4.358654882010626,265.34547362101716 M-4.358654882010626,265.34547362101716 L-4.077994570498333,263.3928549789381 M252.0408977373785,161.06881431282002 L247.85457423783993,161.06881431282002 M252.15080821239223,158.9405504371518 L252.0408977373785,161.06881431282002 M247.85457423783993,161.06881431282002 L247.96788367662612,158.9405504371518 M247.96788367662612,158.9405504371518 L252.15080821239223,158.9405504371518 M541.6498912349667,526.9484342986111 L546.420546211268,526.9484342986111 M541.7928483269443,529.7171031795339 L541.6498912349667,526.9484342986111 M546.420546211268,526.9484342986111 L546.5679250318344,529.7171031795339 M546.5679250318344,529.7171031795339 L541.7928483269443,529.7171031795339 M793.7385607587305,404.30879878417016 L793.43262226371,402.15207260668035 M799.1299984593833,404.30879329519894 L793.7385607587305,404.30879878417016 M793.43262226371,402.15207260668035 L798.8200006823173,402.1520671259715 M798.8200006823173,402.1520671259715 L799.1299984593833,404.30879329519894 M-9.055467112433178,256.0954495133551 L1.1931251518532804,256.09545446041227 M-36.68620566087702,257.57596932816466 L-9.055467112433178,256.0954495133551 M1.1931251518532804,256.09545446041227 L1.423470330277496,260.74758232491547 M-40.615123962712914,262.34232926163656 L-14.84463347331149,260.9623482069844 M-14.84463347331149,260.9623482069844 L-14.504860637574268,258.66387067782114 M-9.390361794842704,258.3898967434926 L-14.504860637574268,258.66387067782114 M-9.390361794842704,258.3898967434926 L-9.055467112433178,256.0954495133551 M-14.618454219747377,265.34547362101716 L-14.84463347331149,260.9623482069844 M-37.045074760962166,253.25841500073133 L-36.07691330960671,271.0566365842242 M260.5097418049806,128.9659719600744 L260.7859480927011,146.2212589642821 M257.8579264564529,152.28175152226075 L257.6472911795076,156.52990314273117 M258.4475367463661,142.3025744376364 L257.8579264564529,152.28175152226075 M257.6472911795076,156.52990314273117 L257.7218439975708,161.06881431282002 M248.7087780350651,141.15006189750363 L248.11879383460558,150.42955556656742 M248.11879383460558,150.42955556656742 L253.043087037082,150.42956470463568 M252.9294905914834,152.28175152226075 L253.043087037082,150.42956470463568 M252.9294905914834,152.28175152226075 L257.8579264564529,152.28175152226075 M248.19393070528065,154.6943646214601 L248.11879383460558,150.42955556656742 M831.2867173485165,377.5649954780382 L830.2279295996627,395.8801251186527 M832.9833497911784,378.39557723466373 L831.9202047976727,396.71407298391193 M833.245252558533,390.08586647914785 L832.1771122126175,408.4516160741501 M834.1341535647624,407.2407170530097 L834.3257036865186,403.9610873489586 M836.9050295583569,399.0534949008786 L836.9010582306788,400.37963286258355 M836.9010582306788,400.37963286258355 L836.4684659079418,401.65425874815753 M836.4684659079418,401.65425874815753 L835.6165125081127,402.8481954983125 M835.6165125081127,402.8481954983125 L835.0221581392852,403.42059937748525 M835.0221581392852,403.42059937748525 L834.3257036865186,403.9610873489586 M836.723126814408,402.15206164526296 L836.9050295583569,399.0534949008786 M561.903106464044,527.5625364153967 L561.4649222051836,546.4666822148192 M534.7519921400943,527.9828035054661 L534.381932989151,546.8885462887299 M536.1966955385153,547.5807829188182 L536.2636207773337,544.2036884954014 M547.6808589073452,546.1468973318915 L544.6906265376043,546.0234493103803 M544.6906265376043,546.0234493103803 L541.757675926296,545.6560210265994 M541.757675926296,545.6560210265994 L538.949220848545,545.0529665831564 M538.949220848545,545.0529665831564 L537.5773320875506,544.6562957861161 M537.5773320875506,544.6562957861161 L536.2636207773337,544.2036884954014 M547.6126617924195,549.342215453623 L547.6808589073452,546.1468973318915 M533.8219378548523,527.5625364153967 L533.4542660054639,546.4666822148192 M535.5473819143207,527.552250525094 L535.2728178809127,522.0152906013775 M536.2636207773337,544.2036884954014 L535.5473819143207,527.552250525094 M535.2728178809127,522.0152906013775 L535.1759924669254,526.9484342986111 M540.8987660875395,522.0152846382944 L535.2728178809127,522.0152906013775 M540.7982569001648,526.948428329575 L540.8987660875395,522.0152846382944 M541.3207099722591,530.61930145336 L541.2255890308162,535.2698665443818 M541.1837637352678,527.552250525094 L541.3207099722591,530.61930145336 M540.8987660875395,522.0152846382944 L541.1837637352678,527.552250525094 M546.8635287636422,535.26987854906 L546.9621360019527,530.6193134468117 M546.9621360019527,530.6193134468117 L541.3207099722591,530.61930145336 M547.6808589073452,546.1468973318915 L546.9621360019527,530.6193134468117 M805.2109900329689,402.4301063837647 L794.4102752718811,402.4301008893257 M834.3257036865186,403.9610873489586 L805.2109900329689,402.4301063837647 M794.4102752718811,402.4301008893257 L794.1544510810046,407.2407170530097 M794.0485805692416,399.88619657516904 L794.4102752718811,402.4301008893257 M793.7932107148936,404.69413795640787 L794.0485805692416,399.88619657516904 M810.2196297769573,400.1691887923805 L809.9697244445532,404.6941324659599 M804.8397080144751,399.88619657516904 L810.2196297769573,400.1691887923805 M794.0485805692416,399.88619657516904 L804.8397080144751,399.88619657516904 M809.5947823255209,402.1520671259715 L809.8442442409838,397.62963885299456 M809.8442442409838,397.62963885299456 L810.2196297769573,400.1691887923805 M836.9050295583569,399.0534949008786 L809.8442442409838,397.62963885299456 M252.7108303085389,156.52990773376737 L257.6472911795076,156.52990314273117 M252.78821952803912,161.0688189091771 L252.7108303085389,156.52990773376737 M253.043087037082,150.42956470463568 L253.1155674158602,154.69437376951876 M252.7108303085389,156.52990773376737 L252.9294905914834,152.28175152226075 M0.8668991948924827,258.3898967434926 L1.1931251518532804,256.09545446041227 M1.097633564311593,263.0445822589106 L0.8668991948924827,258.3898967434926 M-14.504860637574268,258.66387067782114 L-14.27906321402753,263.04458721985 M0.8668991948924827,258.3898967434926 L-9.390361794842704,258.3898967434926 M0.5751376898108447,261.3940470506059 L0.7712344218783755,265.34546865169125 M1.0482196102457237,263.39285001672965 L0.852403821428652,259.44327104805427 M0.852403821428652,259.44327104805427 L0.5751376898108447,261.3940470506059 M-4.077994570498333,263.3928549789381 L-4.276408502349057,259.44327600557835 M-4.276408502349057,259.44327600557835 L0.852403821428652,259.44327104805427 M0.5751376898108447,261.3940470506059 L-4.557353484752298,261.39405201524437 M-4.358654882010626,265.34547362101716 L-4.557353484752298,261.39405201524437 M-4.276408502349057,259.44327600557835 L-4.557353484752298,261.39405201524437 M247.7865068751483,157.21777939182644 L247.85457423783993,161.06881431282002 M252.0408977373785,161.06881431282002 L251.97487239541186,157.21777939182644 M251.97487239541186,157.21777939182644 L247.7865068751483,157.21777939182644 M252.15080821239223,158.9405504371518 L252.08489007290905,155.091606486722 M252.08489007290905,155.091606486722 L251.97487239541186,157.21777939182644 M247.7865068751483,157.21777939182644 L247.8999268317981,155.091606486722 M247.96788367662612,158.9405504371518 L247.8999268317981,155.091606486722 M252.08489007290905,155.091606486722 L247.8999268317981,155.091606486722 M546.5089475699997,522.7629640657099 L546.420546211268,526.9484342986111 M541.6498912349667,526.9484342986111 L541.7356405531389,522.7629640657099 M541.7356405531389,522.7629640657099 L546.5089475699997,522.7629640657099 M541.7928483269443,529.7171031795339 L541.8787567114897,525.5292919935297 M541.8787567114897,525.5292919935297 L541.7356405531389,522.7629640657099 M546.5089475699997,522.7629640657099 L546.6564903767267,525.5292919935297 M546.5679250318344,529.7171031795339 L546.6564903767267,525.5292919935297 M541.8787567114897,525.5292919935297 L546.6564903767267,525.5292919935297 M793.6489043935989,398.07507972674387 L793.43262226371,402.15207260668035 M793.7385607587305,404.30879878417016 L793.9551690269251,400.22988202314093 M793.9551690269251,400.22988202314093 L793.6489043935989,398.07507972674387 M799.1299984593833,404.30879329519894 L799.3494807498671,400.2298765390641 M799.3494807498671,400.2298765390641 L793.9551690269251,400.22988202314093 M793.6489043935989,398.07507972674387 L799.0391525071966,398.0750742509264 M798.8200006823173,402.1520671259715 L799.0391525071966,398.0750742509264 M799.3494807498671,400.2298765390641 L799.0391525071966,398.0750742509264 M804.8397080144751,399.88619657516904 L805.2109900329689,402.4301063837647 M541.1837637352678,527.552250525094 L535.5473819143207,527.552250525094" stroke="black"  stroke-width="4"  fill="red"/>
<path d="M551.856357769361,511.80077031403005 L549.9502262299654,599.241495098373 M764.15310010011,404.98911518559987 L759.9415455915573,490.51640651761466 M551.856357769361,511.80077031403005 L764.15310010011,404.98911518559987 M549.9502262299654,599.241495098373 L759.9415455915573,490.51640651761466 M779.6200388027809,411.86157624725115 L775.2251881631062,497.5147090403695 M764.15310010011,404.98911518559987 L779.6200388027809,411.86157624725115 M759.9415455915573,490.51640651761466 L775.2251881631062,497.5147090403695 M567.3730779422307,519.1958415634673 L565.2819711499886,606.7656897045465 M779.6200388027809,411.86157624725115 L567.3730779422307,519.1958415634673 M775.2251881631062,497.5147090403695 L565.2819711499886,606.7656897045465 M567.3730779422307,519.1958415634673 L551.856357769361,511.80077031403005 M565.2819711499886,606.7656897045465 L549.9502262299654,599.241495098373" stroke="black"  stroke-width="4"  fill="red"/>
<path d="M16.380582112274624,256.5998342131511 L20.315494572036755,339.31838706528947 M228.69508167993135,167.06780105339882 L230.32334751940675,248.00691610562902 M16.380582112274624,256.5998342131511 L228.69508167993135,167.06780105339882 M20.315494572036755,339.31838706528947 L230.32334751940675,248.00691610562902 M241.69737622136597,172.8451410083766 L243.1954946422271,253.90100707649472 M228.69508167993135,167.06780105339882 L241.69737622136597,172.8451410083766 M230.32334751940675,248.00691610562902 L243.1954946422271,253.90100707649472 M29.344152252601475,262.7781066680743 L33.15012070430248,345.6170976961015 M241.69737622136597,172.8451410083766 L29.344152252601475,262.7781066680743 M243.1954946422271,253.90100707649472 L33.15012070430248,345.6170976961015 M29.344152252601475,262.7781066680743 L16.380582112274624,256.5998342131511 M33.15012070430248,345.6170976961015 L20.315494572036755,339.31838706528947" stroke="black"  stroke-width="4"  fill="red"/>
<path d="M252.75794975320503,172.84514564612576 L254.14234203900196,253.90101180785862 M266.37537222135455,167.06780105339882 L267.61704618620263,248.00691610562902 M252.75794975320503,172.84514564612576 L266.37537222135455,167.06780105339882 M254.14234203900196,253.90101180785862 L267.61704618620263,248.00691610562902 M776.9770284865194,392.50798619621287 L772.6408808831067,477.8057761633818 M266.37537222135455,167.06780105339882 L776.9770284865194,392.50798619621287 M267.61704618620263,248.00691610562902 L772.6408808831067,477.8057761633818 M763.4077194572543,399.3206373434052 L759.2127200564659,484.7438508865336 M776.9770284865194,392.50798619621287 L763.4077194572543,399.3206373434052 M772.6408808831067,477.8057761633818 L759.2127200564659,484.7438508865336 M763.4077194572543,399.3206373434052 L252.75794975320503,172.84514564612576 M759.2127200564659,484.7438508865336 L254.14234203900196,253.90101180785862" stroke="black"  stroke-width="4"  fill="red"/>
<path d="M13.984182870563814,274.1476009537264 L17.969817519426897,357.20743297665217 M28.66834171424199,267.9176814595862 L32.48861435644159,350.8566309773091 M13.984182870563814,274.1476009537264 L28.66834171424199,267.9176814595862 M17.969817519426897,357.20743297665217 L32.48861435644159,350.8566309773091 M539.371940906644,511.8007644053776 L537.610508871347,599.2414890863776 M28.66834171424199,267.9176814595862 L539.371940906644,511.8007644053776 M32.48861435644159,350.8566309773091 L537.610508871347,599.2414890863776 M524.6425668222638,519.1958415634673 L523.0479421616614,606.7656897045465 M539.371940906644,511.8007644053776 L524.6425668222638,519.1958415634673 M537.610508871347,599.2414890863776 L523.0479421616614,606.7656897045465 M524.6425668222638,519.1958415634673 L13.984182870563814,274.1476009537264 M523.0479421616614,606.7656897045465 L17.969817519426897,357.20743297665217" stroke="black"  stroke-width="4"  fill="red"/>
<path d="" stroke="black"  stroke-width="4"  fill="red"/>
<path d="M793.6489043935989,398.07507972674387 L793.43262226371,402.15207260668035 M793.7385607587305,404.30879878417016 L793.43262226371,402.15207260668035 M793.7385607587305,404.30879878417016 L793.9551690269251,400.22988202314093 M793.9551690269251,400.22988202314093 L793.6489043935989,398.07507972674387 M793.6489043935989,398.07507972674387 L799.0391525071966,398.0750742509264 M798.8200006823173,402.1520671259715 L799.0391525071966,398.0750742509264 M793.43262226371,402.15207260668035 L798.8200006823173,402.1520671259715 M798.8200006823173,402.1520671259715 L799.1299984593833,404.30879329519894 M799.1299984593833,404.30879329519894 L793.7385607587305,404.30879878417016 M799.1299984593833,404.30879329519894 L799.3494807498671,400.2298765390641 M799.3494807498671,400.2298765390641 L793.9551690269251,400.22988202314093 M799.3494807498671,400.2298765390641 L799.0391525071966,398.0750742509264" stroke="black"  stroke-width="4"  fill="red"/>
<path d="M895.7929424668417,402.1520671259715 L809.8442442409838,397.62963885299456 M889.4923960369588,497.00684828210626 L895.7929424668417,402.1520671259715 M793.721243086699,497.00684828210626 L889.4923960369588,497.00684828210626 M793.2069263792495,411.7445370553611 L793.721243086699,497.00684828210626 M793.2069263792495,411.7445370553611 L803.6850002540106,411.74453156317713 M803.9460258925249,406.9513040063289 L803.6850002540106,411.74453156317713 M809.3300510525565,406.9513094927846 L803.9460258925249,406.9513040063289 M809.3300510525565,406.9513094927846 L809.8442442409838,397.62963885299456 M809.8442442409838,397.62963885299456 L810.2196297769573,400.1691887923805 M804.8397080144751,399.88619657516904 L810.2196297769573,400.1691887923805 M804.8397080144751,399.88619657516904 L805.2109900329689,402.4301063837647 M896.6967603624876,407.2407280534359 L805.2109900329689,402.4301063837647 M895.7929424668417,402.1520671259715 L896.6967603624876,407.2407280534359 M889.4923960369588,497.00684828210626 L890.3739312359645,502.19887284212916 M890.3739312359645,502.19887284212916 L896.6967603624876,407.2407280534359 M793.721243086699,497.00684828210626 L794.4346310986367,502.19887284212916 M794.4346310986367,502.19887284212916 L890.3739312359645,502.19887284212916 M793.5668623200285,414.29192206304253 L793.5381613959169,409.49604450131255 M793.5668623200285,414.29192206304253 L793.2069263792495,411.7445370553611 M793.8989482810227,412.04528965910004 L794.4346310986367,502.19887284212916 M793.5381613959169,409.49604450131255 L793.8989482810227,412.04528965910004 M804.0542549712565,414.291927564974 L793.5668623200285,414.29192206304253 M803.6850002540106,411.74453156317713 L804.0542549712565,414.291927564974 M804.315744023769,409.49604450131255 L804.0542549712565,414.291927564974 M804.315744023769,409.49604450131255 L803.9460258925249,406.9513040063289 M809.7045229003114,409.4960390051135 L809.3300510525565,406.9513094927846 M804.315744023769,409.49604450131255 L809.7045229003114,409.4960390051135 M810.2196297769573,400.1691887923805 L809.7045229003114,409.4960390051135 M793.5381613959169,409.49604450131255 L794.0485805692416,399.88619657516904 M794.0485805692416,399.88619657516904 L804.8397080144751,399.88619657516904 M805.2109900329689,402.4301063837647 L794.4102752718811,402.4301008893257 M794.0485805692416,399.88619657516904 L794.4102752718811,402.4301008893257 M794.4102752718811,402.4301008893257 L793.8989482810227,412.04528965910004" stroke="black"  stroke-width="4"  fill="red"/>
<path d="" stroke="black"  stroke-width="4"  fill="red"/>
<path d="M546.5089475699997,522.7629640657099 L546.420546211268,526.9484342986111 M541.6498912349667,526.9484342986111 L546.420546211268,526.9484342986111 M541.6498912349667,526.9484342986111 L541.7356405531389,522.7629640657099 M541.7356405531389,522.7629640657099 L546.5089475699997,522.7629640657099 M546.5089475699997,522.7629640657099 L546.6564903767267,525.5292919935297 M546.5679250318344,529.7171031795339 L546.6564903767267,525.5292919935297 M546.420546211268,526.9484342986111 L546.5679250318344,529.7171031795339 M546.5679250318344,529.7171031795339 L541.7928483269443,529.7171031795339 M541.7928483269443,529.7171031795339 L541.6498912349667,526.9484342986111 M541.7928483269443,529.7171031795339 L541.8787567114897,525.5292919935297 M541.8787567114897,525.5292919935297 L541.7356405531389,522.7629640657099 M541.8787567114897,525.5292919935297 L546.6564903767267,525.5292919935297" stroke="black"  stroke-width="4"  fill="red"/>
<path d="M549.2684790484393,580.4457246883857 L546.9621360019527,530.6193134468117 M547.139109684448,678.7857864143593 L549.2684790484393,580.4457246883857 M544.5085616722014,627.0940729640923 L547.139109684448,678.7857864143593 M546.2202869991015,536.9412410079555 L544.5085616722014,627.0940729640923 M546.2202869991015,536.9412410079555 L546.5068282015587,542.3488253505894 M546.6111343286478,537.4230985193055 L546.5068282015587,542.3488253505894 M546.7588917846648,540.2048213704436 L546.6111343286478,537.4230985193055 M546.7588917846648,540.2048213704436 L546.9621360019527,530.6193134468117 M546.9621360019527,530.6193134468117 L541.3207099722591,530.61930145336 M541.1837637352678,527.552250525094 L541.3207099722591,530.61930145336 M541.1837637352678,527.552250525094 L535.5473819143207,527.552250525094 M537.8225570105423,580.4457185036342 L535.5473819143207,527.552250525094 M549.2684790484393,580.4457246883857 L537.8225570105423,580.4457185036342 M547.139109684448,678.7857864143593 L535.8437568062022,678.7857801135726 M535.8437568062022,678.7857801135726 L537.8225570105423,580.4457185036342 M544.5085616722014,627.0940729640923 L533.3992049391156,627.0940729640923 M533.3992049391156,627.0940729640923 L535.8437568062022,678.7857801135726 M540.6051023608509,536.9412469894179 L540.6978792500169,531.8751159738298 M540.6051023608509,536.9412469894179 L546.2202869991015,536.9412410079555 M535.0792937691797,531.8751219487982 L533.3992049391156,627.0940729640923 M540.6978792500169,531.8751159738298 L535.0792937691797,531.8751219487982 M540.8815123848005,542.3488313536556 L540.6051023608509,536.9412469894179 M546.5068282015587,542.3488253505894 L540.8815123848005,542.3488313536556 M540.9821307375016,537.4231045164524 L540.8815123848005,542.3488313536556 M540.9821307375016,537.4231045164524 L546.6111343286478,537.4230985193055 M541.1246515325081,540.2048093538784 L546.7588917846648,540.2048213704436 M540.9821307375016,537.4231045164524 L541.1246515325081,540.2048093538784 M541.3207099722591,530.61930145336 L541.1246515325081,540.2048093538784 M540.6978792500169,531.8751159738298 L540.8987660875395,522.0152846382944 M540.8987660875395,522.0152846382944 L541.1837637352678,527.552250525094 M535.5473819143207,527.552250525094 L535.2728178809127,522.0152906013775 M540.8987660875395,522.0152846382944 L535.2728178809127,522.0152906013775 M535.2728178809127,522.0152906013775 L535.0792937691797,531.8751219487982" stroke="black"  stroke-width="4"  fill="red"/>
<path d="" stroke="black"  stroke-width="4"  fill="red"/>
<path d="M247.7865068751483,157.21777939182644 L247.85457423783993,161.06881431282002 M252.0408977373785,161.06881431282002 L247.85457423783993,161.06881431282002 M252.0408977373785,161.06881431282002 L251.97487239541186,157.21777939182644 M251.97487239541186,157.21777939182644 L247.7865068751483,157.21777939182644 M247.7865068751483,157.21777939182644 L247.8999268317981,155.091606486722 M247.96788367662612,158.9405504371518 L247.8999268317981,155.091606486722 M247.85457423783993,161.06881431282002 L247.96788367662612,158.9405504371518 M247.96788367662612,158.9405504371518 L252.15080821239223,158.9405504371518 M252.15080821239223,158.9405504371518 L252.0408977373785,161.06881431282002 M252.15080821239223,158.9405504371518 L252.08489007290905,155.091606486722 M252.08489007290905,155.091606486722 L251.97487239541186,157.21777939182644 M252.08489007290905,155.091606486722 L247.8999268317981,155.091606486722" stroke="black"  stroke-width="4"  fill="red"/>
<path d="M249.976257006825,121.21421358564066 L248.11879383460558,150.42955556656742 M251.5140522367193,210.00702059029132 L249.976257006825,121.21421358564066 M249.55069701123193,248.5880292791638 L251.5140522367193,210.00702059029132 M248.0207136390839,170.01865256859767 L249.55069701123193,248.5880292791638 M248.0207136390839,170.01865256859767 L248.2406651925047,165.86811934309347 M248.16088299731587,161.34452449119314 L248.2406651925047,165.86811934309347 M248.2736750375654,159.22069566703615 L248.16088299731587,161.34452449119314 M248.2736750375654,159.22069566703615 L248.11879383460558,150.42955556656742 M248.11879383460558,150.42955556656742 L253.043087037082,150.42956470463568 M252.9294905914834,152.28175152226075 L253.043087037082,150.42956470463568 M252.9294905914834,152.28175152226075 L257.8579264564529,152.28175152226075 M259.69349102516304,121.21421804329145 L257.8579264564529,152.28175152226075 M249.976257006825,121.21421358564066 L259.69349102516304,121.21421804329145 M251.5140522367193,210.00702059029132 L261.12254771647946,210.00702514967352 M261.12254771647946,210.00702514967352 L259.69349102516304,121.21421804329145 M249.55069701123193,248.5880292791638 L259.29803340292335,248.5880292791638 M259.29803340292335,248.5880292791638 L261.12254771647946,210.00702514967352 M252.9484645759366,170.01864796203776 L252.86551986571226,165.60251712700304 M252.9484645759366,170.01864796203776 L248.0207136390839,170.01865256859767 M257.7963111914252,165.6025125253402 L259.29803340292335,248.5880292791638 M252.86551986571226,165.60251712700304 L257.7963111914252,165.6025125253402 M253.16064005062378,165.8681147510608 L252.9484645759366,170.01864796203776 M248.2406651925047,165.86811934309347 L253.16064005062378,165.8681147510608 M253.08367857943705,161.34451990444202 L253.16064005062378,165.8681147510608 M253.08367857943705,161.34451990444202 L248.16088299731587,161.34452449119314 M253.19249235773566,159.22070482568014 L248.2736750375654,159.22069566703615 M253.08367857943705,161.34451990444202 L253.19249235773566,159.22070482568014 M253.043087037082,150.42956470463568 L253.19249235773566,159.22070482568014 M252.86551986571226,165.60251712700304 L252.7108303085389,156.52990773376737 M252.7108303085389,156.52990773376737 L252.9294905914834,152.28175152226075 M257.8579264564529,152.28175152226075 L257.6472911795076,156.52990314273117 M252.7108303085389,156.52990773376737 L257.6472911795076,156.52990314273117 M257.6472911795076,156.52990314273117 L257.7963111914252,165.6025125253402" stroke="black"  stroke-width="4"  fill="red"/>
<path d="" stroke="black"  stroke-width="4"  fill="red"/>
<path d="M0.5751376898108447,261.3940470506059 L0.7712344218783755,265.34546865169125 M1.0482196102457237,263.39285001672965 L0.7712344218783755,265.34546865169125 M1.0482196102457237,263.39285001672965 L0.852403821428652,259.44327104805427 M0.852403821428652,259.44327104805427 L0.5751376898108447,261.3940470506059 M0.5751376898108447,261.3940470506059 L-4.557353484752298,261.39405201524437 M-4.358654882010626,265.34547362101716 L-4.557353484752298,261.39405201524437 M0.7712344218783755,265.34546865169125 L-4.358654882010626,265.34547362101716 M-4.358654882010626,265.34547362101716 L-4.077994570498333,263.3928549789381 M-4.077994570498333,263.3928549789381 L1.0482196102457237,263.39285001672965 M-4.077994570498333,263.3928549789381 L-4.276408502349057,259.44327600557835 M-4.276408502349057,259.44327600557835 L0.852403821428652,259.44327104805427 M-4.276408502349057,259.44327600557835 L-4.557353484752298,261.39405201524437" stroke="black"  stroke-width="4"  fill="red"/>
<path d="M-96.69676036248757,265.34547362101716 L-14.84463347331149,260.9623482069844 M-90.98070646511138,357.3355588375923 L-96.69676036248757,265.34547362101716 M0.26709838408385167,357.3355588375923 L-90.98070646511138,357.3355588375923 M0.9629938833078882,274.6432893783584 L0.26709838408385167,357.3355588375923 M0.9629938833078882,274.6432893783584 L-9.014878040731332,274.6432943586857 M-9.251569713742867,269.9971622567821 L-9.014878040731332,274.6432943586857 M-14.378416749024609,269.9971572819471 L-9.251569713742867,269.9971622567821 M-14.378416749024609,269.9971572819471 L-14.84463347331149,260.9623482069844 M-14.84463347331149,260.9623482069844 L-14.504860637574268,258.66387067782114 M-9.390361794842704,258.3898967434926 L-14.504860637574268,258.66387067782114 M-9.390361794842704,258.3898967434926 L-9.055467112433178,256.0954495133551 M-95.88010831053549,260.7475724197674 L-9.055467112433178,256.0954495133551 M-96.69676036248757,265.34547362101716 L-95.88010831053549,260.7475724197674 M-90.98070646511138,357.3355588375923 L-90.18321023318396,352.6385030338506 M-90.18321023318396,352.6385030338506 L-95.88010831053549,260.7475724197674 M0.26709838408385167,357.3355588375923 L0.9124773230804522,352.6385030338506 M0.9124773230804522,352.6385030338506 L-90.18321023318396,352.6385030338506 M1.2888421239464947,272.33730687250636 L1.3280926312172596,267.6937139999818 M1.2888421239464947,272.33730687250636 L0.9629938833078882,274.6432893783584 M1.6535409022366139,265.39416414588004 L0.9124773230804522,352.6385030338506 M1.3280926312172596,267.6937139999818 L1.6535409022366139,265.39416414588004 M-8.680637250553673,272.3373019005743 L1.2888421239464947,272.33730687250636 M-9.014878040731332,274.6432943586857 L-8.680637250553673,272.3373019005743 M-8.916929827523859,267.6937139999818 L-8.680637250553673,272.3373019005743 M-8.916929827523859,267.6937139999818 L-9.251569713742867,269.9971622567821 M-14.03943073380782,267.693718966426 L-14.378416749024609,269.9971572819471 M-8.916929827523859,267.6937139999818 L-14.03943073380782,267.693718966426 M-14.504860637574268,258.66387067782114 L-14.03943073380782,267.693718966426 M1.3280926312172596,267.6937139999818 L0.8668991948924827,258.3898967434926 M0.8668991948924827,258.3898967434926 L-9.390361794842704,258.3898967434926 M-9.055467112433178,256.0954495133551 L1.1931251518532804,256.09545446041227 M0.8668991948924827,258.3898967434926 L1.1931251518532804,256.09545446041227 M1.1931251518532804,256.09545446041227 L1.6535409022366139,265.39416414588004" stroke="black"  stroke-width="4"  fill="red"/></svg>